<?xml version="1.0" standalone="no"?>
<!DOCTYPE svg PUBLIC "-//W3C//DTD SVG 1.1//EN" "http://www.w3.org/Graphics/SVG/1.1/DTD/svg11.dtd" >
<svg>
<metadata>
Created by FontForge 20110222 at Mon Jul 22 10:02:33 2013
 By Ubuntu
Copyright (c) 2000, 2003, 2005 Linotype GmbH, www.linotype.com. All rights reserved. This font software may not be reproduced, modified, disclosed or transferred without the express written approval of Linotype GmbH. Frutiger is a trademark of Heidelberger Druckmaschinen AG which may be registered in certain jurisdictions, exclusively licensed through Linotype GmbH. This typeface is original artwork of Adrian Frutiger. The design may be protected in certain jurisdictions. 
</metadata>
<defs>
<font id="FrutigerNextLT-LightCn" horiz-adv-x="460" >
  <font-face 
    font-family="FrutigerNext LT LightCn"
    font-weight="300"
    font-stretch="condensed"
    units-per-em="1000"
    panose-1="2 11 4 6 4 5 4 2 2 4"
    ascent="800"
    descent="-200"
    x-height="497"
    cap-height="667"
    bbox="-148 -227 1000 881"
    underline-thickness="50"
    underline-position="-50"
    unicode-range="U+0020-FB02"
  />
<missing-glyph horiz-adv-x="500" 
d="M442 8v496h-384v-496h384zM50 512h400v-512h-400v512z" />
    <glyph glyph-name=".notdef" horiz-adv-x="500" 
d="M442 8v496h-384v-496h384zM50 512h400v-512h-400v512z" />
    <glyph glyph-name=".null" horiz-adv-x="0" 
 />
    <glyph glyph-name="nonmarkingreturn" horiz-adv-x="230" 
 />
    <glyph glyph-name="space" unicode=" " horiz-adv-x="230" 
 />
    <glyph glyph-name="exclam" unicode="!" horiz-adv-x="257" 
d="M94 0v80h69v-80h-69zM152 156h-47l-8 511h63z" />
    <glyph glyph-name="quotedbl" unicode="&#x22;" horiz-adv-x="357" 
d="M86 459v208h58v-208h-58zM213 459v208h58v-208h-58z" />
    <glyph glyph-name="numbersign" unicode="#" 
d="M181 408l-17 -149h111l17 149h-111zM338 408l-17 -149h84v-46h-90l-24 -213h-46l24 213h-111l-24 -213h-46l24 213h-80v46h86l17 149h-80v46h86l24 213h46l-24 -213h111l24 213h46l-24 -213h84v-46h-90z" />
    <glyph glyph-name="dollar" unicode="$" 
d="M386 173q0 -72 -39 -120t-100 -60v-101h-43v97q-15 0 -32 2.5t-34 6.5t-33 10t-28 14l6 67q16 -15 34.5 -24t35 -14t30 -6.5t21.5 -1.5q41 0 65.5 14.5t37 34.5t16.5 40.5t4 31.5q0 28 -7 48t-19.5 35.5t-30 29t-39.5 30.5l-59 45q-48 37 -71.5 72.5t-23.5 89.5
q0 43 13.5 71.5t34 47t44 27.5t43.5 13v101h41v-97q39 -1 68.5 -9.5t39.5 -11.5l-6 -65q-20 13 -45 22.5t-63 9.5q-15 0 -34.5 -5t-36.5 -17t-28.5 -31.5t-11.5 -48.5q0 -45 21 -72t56 -53l59 -44q33 -25 55 -45t35 -40t18.5 -42.5t5.5 -51.5z" />
    <glyph glyph-name="percent" unicode="%" horiz-adv-x="730" 
d="M243 471q0 20 -1.5 47.5t-8 52.5t-20.5 42.5t-39 17.5t-39.5 -17.5t-21.5 -42.5t-8.5 -52.5t-1.5 -47.5q0 -21 1.5 -48.5t8.5 -52t21.5 -42t39.5 -17.5t39 17.5t20.5 42.5t8 52.5t1.5 47.5zM627 195q0 20 -1.5 47.5t-8 52.5t-20.5 42.5t-39 17.5t-39.5 -17.5t-21.5 -42.5
t-8.5 -52.5t-1.5 -47.5q0 -21 1.5 -48.5t8.5 -52t21.5 -42t39.5 -17.5t39 17.5t20.5 42.5t8 52.5t1.5 47.5zM295 471q0 -28 -4 -63.5t-16.5 -67t-36.5 -53.5t-64 -22t-64.5 22t-37.5 53.5t-17 67t-4 63.5q0 27 4.5 63t17.5 67.5t37 53.5t64 22t64 -22t36.5 -53.5t16.5 -67
t4 -63.5zM252 -24h-48l276 715h48zM679 195q0 -28 -4 -63.5t-16.5 -67t-36.5 -53.5t-64 -22t-64.5 22t-37.5 53.5t-17 67t-4 63.5q0 27 4.5 63t17.5 67.5t37 53.5t64 22t64 -22t36.5 -53.5t16.5 -67t4 -63.5z" />
    <glyph glyph-name="ampersand" unicode="&#x26;" horiz-adv-x="515" 
d="M362 321h-102q-32 0 -58.5 -10.5t-46 -29.5t-30 -45.5t-10.5 -59.5q0 -60 34.5 -96.5t94.5 -36.5q32 0 60 4.5t58 14.5v259zM416 321v-303q-43 -14 -86 -21.5t-88 -7.5q-86 0 -136 50t-50 138q0 34 11 64.5t31 53.5t48 36.5t63 15.5q-68 5 -102.5 48t-34.5 108
q0 40 13 72t35.5 54.5t54 35t69.5 12.5q37 0 62.5 -6.5t59.5 -19.5l-6 -59q-17 9 -30.5 14.5t-26.5 9.5t-27.5 5.5t-33.5 1.5q-52 0 -81.5 -34.5t-29.5 -84.5q0 -62 33.5 -96.5t95.5 -34.5h102v83h54v-83h79v-52h-79z" />
    <glyph glyph-name="quotesingle" unicode="'" horiz-adv-x="230" 
d="M86 459v208h58v-208h-58z" />
    <glyph glyph-name="parenleft" unicode="(" horiz-adv-x="241" 
d="M192 -128q-63 98 -101 202.5t-38 222.5t38 222t101 202h41q-54 -101 -87.5 -205t-33.5 -219t33.5 -219.5t87.5 -205.5h-41z" />
    <glyph glyph-name="parenright" unicode=")" horiz-adv-x="241" 
d="M188 296q0 -118 -38 -222t-101 -202h-41q54 101 87.5 205t33.5 219t-33.5 219.5t-87.5 205.5h41q63 -98 101 -202.5t38 -222.5z" />
    <glyph glyph-name="asterisk" unicode="*" horiz-adv-x="363" 
d="M218 501l69 -111l-47 -27l-59 111l-57 -111l-47 27l69 111l-114 39l19 53l110 -50l-8 124h58l-7 -124l108 50l19 -53z" />
    <glyph glyph-name="plus" unicode="+" horiz-adv-x="530" 
d="M292 217v-217h-54v217h-221v49h221v217h54v-217h222v-49h-222z" />
    <glyph glyph-name="comma" unicode="," horiz-adv-x="230" 
d="M83 -128h-46l49 208h64z" />
    <glyph glyph-name="hyphen" unicode="-" horiz-adv-x="278" 
d="M44 283v54h190v-54h-190z" />
    <glyph glyph-name="period" unicode="." horiz-adv-x="230" 
d="M80 0v80h70v-80h-70z" />
    <glyph glyph-name="slash" unicode="/" horiz-adv-x="236" 
d="M62 0h-52l164 667h52z" />
    <glyph glyph-name="zero" unicode="0" 
d="M352 333q0 21 -0.5 50.5t-4 61.5t-11 64t-21 57.5t-34 41t-50.5 15.5t-50.5 -15.5t-34 -41t-21.5 -57.5t-11.5 -64t-4.5 -61.5t-1 -50.5t1 -50.5t4.5 -62t11.5 -64t21.5 -57t34 -41t50.5 -15.5t50.5 15.5t34 41t21 57.5t11 64t4 61.5t0.5 50.5zM411 333q0 -29 -2.5 -66
t-9.5 -75t-19.5 -74.5t-32.5 -65t-48.5 -46t-67.5 -17.5q-40 0 -69.5 17.5t-49.5 46t-32.5 65t-19.5 74.5t-9 75t-2 66t2.5 66t10 75t20 74.5t33 65t49 46t67.5 17.5q40 0 69 -17.5t49 -46t32 -65t19 -74.5t9 -75t2 -66z" />
    <glyph glyph-name="one" unicode="1" 
d="M225 0v604l-87 -98l-30 41l115 120h58v-667h-56z" />
    <glyph glyph-name="two" unicode="2" 
d="M56 0v49l43 59q28 38 64.5 86.5t69.5 101t56 106.5t23 104q0 54 -25.5 85.5t-79.5 31.5q-35 0 -64 -14.5t-56 -33.5l-6 61q23 14 54 27.5t79 13.5q45 0 75 -15.5t48.5 -40.5t26 -55.5t7.5 -60.5q0 -47 -19 -98t-45.5 -98t-55.5 -87t-49 -66l-82 -104h260v-52h-324z" />
    <glyph glyph-name="three" unicode="3" 
d="M378 189q0 -50 -16 -87.5t-44.5 -62.5t-67 -37.5t-84.5 -12.5q-29 0 -60.5 5t-55.5 21l6 60q26 -14 56.5 -23t60.5 -9q67 0 106.5 39.5t39.5 109.5q0 33 -13.5 57.5t-35 40.5t-49.5 24t-58 8h-42v52h40q33 0 61 7.5t49 24t32.5 42t11.5 61.5q0 28 -11 49.5t-29 36
t-42 21.5t-50 7q-29 0 -56.5 -10t-50.5 -26l-6 59q10 6 25.5 12t32 10t33 6.5t28.5 2.5q37 0 71 -11.5t59 -33t40 -53t15 -70.5q0 -64 -33 -104t-87 -56q31 -5 54.5 -19.5t39 -36t23 -48.5t7.5 -56z" />
    <glyph glyph-name="four" unicode="4" 
d="M296 606l-208 -398h208v398zM352 156v-156h-56v156h-258v57l239 454h75v-459h69v-52h-69z" />
    <glyph glyph-name="five" unicode="5" 
d="M396 211q0 -51 -12.5 -92t-38 -70t-64.5 -44.5t-92 -15.5q-36 0 -60.5 6.5t-56.5 21.5l8 60q22 -15 55 -24.5t59 -9.5q37 0 64 12.5t44.5 34.5t26 51.5t8.5 63.5q0 69 -35 109t-107 40q-30 0 -55.5 -7.5t-51.5 -18.5l11 339h261v-52h-205l-7 -221q17 7 30.5 10.5
t31.5 3.5q45 0 79.5 -14.5t58.5 -40.5t36 -62.5t12 -79.5z" />
    <glyph glyph-name="six" unicode="6" 
d="M359 210q0 29 -6.5 57t-21 49.5t-37.5 35t-56 13.5q-32 0 -54.5 -14t-36.5 -36.5t-21 -50t-7 -54.5t5.5 -56.5t19 -54t35.5 -40.5t55 -16t56.5 15.5t39 40t22.5 54t7 57.5zM418 210q0 -42 -11.5 -82t-34.5 -70.5t-57.5 -49.5t-80.5 -19q-59 0 -95 29.5t-55.5 74t-26.5 97
t-7 97.5q0 38 4 81.5t13.5 87t26 83.5t42 70.5t61 49t83.5 18.5q28 0 55.5 -5t54.5 -13l-6 -60q-24 11 -48 17.5t-51 6.5q-55 0 -88 -30.5t-51.5 -76t-26.5 -98t-13 -96.5q20 43 55 70t83 27q44 0 77 -17.5t54.5 -47t32 -67t10.5 -77.5z" />
    <glyph glyph-name="seven" unicode="7" 
d="M177 0h-61l205 615h-259v52h320v-54z" />
    <glyph glyph-name="eight" unicode="8" 
d="M355 170q0 30 -12 53t-31 41t-43 33t-47 28q-21 -13 -41.5 -28.5t-37.5 -34.5t-27.5 -41.5t-10.5 -49.5t9 -50.5t25 -40.5t39 -27t52 -10q27 0 50 9.5t39.5 27t26 40.5t9.5 50zM337 519q0 21 -8 40t-22.5 33t-34 22.5t-42.5 8.5q-24 0 -43.5 -8.5t-34 -22.5t-22 -33
t-7.5 -40q0 -29 9.5 -51t25.5 -39t36.5 -31t43.5 -27q18 13 35.5 29t32 34.5t23 39.5t8.5 45zM414 172q0 -41 -14 -74.5t-38.5 -57.5t-58.5 -37.5t-73 -13.5q-42 0 -76 13.5t-58 38t-37 58t-13 74.5q0 32 10.5 57t28 45.5t40 38.5t47.5 35q-51 31 -79.5 70.5t-28.5 101.5
q0 35 13.5 63.5t36 49t52.5 32t64 11.5t64 -11.5t52.5 -32t36 -49t13.5 -63.5q0 -30 -9 -54.5t-24.5 -45.5t-36 -38.5t-43.5 -33.5q26 -18 50 -35.5t42 -38.5t28.5 -46t10.5 -57z" />
    <glyph glyph-name="nine" unicode="9" 
d="M342 456q0 27 -6 56.5t-19.5 54t-36 40.5t-55.5 16q-35 0 -58.5 -14t-38 -37t-21 -51.5t-6.5 -58.5q0 -29 7 -58t22 -52t38.5 -37.5t56.5 -14.5q31 0 53 14.5t36.5 37t21 50t6.5 54.5zM411 380q0 -37 -2.5 -80t-11 -86.5t-23 -84t-39 -71.5t-59.5 -50t-84 -19
q-28 0 -58.5 5t-56.5 13l6 62q27 -11 50.5 -18.5t53.5 -7.5q53 0 85.5 31t50 77t24 97.5t7.5 93.5q-19 -45 -54.5 -70.5t-83.5 -25.5q-45 0 -78 19t-54 50t-31.5 69.5t-10.5 77.5q0 43 12 82t35.5 68.5t57.5 47t79 17.5q58 0 94.5 -29.5t56.5 -73.5t27 -96t7 -98z" />
    <glyph glyph-name="colon" unicode=":" horiz-adv-x="230" 
d="M80 0v80h70v-80h-70zM80 417v80h70v-80h-70z" />
    <glyph glyph-name="semicolon" unicode=";" horiz-adv-x="230" 
d="M83 -128h-46l49 208h64zM80 417v80h69v-80h-69z" />
    <glyph glyph-name="less" unicode="&#x3c;" horiz-adv-x="530" 
d="M15 213v54l497 200v-54l-435 -173l435 -172v-53z" />
    <glyph glyph-name="equal" unicode="=" horiz-adv-x="530" 
d="M17 125v48h497v-48h-497zM17 308v48h497v-48h-497z" />
    <glyph glyph-name="greater" unicode="&#x3e;" horiz-adv-x="530" 
d="M18 15v53l435 172l-435 173v54l497 -200v-54z" />
    <glyph glyph-name="question" unicode="?" horiz-adv-x="342" 
d="M103 0v80h70v-80h-70zM300 515q0 -36 -10 -62.5t-25 -50t-32.5 -46t-32.5 -48.5t-25 -58.5t-10 -76.5v-17h-54v14q0 46 9.5 81t24 63t31.5 51t31.5 45.5t24 46.5t9.5 55q0 49 -28 80t-79 31t-94 -30l-6 62q24 10 48 16t49 6q77 0 123 -41.5t46 -120.5z" />
    <glyph glyph-name="at" unicode="@" horiz-adv-x="646" 
d="M396 318q-7 2 -17 2.5t-17 0.5q-34 0 -61 -22t-46 -53.5t-29 -68t-10 -64.5q0 -12 2 -24.5t8 -23t15.5 -17t24.5 -6.5q25 0 43 18.5t31 44t20.5 53.5t11.5 47zM594 230q0 -44 -10 -85t-31 -73.5t-53.5 -52t-76.5 -19.5q-28 0 -48 14.5t-25 43.5q-12 -23 -37.5 -40.5
t-52.5 -17.5q-24 0 -40.5 10t-27 26t-15 36t-4.5 41q0 40 14 84.5t39.5 81t62 60.5t82.5 24q18 0 38 -4.5t37 -11.5l-53 -249q-2 -10 -2 -16q0 -21 9 -30.5t30 -9.5q27 0 47 16t34 42t21 60t7 70q0 45 -13 86t-38.5 72.5t-63 50.5t-85.5 19q-56 0 -99.5 -28.5t-73 -72
t-44.5 -96.5t-15 -102q0 -56 12.5 -105t39 -86t68 -58t99.5 -21q50 0 87 12.5t76 30.5l6 -53q-22 -9 -40 -16t-37.5 -12.5t-43 -8t-56.5 -2.5q-64 0 -113.5 25.5t-83.5 69t-51.5 101.5t-17.5 123q0 63 20 125.5t58 112t93 80t124 30.5q55 0 100.5 -23t78 -61.5t50.5 -88.5
t18 -104z" />
    <glyph glyph-name="A" unicode="A" horiz-adv-x="521" 
d="M260 611l-119 -375h236zM450 0l-57 186h-267l-58 -186h-56l220 667h58l219 -667h-59z" />
    <glyph glyph-name="B" unicode="B" horiz-adv-x="480" 
d="M367 183q0 63 -32.5 100.5t-97.5 37.5h-95v-269h93q132 0 132 131zM351 498q0 57 -31 87t-88 30h-90v-244h89q59 0 89.5 35t30.5 92zM426 183q0 -50 -15 -85t-42 -56.5t-65.5 -31.5t-84.5 -10h-133v667h150q79 0 126.5 -45t47.5 -125q0 -54 -26.5 -93t-79.5 -56
q62 -12 92 -58.5t30 -106.5z" />
    <glyph glyph-name="C" unicode="C" horiz-adv-x="474" 
d="M442 9q-58 -20 -113 -20q-74 0 -126.5 29.5t-86 77.5t-49 110t-15.5 127t16 127t50.5 110t87.5 77.5t128 29.5q26 0 53.5 -5.5t53.5 -17.5l-6 -62q-23 17 -52.5 24t-55.5 7q-60 0 -101.5 -26.5t-67 -68.5t-36.5 -94t-11 -102t11.5 -101t37 -93t66.5 -68.5t100 -26.5
q31 0 56 6.5t54 21.5z" />
    <glyph glyph-name="D" unicode="D" horiz-adv-x="542" 
d="M431 333q0 60 -12.5 112t-41 89.5t-74.5 59t-112 21.5h-49v-563h63q64 0 107 22.5t69.5 61t38 89.5t11.5 108zM490 333q0 -75 -18 -136.5t-55.5 -105t-94 -67.5t-134.5 -24h-102v667h77q166 0 246.5 -85.5t80.5 -248.5z" />
    <glyph glyph-name="E" unicode="E" horiz-adv-x="421" 
d="M86 0v667h278v-52h-222v-243h211v-50h-211v-270h233v-52h-289z" />
    <glyph glyph-name="F" unicode="F" horiz-adv-x="393" 
d="M142 615v-243h204v-50h-204v-322h-56v667h271v-52h-215z" />
    <glyph glyph-name="G" unicode="G" horiz-adv-x="544" 
d="M482 27q-35 -20 -72 -29t-75 -9q-75 0 -129 29.5t-88 78t-50 110t-16 126.5q0 64 17.5 125.5t52.5 110t87.5 78.5t122.5 30q34 0 70.5 -8.5t67.5 -25.5l-6 -63q-27 20 -66.5 31.5t-71.5 11.5q-58 0 -99 -26.5t-66.5 -68.5t-37.5 -93.5t-12 -101.5q0 -53 12.5 -105
t39.5 -93t70 -66.5t105 -25.5q25 0 47 5t43 17v237h-119v52h173v-327z" />
    <glyph glyph-name="H" unicode="H" horiz-adv-x="543" 
d="M401 0v322h-259v-322h-56v667h56v-293h259v293h56v-667h-56z" />
    <glyph glyph-name="I" unicode="I" horiz-adv-x="228" 
d="M86 0v667h56v-667h-56z" />
    <glyph glyph-name="J" unicode="J" horiz-adv-x="259" 
d="M181 175q0 -37 -4.5 -71t-19 -59.5t-41 -40.5t-71.5 -15q-11 0 -22 3t-23 6l6 57q11 -5 20.5 -8.5t20.5 -3.5q29 0 45 13t23.5 32.5t8.5 43.5t1 46v489h56v-492z" />
    <glyph glyph-name="K" unicode="K" horiz-adv-x="477" 
d="M401 0l-259 332v-332h-56v667h56v-304l241 304h68l-260 -317l282 -350h-72z" />
    <glyph glyph-name="L" unicode="L" horiz-adv-x="373" 
d="M86 0v667h56v-615h213v-52h-269z" />
    <glyph glyph-name="M" unicode="M" horiz-adv-x="717" 
d="M575 0v615l-193 -615h-49l-193 615v-615h-54v667h90l184 -597l181 597h90v-667h-56z" />
    <glyph glyph-name="N" unicode="N" horiz-adv-x="579" 
d="M413 0l-273 597v-597h-54v667h80l273 -599v599h54v-667h-80z" />
    <glyph glyph-name="O" unicode="O" horiz-adv-x="563" 
d="M452 333q0 43 -5 94t-23 95t-52 73t-91 29q-56 0 -89.5 -29.5t-51.5 -74t-23.5 -95t-5.5 -92.5q0 -29 2 -61.5t8.5 -65t18 -62t30.5 -52.5t46 -36.5t65 -13.5q56 0 90 29.5t52 73.5t23.5 95t5.5 93zM511 333q0 -56 -10 -116.5t-36 -111t-70.5 -83.5t-113.5 -33
q-72 0 -116.5 32.5t-69.5 83t-34 111t-9 117.5q0 56 10.5 116.5t36.5 111t70 83.5t112 33q72 0 117 -32.5t70 -82.5t34 -111t9 -118z" />
    <glyph glyph-name="P" unicode="P" horiz-adv-x="443" 
d="M354 479q0 77 -42.5 106.5t-117.5 29.5h-52v-271h67q71 0 108 30.5t37 104.5zM413 479q0 -86 -48.5 -136.5t-136.5 -50.5h-86v-292h-56v667h123q93 0 148.5 -45.5t55.5 -142.5z" />
    <glyph glyph-name="Q" unicode="Q" horiz-adv-x="563" 
d="M452 333q0 43 -5 94t-23 95t-52 73t-91 29q-56 0 -89.5 -29.5t-51.5 -74t-23.5 -95t-5.5 -92.5q0 -29 2 -61.5t8.5 -65t18 -62t30.5 -52.5t46 -36.5t65 -13.5q56 0 90 29.5t52 73.5t23.5 95t5.5 93zM511 333q0 -45 -6.5 -94t-22 -93.5t-42.5 -80.5t-68 -56l122 -137h-71
l-106 120q-17 -3 -36 -3q-72 0 -116.5 32.5t-69.5 83t-34 111t-9 117.5q0 56 10.5 116.5t36.5 111t70 83.5t112 33q72 0 117 -32.5t70 -82.5t34 -111t9 -118z" />
    <glyph glyph-name="R" unicode="R" horiz-adv-x="477" 
d="M353 494q0 63 -35.5 92t-95.5 29h-80v-251h84q65 0 96 33.5t31 96.5zM391 0l-83 230q-6 16 -12.5 31t-16 26.5t-23.5 18t-34 6.5h-80v-312h-56v667h152q79 0 126.5 -46t47.5 -126q0 -65 -33 -107.5t-97 -53.5q29 -5 42 -19t23 -40l104 -275h-60z" />
    <glyph glyph-name="S" unicode="S" horiz-adv-x="405" 
d="M359 173q0 -42 -14 -76t-38 -58t-56.5 -37t-69.5 -13q-15 0 -32.5 2t-35 6t-34 10t-29.5 15l6 67q16 -15 34.5 -24t35 -14t30 -6.5t21.5 -1.5q41 0 65.5 14.5t37 34.5t16.5 40.5t4 31.5q0 28 -7 48t-19.5 35.5t-30 29t-39.5 30.5l-59 45q-48 37 -71.5 72.5t-23.5 89.5
q0 37 10.5 64t27.5 45t37.5 28.5t39.5 16.5t34.5 7.5t23.5 1.5q40 0 70.5 -9t40.5 -12l-6 -65q-20 13 -45 22.5t-63 9.5q-15 0 -34.5 -5t-36.5 -17t-28.5 -31.5t-11.5 -48.5q0 -45 21 -72t56 -53l59 -44q33 -25 55 -45t35 -40t18.5 -42.5t5.5 -51.5z" />
    <glyph glyph-name="T" unicode="T" horiz-adv-x="382" 
d="M219 615v-615h-56v615h-151v52h358v-52h-151z" />
    <glyph glyph-name="U" unicode="U" horiz-adv-x="543" 
d="M465 242q0 -48 -9 -94t-31.5 -81t-59.5 -56.5t-94 -21.5q-59 0 -96.5 20.5t-59 55.5t-29.5 81t-8 96v425h56v-424q0 -37 4 -73t18.5 -64.5t41.5 -46.5t73 -18q45 0 72.5 18t42 46.5t19 64.5t4.5 73v424h56v-425z" />
    <glyph glyph-name="V" unicode="V" horiz-adv-x="466" 
d="M264 0h-60l-194 667h59l167 -603l166 603h54z" />
    <glyph glyph-name="W" unicode="W" horiz-adv-x="734" 
d="M567 0h-65l-135 606l-134 -606h-65l-154 667h59l128 -606l135 606h66l135 -606l127 606h56z" />
    <glyph glyph-name="X" unicode="X" horiz-adv-x="477" 
d="M402 0l-165 313l-163 -313h-62l195 354l-175 313h64l145 -271l147 271h59l-176 -313l194 -354h-63z" />
    <glyph glyph-name="Y" unicode="Y" horiz-adv-x="394" 
d="M225 291v-291h-56v291l-167 376h60l137 -327l137 327h56z" />
    <glyph glyph-name="Z" unicode="Z" horiz-adv-x="407" 
d="M30 0v57l283 558h-272v52h330v-54l-284 -561h290v-52h-347z" />
    <glyph glyph-name="bracketleft" unicode="[" horiz-adv-x="241" 
d="M77 -128v849h124v-49h-74v-751h74v-49h-124z" />
    <glyph glyph-name="backslash" unicode="\" horiz-adv-x="236" 
d="M174 0l-164 667h52l164 -667h-52z" />
    <glyph glyph-name="bracketright" unicode="]" horiz-adv-x="241" 
d="M40 -128v49h74v751h-74v49h124v-849h-124z" />
    <glyph glyph-name="asciicircum" unicode="^" horiz-adv-x="530" 
d="M402 252l-138 352l-135 -352h-58l168 415h53l167 -415h-57z" />
    <glyph glyph-name="underscore" unicode="_" horiz-adv-x="500" 
d="M0 -125v50h500v-50h-500z" />
    <glyph glyph-name="grave" unicode="`" horiz-adv-x="198" 
d="M92 585l-93 136h64l75 -136h-46z" />
    <glyph glyph-name="a" unicode="a" horiz-adv-x="428" 
d="M304 251h-16q-34 0 -69 -3.5t-63.5 -16.5t-46.5 -37.5t-18 -66.5q0 -40 25.5 -64.5t66.5 -24.5q30 0 52.5 12.5t38 33.5t23 47.5t7.5 53.5v66zM311 0l-4 71q-26 -39 -57 -60.5t-79 -21.5q-29 0 -53.5 11t-42.5 30t-28.5 44t-10.5 53q0 51 22 84t56 52t76 26.5t82 7.5h32
v37q0 28 -5 51t-17.5 39t-33 25t-51.5 9q-32 0 -66 -15t-57 -36l-6 57q17 10 32.5 18t30.5 13.5t32 8.5t37 3q80 0 117 -43t37 -118v-238q0 -27 2 -54l4 -54h-49z" />
    <glyph glyph-name="b" unicode="b" horiz-adv-x="451" 
d="M352 250q0 28 -3.5 64t-15 68t-34 54t-60.5 22q-37 0 -60 -20.5t-36 -51.5t-17.5 -67.5t-4.5 -68.5t4 -69.5t16 -69t35.5 -52.5t62.5 -21q37 0 59 23t34 56t16 69.5t4 63.5zM407 250q0 -39 -7.5 -84.5t-26 -85t-50.5 -65.5t-81 -26q-44 0 -72.5 22.5t-46.5 55.5l-2 -67
h-47v721h50v-292q18 31 46 54.5t72 23.5q50 0 82 -25.5t50.5 -63.5t25.5 -83t7 -85z" />
    <glyph glyph-name="c" unicode="c" horiz-adv-x="366" 
d="M334 7q-42 -18 -89 -18q-55 0 -93 23t-62 60t-35 84t-11 94q0 54 14 100.5t39.5 81.5t62.5 55t82 20q47 0 89 -18l-6 -56q-18 14 -40 19.5t-43 5.5q-41 0 -68.5 -20t-44 -50.5t-23.5 -67t-7 -70.5q0 -37 7 -74.5t24.5 -68t46.5 -50t73 -19.5q19 0 41.5 8t36.5 20z" />
    <glyph glyph-name="d" unicode="d" horiz-adv-x="451" 
d="M330 250q0 32 -4.5 68.5t-17.5 67.5t-36 51.5t-60 20.5q-38 0 -60.5 -22t-34 -54t-15 -68t-3.5 -64q0 -27 4 -63.5t16 -69.5t34 -56t59 -23q39 0 62.5 21t35.5 52.5t16 69t4 69.5zM335 0l-3 72q-17 -32 -47.5 -57.5t-75.5 -25.5q-49 0 -81 26t-50.5 65.5t-26 85
t-7.5 84.5q0 40 7 85t25.5 83t51 63.5t82.5 25.5q44 0 71.5 -23.5t45.5 -54.5v292h50v-567v-41q0 -18 0.5 -36t1.5 -36.5t2 -40.5h-46z" />
    <glyph glyph-name="e" unicode="e" horiz-adv-x="406" 
d="M309 281q0 24 -4 55t-15 58t-30.5 45.5t-49.5 18.5t-51 -17.5t-34.5 -44t-19.5 -57.5t-6 -58h210zM99 235q0 -34 5.5 -69t20.5 -63.5t41.5 -46.5t68.5 -18q27 0 57 11t51 28l6 -60q-25 -14 -58 -21t-61 -7q-56 0 -92 23t-57 59.5t-29 83.5t-8 95q0 43 8.5 89t28.5 83
t51.5 61t78.5 24q48 0 77.5 -24t46.5 -60.5t23 -79.5t6 -82v-26h-265z" />
    <glyph glyph-name="f" unicode="f" horiz-adv-x="246" 
d="M244 675q-17 7 -37 7q-34 0 -48 -21t-14 -56v-108h86v-46h-86v-451h-50v451h-75v46h75v99q0 72 26.5 103.5t89.5 31.5q10 0 19 -2.5t20 -4.5z" />
    <glyph glyph-name="g" unicode="g" horiz-adv-x="451" 
d="M330 250q0 32 -4.5 68.5t-17.5 67.5t-36 51.5t-60 20.5q-38 0 -60.5 -22t-34 -54t-15 -68t-3.5 -64q0 -29 3.5 -64t14.5 -65.5t33 -51t60 -20.5q40 0 64 20t36.5 50t16 65t3.5 66zM377 9q0 -45 -8.5 -87.5t-28.5 -75t-53.5 -52.5t-84.5 -20q-36 0 -69 8t-67 19l6 59
q29 -17 61.5 -27t67.5 -10q47 0 72.5 22t37.5 55t14 72t2 74v27q-20 -33 -49 -53t-69 -20q-49 0 -81 23t-50.5 59.5t-26 81t-7.5 86.5q0 40 7.5 85t26 83t50.5 63.5t82 25.5q45 0 73.5 -22.5t46.5 -55.5v68h47v-488z" />
    <glyph glyph-name="h" unicode="h" horiz-adv-x="450" 
d="M326 0v345q0 23 -5 43.5t-15.5 36t-28 24.5t-41.5 9q-27 0 -47.5 -13.5t-35 -34t-22 -45.5t-7.5 -48v-317h-50v721h50v-295q16 33 47.5 57t71.5 24q37 0 62 -13.5t41 -36t23 -52t7 -61.5v-344h-50z" />
    <glyph glyph-name="i" unicode="i" horiz-adv-x="198" 
d="M72 611v79h54v-79h-54zM124 0v497h-50v-497h50z" />
    <glyph glyph-name="j" unicode="j" horiz-adv-x="202" 
d="M76 611v79h54v-79h-54zM128 -103q0 -21 -3 -43t-13 -39.5t-28.5 -29t-49.5 -11.5q-15 0 -23 2t-13 4l6 49q12 -6 23 -6t20.5 2t16 8.5t10.5 19.5t4 36v608h50v-600v0z" />
    <glyph glyph-name="k" unicode="k" horiz-adv-x="390" 
d="M319 0l-195 263v-263h-50v721h50v-430l177 206h63l-194 -219l212 -278h-63z" />
    <glyph glyph-name="l" unicode="l" horiz-adv-x="198" 
d="M74 0v721h50v-721h-50z" />
    <glyph glyph-name="m" unicode="m" horiz-adv-x="658" 
d="M534 0v345q0 21 -3 41.5t-11.5 36t-24 25.5t-41.5 10q-24 0 -42.5 -13.5t-31 -34t-19.5 -45.5t-7 -47v-318h-50v345q0 21 -3 41.5t-11.5 36t-24 25.5t-41.5 10q-23 0 -41.5 -13.5t-31.5 -34t-20 -45.5t-7 -47v-318h-50v342q0 38 -1.5 77.5t-2.5 77.5h47l2 -71
q15 33 45 57t68 24q44 0 70 -20.5t42 -60.5q23 35 51.5 58t66.5 23q66 0 94 -41t28 -115v-351h-50z" />
    <glyph glyph-name="n" unicode="n" horiz-adv-x="450" 
d="M326 0v345q0 23 -5 43.5t-15.5 36t-28 24.5t-41.5 9q-28 0 -49 -13.5t-35 -34t-21 -45.5t-7 -48v-317h-50v342q0 39 -1.5 77.5t-2.5 77.5h47l2 -71q16 32 47.5 56.5t76.5 24.5q37 0 62 -13.5t41 -36t23 -52t7 -61.5v-344h-50z" />
    <glyph glyph-name="o" unicode="o" horiz-adv-x="444" 
d="M345 250q0 31 -4 67t-17 67.5t-37.5 52.5t-64.5 21q-38 0 -62 -21.5t-37.5 -53.5t-18.5 -68t-5 -65q0 -30 4.5 -67t17.5 -69t37.5 -54t63.5 -22t63.5 22t37.5 54t17.5 69t4.5 67zM400 250q0 -43 -8 -89t-28.5 -84.5t-55 -63t-86.5 -24.5q-53 0 -87 24.5t-54.5 63
t-28.5 84.5t-8 89t9 88.5t30 83t55 61.5t84 24q54 0 88.5 -24t54.5 -61t27.5 -83t7.5 -89z" />
    <glyph glyph-name="p" unicode="p" horiz-adv-x="451" 
d="M352 250q0 28 -3.5 64t-15 68t-34 54t-60.5 22q-37 0 -60 -20t-36 -50.5t-17.5 -67.5t-4.5 -70t4 -70.5t16 -69t35.5 -52t62.5 -20.5q37 0 59 23t34 56t16 69.5t4 63.5zM407 250q0 -39 -7.5 -84.5t-26 -85t-50.5 -65.5t-81 -26q-44 0 -72 21.5t-46 54.5v-281h-50v558v40
q0 19 -0.5 37.5t-1.5 37t-2 40.5h47l2 -73q17 32 47.5 57.5t75.5 25.5q50 0 82 -25.5t50.5 -63.5t25.5 -83t7 -85z" />
    <glyph glyph-name="q" unicode="q" horiz-adv-x="451" 
d="M330 250q0 32 -4.5 68.5t-17.5 67.5t-36 51.5t-60 20.5q-38 0 -60.5 -22t-34 -54t-15 -68t-3.5 -64q0 -27 4 -63.5t16 -69.5t34 -56t59 -23q39 0 62.5 21t35.5 52.5t16 69t4 69.5zM327 -216v281q-18 -33 -46 -54.5t-72 -21.5q-49 0 -81 26t-50.5 65.5t-26 85t-7.5 84.5
q0 40 7 85t25.5 83t51 63.5t82.5 25.5q45 0 73.5 -22.5t46.5 -55.5v68h47v-713h-50z" />
    <glyph glyph-name="r" unicode="r" horiz-adv-x="268" 
d="M246 451q-4 0 -7.5 0.5t-7.5 0.5q-26 0 -46 -13t-33.5 -33.5t-20.5 -45.5t-7 -49v-311h-50v342q0 39 -1.5 77.5t-2.5 77.5h47l2 -74q15 34 45 59t68 25q5 0 10 -1.5t10 -2.5z" />
    <glyph glyph-name="s" unicode="s" horiz-adv-x="333" 
d="M299 129q0 -63 -39.5 -101.5t-102.5 -38.5q-33 0 -61.5 5.5t-59.5 16.5l6 60q26 -14 53 -23.5t57 -9.5q17 0 33.5 6t29.5 17.5t21 27t8 33.5q0 30 -15 50t-37.5 35.5t-49 29t-49 31.5t-37.5 43t-15 63q0 32 12 56.5t31.5 41.5t45.5 26t53 9q22 0 45 -4.5t45 -11.5l-6 -54
q-20 8 -40.5 14.5t-42.5 6.5q-17 0 -32.5 -5.5t-28 -16t-20 -25t-7.5 -32.5q0 -31 15 -51t37.5 -35t49 -28t49 -30.5t37.5 -42.5t15 -63z" />
    <glyph glyph-name="t" unicode="t" horiz-adv-x="259" 
d="M239 0q-33 -11 -64 -11q-24 0 -41 8t-27 22t-14.5 33t-4.5 40v359h-72v46h72v115l50 18v-133h99v-46h-99v-339q0 -14 1 -27.5t6 -24t15.5 -16.5t28.5 -6q12 0 22.5 5t21.5 11z" />
    <glyph glyph-name="u" unicode="u" horiz-adv-x="446" 
d="M329 0l-2 70q-16 -32 -47 -56.5t-76 -24.5q-37 0 -62 13.5t-40.5 36t-22.5 52.5t-7 62v344h50v-345q0 -23 5 -43.5t15.5 -36.5t27.5 -25t41 -9q28 0 49 13.5t34.5 34.5t20.5 46t7 48v317h50v-342q0 -39 1.5 -77.5t2.5 -77.5h-47z" />
    <glyph glyph-name="v" unicode="v" horiz-adv-x="364" 
d="M215 0h-62l-141 497h56l117 -441l115 441h52z" />
    <glyph glyph-name="w" unicode="w" horiz-adv-x="608" 
d="M468 0h-63l-100 429l-101 -429h-63l-127 497h57l102 -443l103 443h62l101 -443l104 443h51z" />
    <glyph glyph-name="x" unicode="x" horiz-adv-x="371" 
d="M296 0l-112 222l-112 -222h-58l140 262l-128 235h60l101 -197l99 197h58l-129 -237l142 -260h-61z" />
    <glyph glyph-name="y" unicode="y" horiz-adv-x="352" 
d="M182 -102q-6 -24 -13.5 -46.5t-19.5 -40t-30.5 -27.5t-47.5 -10q-11 0 -19 1.5t-17 4.5l6 54q8 -5 18.5 -8t19.5 -3q17 0 30 17.5t19 39.5l29 109l-141 508h55l112 -419l106 419h51z" />
    <glyph glyph-name="z" unicode="z" horiz-adv-x="340" 
d="M28 0v50l228 401h-221v46h274v-50l-226 -401h229v-46h-284z" />
    <glyph glyph-name="braceleft" unicode="{" horiz-adv-x="242" 
d="M184 -128q-50 0 -72.5 24.5t-22.5 84.5v174q0 38 -3 61.5t-10 37t-17.5 18t-26.5 4.5v42q16 0 26.5 5t17.5 19t10 38.5t3 62.5v169q0 60 22.5 84.5t72.5 24.5h41v-43h-27q-30 0 -45.5 -13.5t-15.5 -52.5v-201q0 -57 -17 -81.5t-43 -32.5q26 -8 43 -32.5t17 -80.5v-202
q0 -39 15.5 -53t45.5 -14h27v-43h-41z" />
    <glyph glyph-name="bar" unicode="|" horiz-adv-x="206" 
d="M76 -216v991h54v-991h-54z" />
    <glyph glyph-name="braceright" unicode="}" horiz-adv-x="243" 
d="M211 276q-16 0 -27 -4.5t-18 -18t-10 -37t-3 -61.5v-174q0 -60 -22.5 -84.5t-72.5 -24.5h-41v43h27q30 0 46 14t16 53v202q0 56 17.5 80.5t43.5 32.5q-26 8 -43.5 32.5t-17.5 81.5v201q0 39 -16 52.5t-46 13.5h-27v43h41q50 0 72.5 -24.5t22.5 -84.5v-169q0 -38 3 -62.5
t10 -38.5t18 -19t27 -5v-42z" />
    <glyph glyph-name="asciitilde" unicode="~" horiz-adv-x="530" 
d="M526 310q-2 -25 -10 -48.5t-22.5 -41.5t-36 -28.5t-49.5 -10.5q-35 0 -72.5 11.5t-74 25.5t-71.5 25.5t-65 11.5q-35 0 -56 -25.5t-26 -57.5h-39q4 26 12 49.5t22.5 41.5t35.5 29t51 11q34 0 71.5 -11.5t74.5 -26t72 -26t64 -11.5q36 0 56 25t27 57h36z" />
    <glyph glyph-name="nonbreakingspace" unicode="&#xa0;" horiz-adv-x="230" 
 />
    <glyph glyph-name="exclamdown" unicode="&#xa1;" horiz-adv-x="257" 
d="M163 497v-80h-69v80h69zM105 341h47l8 -511h-63z" />
    <glyph glyph-name="cent" unicode="&#xa2;" 
d="M360 109q-39 -17 -77 -18v-91h-39v93q-44 7 -74.5 30.5t-49 57.5t-27 74t-8.5 81q0 46 11 87t31.5 72.5t50 52.5t66.5 27v92h39v-90q37 -1 74 -17l-6 -57q-18 14 -38.5 19t-40.5 5q-38 0 -63.5 -18t-40.5 -46t-21.5 -62t-6.5 -65q0 -34 6.5 -69t22.5 -63t42.5 -46
t67.5 -18q17 0 38.5 7.5t36.5 19.5z" />
    <glyph glyph-name="sterling" unicode="&#xa3;" 
d="M406 593q-20 15 -45.5 22.5t-49.5 7.5q-26 0 -48.5 -10t-39.5 -29.5t-27 -48t-10 -64.5v-79h154v-52h-154v-288h220v-52h-350v52h74v288h-70v52h70v85q0 40 12 76t35 63.5t56 44t75 16.5q26 0 53.5 -5.5t50.5 -19.5z" />
    <glyph glyph-name="currency" unicode="&#xa4;" 
d="M367 332q0 33 -10.5 61.5t-29.5 50t-44 34t-53 12.5q-29 0 -53.5 -12.5t-43.5 -33.5t-29.5 -50t-10.5 -62t11 -61.5t29.5 -50t43.5 -34t53 -12.5t53 12.5t43.5 34t29.5 50t11 61.5zM405 104l-58 65q-24 -23 -54.5 -35t-62.5 -12t-62 12.5t-55 33.5l-57 -63l-30 34l56 63
q-20 30 -30.5 61.5t-10.5 69.5q0 72 41 130l-57 64l30 34l57 -64q51 45 118 45q35 0 62.5 -11t55.5 -33l57 62l30 -34l-57 -63q20 -30 30.5 -61.5t10.5 -69.5q0 -71 -41 -129l57 -65z" />
    <glyph glyph-name="yen" unicode="&#xa5;" 
d="M271 321h107v-46h-120v-71h120v-46h-120v-158h-56v158h-121v46h121v71h-121v46h108l-153 346h59l135 -325l135 325h59z" />
    <glyph glyph-name="section" unicode="&#xa7;" 
d="M321 265q0 23 -16.5 46.5t-41.5 42.5l-63 48q-11 -7 -22 -18.5t-19.5 -25t-14 -28t-5.5 -28.5q0 -23 11.5 -45t31.5 -35l88 -58q20 23 35.5 45t15.5 56zM376 264q0 -42 -20 -72t-51 -57q28 -25 43 -50.5t15 -64.5q0 -34 -14 -61t-37.5 -45.5t-53 -28t-60.5 -9.5
q-32 0 -56.5 11t-53.5 24l6 55q9 -7 22.5 -14.5t28 -13.5t28.5 -9.5t26 -3.5q21 0 41 6.5t35 18.5t24 30t9 41q0 59 -53 92l-98 61q-30 19 -51 47.5t-21 70.5q0 43 23 76t59 57q-35 20 -49 50t-14 71q0 31 13 55.5t34 41.5t48 25.5t55 8.5q25 0 54.5 -7t52.5 -19l-6 -49
q-24 8 -48 17t-50 9q-18 0 -35.5 -5.5t-31.5 -16t-22.5 -26t-8.5 -35.5q0 -31 20.5 -55.5t49.5 -46.5l78 -57q28 -20 48.5 -50.5t20.5 -71.5z" />
    <glyph glyph-name="dieresis" unicode="&#xa8;" horiz-adv-x="198" 
d="M4 611v79h52v-79h-52zM142 611v79h52v-79h-52z" />
    <glyph glyph-name="copyright" unicode="&#xa9;" horiz-adv-x="792" 
d="M527 148q-22 -10 -47.5 -15t-49.5 -5q-51 0 -92.5 14.5t-70.5 41.5t-44.5 65t-15.5 85q0 46 16.5 84t45.5 65t70 42t91 15q23 0 49 -5t48 -13l-4 -51q-20 9 -44 14.5t-47 5.5q-81 0 -125.5 -44t-44.5 -113q0 -70 43.5 -113.5t126.5 -43.5q25 0 46.5 6t44.5 16zM684 334
q0 60 -22.5 113.5t-61.5 93t-91.5 63t-112.5 23.5t-112.5 -23.5t-91.5 -63t-61.5 -93t-22.5 -113.5t22.5 -113.5t61.5 -94t91.5 -64t112.5 -23.5q61 0 113.5 23.5t91.5 64t61 94t22 113.5zM740 334q0 -71 -27 -134t-73.5 -110t-109.5 -74t-134 -27t-134 27t-109.5 74
t-73.5 110t-27 134t27 133.5t73.5 109t109.5 73.5t134 27t134 -27t109.5 -73.5t73.5 -109t27 -133.5z" />
    <glyph glyph-name="ordfeminine" unicode="&#xaa;" horiz-adv-x="300" 
d="M201 515h-11q-23 0 -44 -3t-37 -10.5t-25.5 -19t-9.5 -29.5q0 -14 6 -22.5t14.5 -13t17.5 -5.5t15 -1q36 0 55 24t19 56v24zM205 372l-2 42q-17 -24 -37.5 -36.5t-51.5 -12.5q-24 0 -41.5 8t-29 20.5t-16.5 27.5t-5 30q0 32 15 53t38 33t50.5 16.5t53.5 4.5h22v14
q0 27 -14.5 43t-52.5 16q-20 0 -42.5 -8t-39.5 -21l-4 51q23 11 43 17.5t48 6.5q57 0 84 -27t27 -73v-140q0 -17 1 -33t3 -32h-49z" />
    <glyph glyph-name="guillemotleft" unicode="&#xab;" horiz-adv-x="360" 
d="M141 55l-109 198l109 199h49l-102 -199l102 -198h-49zM269 55l-109 198l109 199h49l-102 -199l102 -198h-49z" />
    <glyph glyph-name="logicalnot" unicode="&#xac;" horiz-adv-x="530" 
d="M462 125v183h-447v48h497v-231h-50z" />
    <glyph glyph-name="registered" unicode="&#xae;" horiz-adv-x="792" 
d="M469 435q0 19 -9 31t-24 18.5t-34 8.5t-39 2h-44v-128h46q19 0 37.5 3t33.5 10.5t24 21t9 33.5zM497 140l-58 128q-7 15 -13.5 25t-16 16.5t-22.5 9t-32 2.5h-36v-181h-52v401h122q27 0 51.5 -6t43 -18.5t29.5 -32.5t11 -48q0 -19 -8.5 -35.5t-22 -29.5t-32 -21
t-37.5 -11q24 -5 38 -18t23 -33l68 -148h-56zM684 334q0 60 -22.5 113t-61.5 93t-91.5 63.5t-112.5 23.5t-112.5 -23.5t-91.5 -63t-61.5 -93t-22.5 -113.5t22.5 -113.5t61.5 -94t91.5 -64t112.5 -23.5t112.5 23.5t91.5 64t61.5 94t22.5 113.5zM740 334q0 -71 -27 -134
t-73.5 -110t-109.5 -74t-134 -27t-134 27t-109.5 74t-73.5 110t-27 134t27 133.5t73.5 109t109.5 73.5t134 27t134 -27t109.5 -73.5t73.5 -109t27 -133.5z" />
    <glyph glyph-name="macron" unicode="&#xaf;" horiz-adv-x="198" 
d="M-14 632v43h226v-43h-226z" />
    <glyph glyph-name="degree" unicode="&#xb0;" horiz-adv-x="400" 
d="M296 539q0 19 -7.5 36.5t-20.5 30.5t-30.5 20.5t-37.5 7.5t-37 -7.5t-30.5 -20.5t-21 -30.5t-7.5 -36.5q0 -40 28 -67.5t68 -27.5t68 27.5t28 67.5zM337 539q0 -28 -10.5 -53t-29.5 -44t-44 -30t-53 -11q-29 0 -53.5 11t-43.5 30t-29.5 44t-10.5 53t10.5 53t29.5 44
t43.5 30t53.5 11q28 0 53 -11t44 -30t29.5 -44t10.5 -53z" />
    <glyph glyph-name="plusminus" unicode="&#xb1;" horiz-adv-x="530" 
d="M17 -8v48h497v-48h-497zM292 264v-178h-53v178h-222v48h222v177h53v-177h222v-48h-222z" />
    <glyph glyph-name="acute" unicode="&#xb4;" horiz-adv-x="198" 
d="M106 585h-46l75 136h64z" />
    <glyph glyph-name="mu" unicode="&#xb5;" 
d="M335 0l-2 70q-16 -32 -47 -56.5t-76 -24.5q-22 0 -43.5 6.5t-38.5 22.5v-234h-50v713h50v-345q0 -23 5 -43.5t15.5 -36.5t27.5 -25t41 -9q28 0 49 13.5t34.5 34.5t20.5 46t7 48v317h50v-342q0 -39 1.5 -77.5t2.5 -77.5h-47z" />
    <glyph glyph-name="paragraph" unicode="&#xb6;" horiz-adv-x="530" 
d="M384 -108v732h-92v-732h-45v430q-38 1 -72.5 13t-61 34.5t-42 54t-15.5 71.5q0 47 15 79.5t42 53t64 29.5t81 9h171v-774h-45z" />
    <glyph glyph-name="periodcentered" unicode="&#xb7;" horiz-adv-x="230" 
d="M80 270v80h70v-80h-70z" />
    <glyph glyph-name="cedilla" unicode="&#xb8;" horiz-adv-x="198" 
d="M188 -107q0 -31 -25 -50t-70 -19q-20 0 -42.5 3t-40.5 13l10 27q17 -6 33 -10t33 -4q22 0 36.5 10t14.5 27t-10.5 25.5t-24.5 8.5t-22.5 -2t-17.5 -6l-9 18l49 66h34l-41 -54q6 2 13 3.5t21 1.5q23 0 41 -16.5t18 -41.5z" />
    <glyph glyph-name="ordmasculine" unicode="&#xba;" horiz-adv-x="300" 
d="M221 522q0 16 -2 35t-9.5 35.5t-21.5 27.5t-38 11q-22 0 -36 -11.5t-21.5 -28t-10.5 -35.5t-3 -34t2.5 -34.5t10 -36.5t21.5 -28.5t37 -11.5t37 11.5t21.5 28.5t10 36.5t2.5 34.5zM273 522q0 -27 -6 -55t-20.5 -50.5t-38 -37t-58.5 -14.5t-58.5 14.5t-38 37t-20.5 50.5
t-6 55t6.5 54.5t20.5 50t37.5 36.5t58.5 14t58.5 -14t38 -36t20.5 -50t6 -55z" />
    <glyph glyph-name="guillemotright" unicode="&#xbb;" horiz-adv-x="360" 
d="M91 55h-49l102 199l-102 198h49l109 -198zM219 55h-49l102 199l-102 198h49l109 -198z" />
    <glyph glyph-name="questiondown" unicode="&#xbf;" horiz-adv-x="342" 
d="M307 -158q-24 -10 -48 -16t-49 -6q-77 0 -123 41.5t-46 120.5q0 35 10 62t25 50.5t32.5 46t32.5 48.5t25 58.5t10 76.5v17h54v-14q0 -47 -9.5 -81.5t-24 -62.5t-31.5 -51t-31.5 -45.5t-24 -47t-9.5 -54.5q0 -49 28 -80t79 -31q50 0 94 30zM168 417v80h70v-80h-70z" />
    <glyph glyph-name="Agrave" unicode="&#xc0;" horiz-adv-x="521" 
d="M260 611l-119 -375h236zM450 0l-57 186h-267l-58 -186h-56l220 667h58l219 -667h-59zM249 724l-93 136h65l74 -136h-46z" />
    <glyph glyph-name="Aacute" unicode="&#xc1;" horiz-adv-x="521" 
d="M260 611l-119 -375h236zM450 0l-57 186h-267l-58 -186h-56l220 667h58l219 -667h-59zM273 724h-46l73 136h65z" />
    <glyph glyph-name="Acircumflex" unicode="&#xc2;" horiz-adv-x="521" 
d="M260 611l-119 -375h236zM450 0l-57 186h-267l-58 -186h-56l220 667h58l219 -667h-59zM327 724l-66 99l-65 -99h-54l92 136h53l92 -136h-52z" />
    <glyph glyph-name="Atilde" unicode="&#xc3;" horiz-adv-x="521" 
d="M260 611l-119 -375h236zM450 0l-57 186h-267l-58 -186h-56l220 667h58l219 -667h-59zM387 841q0 -15 -5 -31.5t-14.5 -30t-23 -22.5t-30.5 -9t-30.5 6.5t-24.5 14t-22 14t-24 6.5q-17 0 -28.5 -15.5t-11.5 -31.5h-38q0 17 5 34t15 30.5t24.5 21.5t33.5 8q15 0 29 -6.5
t26.5 -14.5t24 -14.5t21.5 -6.5q17 0 26.5 16.5t9.5 30.5h37z" />
    <glyph glyph-name="Adieresis" unicode="&#xc4;" horiz-adv-x="521" 
d="M260 611l-119 -375h236zM450 0l-57 186h-267l-58 -186h-56l220 667h58l219 -667h-59zM165 753v79h52v-79h-52zM303 753v79h52v-79h-52z" />
    <glyph glyph-name="Aring" unicode="&#xc5;" horiz-adv-x="521" 
d="M260 611l-119 -375h236zM317 791q0 24 -16 40.5t-40 16.5q-23 0 -40.5 -17t-17.5 -40q0 -24 17 -40.5t41 -16.5t40 16.5t16 40.5zM450 0l-57 186h-267l-58 -186h-56l220 667h58l219 -667h-59zM351 791q0 -38 -26 -64t-64 -26t-65 26t-27 64q0 19 7.5 35.5t20 28.5t29 19
t35.5 7t35.5 -7t28.5 -19t19 -28.5t7 -35.5z" />
    <glyph glyph-name="AE" unicode="&#xc6;" horiz-adv-x="696" 
d="M361 623l-191 -387h191v387zM361 0v186h-216l-91 -186h-62l336 667h311v-52h-222v-243h211v-50h-211v-270h233v-52h-289z" />
    <glyph glyph-name="Ccedilla" unicode="&#xc7;" horiz-adv-x="474" 
d="M442 9q-57 -20 -111 -20l-33 -43q6 2 13 3.5t21 1.5q23 0 41 -16.5t18 -41.5q0 -31 -25 -50t-70 -19q-20 0 -42.5 3t-40.5 13l10 27q17 -6 33 -10t33 -4q22 0 36.5 10t14.5 27t-10.5 25.5t-24.5 8.5t-22.5 -2t-17.5 -6l-9 18l42 56q-65 6 -111.5 37.5t-76.5 79t-44 106
t-14 120.5q0 65 16 127t50.5 110t87.5 77.5t128 29.5q26 0 53.5 -5.5t53.5 -17.5l-6 -62q-23 17 -52.5 24t-55.5 7q-60 0 -101.5 -26.5t-67 -68.5t-36.5 -94t-11 -102t11.5 -101t37 -93t66.5 -68.5t100 -26.5q31 0 56 6.5t54 21.5z" />
    <glyph glyph-name="Egrave" unicode="&#xc8;" horiz-adv-x="421" 
d="M86 0v667h278v-52h-222v-243h211v-50h-211v-270h233v-52h-289zM213 724l-92 136h64l73 -136h-45z" />
    <glyph glyph-name="Eacute" unicode="&#xc9;" horiz-adv-x="421" 
d="M86 0v667h278v-52h-222v-243h211v-50h-211v-270h233v-52h-289zM239 724h-47l73 136h65z" />
    <glyph glyph-name="Ecircumflex" unicode="&#xca;" horiz-adv-x="421" 
d="M86 0v667h278v-52h-222v-243h211v-50h-211v-270h233v-52h-289zM291 724l-66 99l-65 -99h-54l93 136h52l92 -136h-52z" />
    <glyph glyph-name="Edieresis" unicode="&#xcb;" horiz-adv-x="421" 
d="M86 0v667h278v-52h-222v-243h211v-50h-211v-270h233v-52h-289zM130 753v79h52v-79h-52zM268 753v79h52v-79h-52z" />
    <glyph glyph-name="Igrave" unicode="&#xcc;" horiz-adv-x="228" 
d="M86 0v667h56v-667h-56zM104 724l-92 136h64l74 -136h-46z" />
    <glyph glyph-name="Iacute" unicode="&#xcd;" horiz-adv-x="228" 
d="M86 0v667h56v-667h-56zM123 724h-45l74 136h64z" />
    <glyph glyph-name="Icircumflex" unicode="&#xce;" horiz-adv-x="228" 
d="M86 0v667h56v-667h-56zM180 724l-66 99l-66 -99h-54l93 136h55l92 -136h-54z" />
    <glyph glyph-name="Idieresis" unicode="&#xcf;" horiz-adv-x="228" 
d="M86 0v667h56v-667h-56zM19 753v79h52v-79h-52zM157 753v79h52v-79h-52z" />
    <glyph glyph-name="Ntilde" unicode="&#xd1;" horiz-adv-x="579" 
d="M413 0l-273 597v-597h-54v667h80l273 -599v599h54v-667h-80zM420 840q0 -15 -5 -31.5t-15 -30t-23.5 -22.5t-30.5 -9t-30.5 6.5t-24.5 14t-22 14t-24 6.5q-17 0 -28.5 -15.5t-11.5 -31.5h-38q0 17 5 33.5t15 30t24.5 21.5t33.5 8q15 0 29 -6.5t27 -14t24.5 -14t21.5 -6.5
q17 0 26 16t9 31h38z" />
    <glyph glyph-name="Ograve" unicode="&#xd2;" horiz-adv-x="563" 
d="M452 333q0 43 -5 94t-23 95t-52 73t-91 29q-56 0 -89.5 -29.5t-51.5 -74t-23.5 -95t-5.5 -92.5q0 -29 2 -61.5t8.5 -65t18 -62t30.5 -52.5t46 -36.5t65 -13.5q56 0 90 29.5t52 73.5t23.5 95t5.5 93zM511 333q0 -56 -10 -116.5t-36 -111t-70.5 -83.5t-113.5 -33
q-72 0 -116.5 32.5t-69.5 83t-34 111t-9 117.5q0 56 10.5 116.5t36.5 111t70 83.5t112 33q72 0 117 -32.5t70 -82.5t34 -111t9 -118zM263 724l-92 136h65l73 -136h-46z" />
    <glyph glyph-name="Oacute" unicode="&#xd3;" horiz-adv-x="563" 
d="M452 333q0 43 -5 94t-23 95t-52 73t-91 29q-56 0 -89.5 -29.5t-51.5 -74t-23.5 -95t-5.5 -92.5q0 -29 2 -61.5t8.5 -65t18 -62t30.5 -52.5t46 -36.5t65 -13.5q56 0 90 29.5t52 73.5t23.5 95t5.5 93zM511 333q0 -56 -10 -116.5t-36 -111t-70.5 -83.5t-113.5 -33
q-72 0 -116.5 32.5t-69.5 83t-34 111t-9 117.5q0 56 10.5 116.5t36.5 111t70 83.5t112 33q72 0 117 -32.5t70 -82.5t34 -111t9 -118zM299 724h-46l74 136h64z" />
    <glyph glyph-name="Ocircumflex" unicode="&#xd4;" horiz-adv-x="563" 
d="M452 333q0 43 -5 94t-23 95t-52 73t-91 29q-56 0 -89.5 -29.5t-51.5 -74t-23.5 -95t-5.5 -92.5q0 -29 2 -61.5t8.5 -65t18 -62t30.5 -52.5t46 -36.5t65 -13.5q56 0 90 29.5t52 73.5t23.5 95t5.5 93zM511 333q0 -56 -10 -116.5t-36 -111t-70.5 -83.5t-113.5 -33
q-72 0 -116.5 32.5t-69.5 83t-34 111t-9 117.5q0 56 10.5 116.5t36.5 111t70 83.5t112 33q72 0 117 -32.5t70 -82.5t34 -111t9 -118zM347 724l-66 99l-65 -99h-53l92 136h53l92 -136h-53z" />
    <glyph glyph-name="Otilde" unicode="&#xd5;" horiz-adv-x="563" 
d="M452 333q0 43 -5 94t-23 95t-52 73t-91 29q-56 0 -89.5 -29.5t-51.5 -74t-23.5 -95t-5.5 -92.5q0 -29 2 -61.5t8.5 -65t18 -62t30.5 -52.5t46 -36.5t65 -13.5q56 0 90 29.5t52 73.5t23.5 95t5.5 93zM511 333q0 -56 -10 -116.5t-36 -111t-70.5 -83.5t-113.5 -33
q-72 0 -116.5 32.5t-69.5 83t-34 111t-9 117.5q0 56 10.5 116.5t36.5 111t70 83.5t112 33q72 0 117 -32.5t70 -82.5t34 -111t9 -118zM408 841q0 -15 -5 -31.5t-15 -30t-23.5 -22.5t-30.5 -9t-30.5 6.5t-24.5 14t-22 14t-24 6.5q-17 0 -28.5 -15.5t-11.5 -31.5h-39
q0 17 5.5 34t15.5 30.5t24.5 21.5t33.5 8q15 0 29 -6.5t27 -14.5t24.5 -14.5t21.5 -6.5q17 0 25.5 16.5t8.5 30.5h39z" />
    <glyph glyph-name="Odieresis" unicode="&#xd6;" horiz-adv-x="563" 
d="M452 333q0 43 -5 94t-23 95t-52 73t-91 29q-56 0 -89.5 -29.5t-51.5 -74t-23.5 -95t-5.5 -92.5q0 -29 2 -61.5t8.5 -65t18 -62t30.5 -52.5t46 -36.5t65 -13.5q56 0 90 29.5t52 73.5t23.5 95t5.5 93zM511 333q0 -56 -10 -116.5t-36 -111t-70.5 -83.5t-113.5 -33
q-72 0 -116.5 32.5t-69.5 83t-34 111t-9 117.5q0 56 10.5 116.5t36.5 111t70 83.5t112 33q72 0 117 -32.5t70 -82.5t34 -111t9 -118zM186 753v79h52v-79h-52zM324 753v79h52v-79h-52z" />
    <glyph glyph-name="Oslash" unicode="&#xd8;" horiz-adv-x="563" 
d="M452 333q0 41 -4.5 87t-18.5 88l-281 -382q19 -37 50.5 -60.5t82.5 -23.5q56 0 90 29.5t52 73.5t23.5 95t5.5 93zM413 545q-19 35 -50.5 57t-81.5 22q-56 0 -89.5 -29.5t-51.5 -74t-23.5 -95t-5.5 -92.5q0 -39 4 -83.5t18 -86.5zM468 562q25 -51 34 -111.5t9 -117.5
q0 -56 -10 -116.5t-36 -111t-70.5 -83.5t-113.5 -33q-61 0 -102.5 24t-67.5 63l-71 -97l-26 22l79 107q-24 51 -32.5 110t-8.5 115t10.5 116.5t36.5 111t70 83.5t112 33q60 0 101.5 -22.5t67.5 -60.5l76 104l26 -22z" />
    <glyph glyph-name="Ugrave" unicode="&#xd9;" horiz-adv-x="543" 
d="M465 242q0 -48 -9 -94t-31.5 -81t-59.5 -56.5t-94 -21.5q-59 0 -96.5 20.5t-59 55.5t-29.5 81t-8 96v425h56v-424q0 -37 4 -73t18.5 -64.5t41.5 -46.5t73 -18q45 0 72.5 18t42 46.5t19 64.5t4.5 73v424h56v-425zM269 724l-92 136h65l73 -136h-46z" />
    <glyph glyph-name="Uacute" unicode="&#xda;" horiz-adv-x="543" 
d="M465 242q0 -48 -9 -94t-31.5 -81t-59.5 -56.5t-94 -21.5q-59 0 -96.5 20.5t-59 55.5t-29.5 81t-8 96v425h56v-424q0 -37 4 -73t18.5 -64.5t41.5 -46.5t73 -18q45 0 72.5 18t42 46.5t19 64.5t4.5 73v424h56v-425zM275 724h-47l73 136h66z" />
    <glyph glyph-name="Ucircumflex" unicode="&#xdb;" horiz-adv-x="543" 
d="M465 242q0 -48 -9 -94t-31.5 -81t-59.5 -56.5t-94 -21.5q-59 0 -96.5 20.5t-59 55.5t-29.5 81t-8 96v425h56v-424q0 -37 4 -73t18.5 -64.5t41.5 -46.5t73 -18q45 0 72.5 18t42 46.5t19 64.5t4.5 73v424h56v-425zM338 724l-67 99l-65 -99h-54l92 136h53l93 -136h-52z" />
    <glyph glyph-name="Udieresis" unicode="&#xdc;" horiz-adv-x="543" 
d="M465 242q0 -48 -9 -94t-31.5 -81t-59.5 -56.5t-94 -21.5q-59 0 -96.5 20.5t-59 55.5t-29.5 81t-8 96v425h56v-424q0 -37 4 -73t18.5 -64.5t41.5 -46.5t73 -18q45 0 72.5 18t42 46.5t19 64.5t4.5 73v424h56v-425zM176 753v79h52v-79h-52zM314 753v79h52v-79h-52z" />
    <glyph glyph-name="germandbls" unicode="&#xdf;" horiz-adv-x="452" 
d="M422 124q0 -27 -8.5 -51.5t-24.5 -43t-38.5 -29.5t-50.5 -11q-30 0 -47.5 5.5t-44.5 16.5l6 52q22 -12 39.5 -19t44.5 -7q35 0 52.5 27t17.5 61q0 25 -12 44t-30 36.5t-39 34.5t-39 36.5t-30 44t-12 56.5q0 27 11 49.5t29 39.5t41.5 26.5t48.5 9.5q0 28 -4 60t-16 58.5
t-33 44t-55 17.5q-30 0 -50 -17.5t-32 -43.5t-17 -55.5t-5 -53.5v-512h-50v512q0 39 9 78t27.5 70.5t47.5 51t68 19.5q47 0 78 -22.5t49 -57t25 -76.5t7 -81v-28q-19 0 -41 -4.5t-40.5 -14.5t-31 -27.5t-12.5 -42.5q0 -26 12 -45.5t30 -37t39 -34t39 -36t30 -44t12 -56.5z
" />
    <glyph glyph-name="agrave" unicode="&#xe0;" horiz-adv-x="428" 
d="M304 251h-16q-34 0 -69 -3.5t-63.5 -16.5t-46.5 -37.5t-18 -66.5q0 -40 25.5 -64.5t66.5 -24.5q30 0 52.5 12.5t38 33.5t23 47.5t7.5 53.5v66zM311 0l-4 71q-26 -39 -57 -60.5t-79 -21.5q-29 0 -53.5 11t-42.5 30t-28.5 44t-10.5 53q0 51 22 84t56 52t76 26.5t82 7.5h32
v37q0 28 -5 51t-17.5 39t-33 25t-51.5 9q-32 0 -66 -15t-57 -36l-6 57q17 10 32.5 18t30.5 13.5t32 8.5t37 3q80 0 117 -43t37 -118v-238q0 -27 2 -54l4 -54h-49zM194 585l-93 136h64l75 -136h-46z" />
    <glyph glyph-name="aacute" unicode="&#xe1;" horiz-adv-x="428" 
d="M304 251h-16q-34 0 -69 -3.5t-63.5 -16.5t-46.5 -37.5t-18 -66.5q0 -40 25.5 -64.5t66.5 -24.5q30 0 52.5 12.5t38 33.5t23 47.5t7.5 53.5v66zM311 0l-4 71q-26 -39 -57 -60.5t-79 -21.5q-29 0 -53.5 11t-42.5 30t-28.5 44t-10.5 53q0 51 22 84t56 52t76 26.5t82 7.5h32
v37q0 28 -5 51t-17.5 39t-33 25t-51.5 9q-32 0 -66 -15t-57 -36l-6 57q17 10 32.5 18t30.5 13.5t32 8.5t37 3q80 0 117 -43t37 -118v-238q0 -27 2 -54l4 -54h-49zM212 585h-46l75 136h64z" />
    <glyph glyph-name="acircumflex" unicode="&#xe2;" horiz-adv-x="428" 
d="M304 251h-16q-34 0 -69 -3.5t-63.5 -16.5t-46.5 -37.5t-18 -66.5q0 -40 25.5 -64.5t66.5 -24.5q30 0 52.5 12.5t38 33.5t23 47.5t7.5 53.5v66zM311 0l-4 71q-26 -39 -57 -60.5t-79 -21.5q-29 0 -53.5 11t-42.5 30t-28.5 44t-10.5 53q0 51 22 84t56 52t76 26.5t82 7.5h32
v37q0 28 -5 51t-17.5 39t-33 25t-51.5 9q-32 0 -66 -15t-57 -36l-6 57q17 10 32.5 18t30.5 13.5t32 8.5t37 3q80 0 117 -43t37 -118v-238q0 -27 2 -54l4 -54h-49zM266 585l-65 99l-63 -99h-54l91 136h53l92 -136h-54z" />
    <glyph glyph-name="atilde" unicode="&#xe3;" horiz-adv-x="428" 
d="M304 251h-16q-34 0 -69 -3.5t-63.5 -16.5t-46.5 -37.5t-18 -66.5q0 -40 25.5 -64.5t66.5 -24.5q30 0 52.5 12.5t38 33.5t23 47.5t7.5 53.5v66zM311 0l-4 71q-26 -39 -57 -60.5t-79 -21.5q-29 0 -53.5 11t-42.5 30t-28.5 44t-10.5 53q0 51 22 84t56 52t76 26.5t82 7.5h32
v37q0 28 -5 51t-17.5 39t-33 25t-51.5 9q-32 0 -66 -15t-57 -36l-6 57q17 10 32.5 18t30.5 13.5t32 8.5t37 3q80 0 117 -43t37 -118v-238q0 -27 2 -54l4 -54h-49zM331 702q0 -15 -5 -31.5t-15 -30t-23.5 -22.5t-30.5 -9t-30.5 6.5t-24.5 14t-22 14t-24 6.5
q-17 0 -28.5 -15.5t-11.5 -31.5h-37q0 17 5 34t14.5 30t24 21t33.5 8q15 0 29 -6.5t27 -14t24.5 -14t21.5 -6.5q17 0 26 16.5t9 30.5h38z" />
    <glyph glyph-name="adieresis" unicode="&#xe4;" horiz-adv-x="428" 
d="M304 251h-16q-34 0 -69 -3.5t-63.5 -16.5t-46.5 -37.5t-18 -66.5q0 -40 25.5 -64.5t66.5 -24.5q30 0 52.5 12.5t38 33.5t23 47.5t7.5 53.5v66zM311 0l-4 71q-26 -39 -57 -60.5t-79 -21.5q-29 0 -53.5 11t-42.5 30t-28.5 44t-10.5 53q0 51 22 84t56 52t76 26.5t82 7.5h32
v37q0 28 -5 51t-17.5 39t-33 25t-51.5 9q-32 0 -66 -15t-57 -36l-6 57q17 10 32.5 18t30.5 13.5t32 8.5t37 3q80 0 117 -43t37 -118v-238q0 -27 2 -54l4 -54h-49zM108 611v79h52v-79h-52zM246 611v79h52v-79h-52z" />
    <glyph glyph-name="aring" unicode="&#xe5;" horiz-adv-x="428" 
d="M304 251h-16q-34 0 -69 -3.5t-63.5 -16.5t-46.5 -37.5t-18 -66.5q0 -40 25.5 -64.5t66.5 -24.5q30 0 52.5 12.5t38 33.5t23 47.5t7.5 53.5v66zM260 653q0 24 -16 40.5t-40 16.5q-23 0 -40.5 -17t-17.5 -40q0 -24 17 -40.5t41 -16.5t40 16.5t16 40.5zM311 0l-4 71
q-26 -39 -57 -60.5t-79 -21.5q-29 0 -53.5 11t-42.5 30t-28.5 44t-10.5 53q0 51 22 84t56 52t76 26.5t82 7.5h32v37q0 28 -5 51t-17.5 39t-33 25t-51.5 9q-32 0 -66 -15t-57 -36l-6 57q17 10 32.5 18t30.5 13.5t32 8.5t37 3q80 0 117 -43t37 -118v-238q0 -27 2 -54l4 -54
h-49zM294 653q0 -38 -26 -64t-64 -26t-65 26t-27 64q0 19 7.5 35.5t20 28.5t29 19t35.5 7t35.5 -7t28.5 -19t19 -28.5t7 -35.5z" />
    <glyph glyph-name="ae" unicode="&#xe6;" horiz-adv-x="647" 
d="M290 241h-20q-27 0 -58.5 -4t-58 -16.5t-44.5 -35.5t-18 -60q0 -38 23 -62.5t61 -24.5q30 0 52 14.5t36 37t20.5 50t6.5 53.5v48zM550 290q0 25 -3 54t-13.5 54.5t-30.5 42.5t-54 17q-31 0 -51.5 -17.5t-33 -43t-17.5 -54.5t-5 -53h208zM342 241q0 -32 4.5 -67.5
t18.5 -65.5t38.5 -50t65.5 -20q26 0 56.5 11t50.5 28l6 -60q-28 -13 -56 -20.5t-60 -7.5q-62 0 -95 29t-55 86q-17 -53 -56.5 -84t-95.5 -31q-62 0 -95 38.5t-33 98.5q0 44 18 75t47 51t66 29t76 9h47v23q0 24 -3.5 49.5t-14 46.5t-28.5 35t-48 14q-38 0 -65.5 -15.5
t-56.5 -35.5l-6 57q18 11 33 19t30 13.5t31.5 8t37.5 2.5t41.5 -6t37.5 -17.5t29 -28.5t17 -38q20 42 48.5 66t75.5 24q51 0 82 -23.5t47.5 -59t21.5 -77.5t5 -79v-27h-263z" />
    <glyph glyph-name="ccedilla" unicode="&#xe7;" horiz-adv-x="366" 
d="M334 7q-42 -18 -88 -18l-33 -43q6 2 13 3.5t21 1.5q23 0 41 -16.5t18 -41.5q0 -31 -25 -50t-70 -19q-20 0 -42.5 3t-40.5 13l10 27q17 -6 33 -10t33 -4q22 0 36.5 10t14.5 27t-10.5 25.5t-24.5 8.5t-22.5 -2t-17.5 -6l-9 18l42 57q-46 7 -78 32t-52.5 61t-29.5 79t-9 87
q0 54 14 100.5t39.5 81.5t62.5 55t82 20q47 0 89 -18l-6 -56q-18 14 -40 19.5t-43 5.5q-41 0 -68.5 -20t-44 -50.5t-23.5 -67t-7 -70.5q0 -37 7 -74.5t24.5 -68t46.5 -50t73 -19.5q19 0 41.5 8t36.5 20z" />
    <glyph glyph-name="egrave" unicode="&#xe8;" horiz-adv-x="406" 
d="M309 281q0 24 -4 55t-15 58t-30.5 45.5t-49.5 18.5t-51 -17.5t-34.5 -44t-19.5 -57.5t-6 -58h210zM99 235q0 -34 5.5 -69t20.5 -63.5t41.5 -46.5t68.5 -18q27 0 57 11t51 28l6 -60q-25 -14 -58 -21t-61 -7q-56 0 -92 23t-57 59.5t-29 83.5t-8 95q0 43 8.5 89t28.5 83
t51.5 61t78.5 24q48 0 77.5 -24t46.5 -60.5t23 -79.5t6 -82v-26h-265zM199 585l-93 136h64l75 -136h-46z" />
    <glyph glyph-name="eacute" unicode="&#xe9;" horiz-adv-x="406" 
d="M309 281q0 24 -4 55t-15 58t-30.5 45.5t-49.5 18.5t-51 -17.5t-34.5 -44t-19.5 -57.5t-6 -58h210zM99 235q0 -34 5.5 -69t20.5 -63.5t41.5 -46.5t68.5 -18q27 0 57 11t51 28l6 -60q-25 -14 -58 -21t-61 -7q-56 0 -92 23t-57 59.5t-29 83.5t-8 95q0 43 8.5 89t28.5 83
t51.5 61t78.5 24q48 0 77.5 -24t46.5 -60.5t23 -79.5t6 -82v-26h-265zM225 585h-46l75 136h64z" />
    <glyph glyph-name="ecircumflex" unicode="&#xea;" horiz-adv-x="406" 
d="M309 281q0 24 -4 55t-15 58t-30.5 45.5t-49.5 18.5t-51 -17.5t-34.5 -44t-19.5 -57.5t-6 -58h210zM99 235q0 -34 5.5 -69t20.5 -63.5t41.5 -46.5t68.5 -18q27 0 57 11t51 28l6 -60q-25 -14 -58 -21t-61 -7q-56 0 -92 23t-57 59.5t-29 83.5t-8 95q0 43 8.5 89t28.5 83
t51.5 61t78.5 24q48 0 77.5 -24t46.5 -60.5t23 -79.5t6 -82v-26h-265zM270 585l-65 99l-63 -99h-54l91 136h53l92 -136h-54z" />
    <glyph glyph-name="edieresis" unicode="&#xeb;" horiz-adv-x="406" 
d="M309 281q0 24 -4 55t-15 58t-30.5 45.5t-49.5 18.5t-51 -17.5t-34.5 -44t-19.5 -57.5t-6 -58h210zM99 235q0 -34 5.5 -69t20.5 -63.5t41.5 -46.5t68.5 -18q27 0 57 11t51 28l6 -60q-25 -14 -58 -21t-61 -7q-56 0 -92 23t-57 59.5t-29 83.5t-8 95q0 43 8.5 89t28.5 83
t51.5 61t78.5 24q48 0 77.5 -24t46.5 -60.5t23 -79.5t6 -82v-26h-265zM113 611v79h52v-79h-52zM251 611v79h52v-79h-52z" />
    <glyph glyph-name="igrave" unicode="&#xec;" horiz-adv-x="198" 
d="M74 0v497h50v-497h-50zM92 585l-93 136h64l75 -136h-46z" />
    <glyph glyph-name="iacute" unicode="&#xed;" horiz-adv-x="198" 
d="M74 0v497h50v-497h-50zM106 585h-46l75 136h64z" />
    <glyph glyph-name="icircumflex" unicode="&#xee;" horiz-adv-x="198" 
d="M73 0v497h50v-497h-50zM163 585l-65 99l-63 -99h-54l91 136h53l92 -136h-54z" />
    <glyph glyph-name="idieresis" unicode="&#xef;" horiz-adv-x="198" 
d="M74 0v497h50v-497h-50zM4 611v79h52v-79h-52zM142 611v79h52v-79h-52z" />
    <glyph glyph-name="ntilde" unicode="&#xf1;" horiz-adv-x="450" 
d="M326 0v344q0 21 -4 41.5t-14.5 36.5t-28 26t-43.5 10q-29 0 -50 -13t-35 -34t-20.5 -46.5t-6.5 -49.5v-315h-50v342q0 39 -1.5 77.5t-2.5 77.5h47l1 -70q20 34 52 57t73 23q37 0 62 -13t41 -35.5t23 -52t7 -62.5v-344h-50zM352 702q0 -15 -5 -31.5t-15 -30t-23.5 -22.5
t-30.5 -9t-30.5 6.5t-24.5 14t-22 14t-24 6.5q-17 0 -28.5 -15.5t-11.5 -31.5h-37q0 17 5 34t14.5 30t24 21t33.5 8q15 0 29 -6.5t27 -14t24.5 -14t21.5 -6.5q17 0 26 16.5t9 30.5h38z" />
    <glyph glyph-name="ograve" unicode="&#xf2;" horiz-adv-x="444" 
d="M345 250q0 31 -4 67t-17 67.5t-37.5 52.5t-64.5 21q-38 0 -62 -21.5t-37.5 -53.5t-18.5 -68t-5 -65q0 -30 4.5 -67t17.5 -69t37.5 -54t63.5 -22t63.5 22t37.5 54t17.5 69t4.5 67zM400 250q0 -43 -8 -89t-28.5 -84.5t-55 -63t-86.5 -24.5q-53 0 -87 24.5t-54.5 63
t-28.5 84.5t-8 89t9 88.5t30 83t55 61.5t84 24q54 0 88.5 -24t54.5 -61t27.5 -83t7.5 -89zM212 585l-93 136h64l75 -136h-46z" />
    <glyph glyph-name="oacute" unicode="&#xf3;" horiz-adv-x="444" 
d="M345 250q0 31 -4 67t-17 67.5t-37.5 52.5t-64.5 21q-38 0 -62 -21.5t-37.5 -53.5t-18.5 -68t-5 -65q0 -30 4.5 -67t17.5 -69t37.5 -54t63.5 -22t63.5 22t37.5 54t17.5 69t4.5 67zM400 250q0 -43 -8 -89t-28.5 -84.5t-55 -63t-86.5 -24.5q-53 0 -87 24.5t-54.5 63
t-28.5 84.5t-8 89t9 88.5t30 83t55 61.5t84 24q54 0 88.5 -24t54.5 -61t27.5 -83t7.5 -89zM232 585h-46l75 136h64z" />
    <glyph glyph-name="ocircumflex" unicode="&#xf4;" horiz-adv-x="444" 
d="M345 250q0 31 -4 67t-17 67.5t-37.5 52.5t-64.5 21q-38 0 -62 -21.5t-37.5 -53.5t-18.5 -68t-5 -65q0 -30 4.5 -67t17.5 -69t37.5 -54t63.5 -22t63.5 22t37.5 54t17.5 69t4.5 67zM400 250q0 -43 -8 -89t-28.5 -84.5t-55 -63t-86.5 -24.5q-53 0 -87 24.5t-54.5 63
t-28.5 84.5t-8 89t9 88.5t30 83t55 61.5t84 24q54 0 88.5 -24t54.5 -61t27.5 -83t7.5 -89zM287 585l-65 99l-63 -99h-54l91 136h53l92 -136h-54z" />
    <glyph glyph-name="otilde" unicode="&#xf5;" horiz-adv-x="444" 
d="M345 250q0 31 -4 67t-17 67.5t-37.5 52.5t-64.5 21q-38 0 -62 -21.5t-37.5 -53.5t-18.5 -68t-5 -65q0 -30 4.5 -67t17.5 -69t37.5 -54t63.5 -22t63.5 22t37.5 54t17.5 69t4.5 67zM400 250q0 -43 -8 -89t-28.5 -84.5t-55 -63t-86.5 -24.5q-53 0 -87 24.5t-54.5 63
t-28.5 84.5t-8 89t9 88.5t30 83t55 61.5t84 24q54 0 88.5 -24t54.5 -61t27.5 -83t7.5 -89zM350 702q0 -15 -5 -31.5t-15 -30t-23.5 -22.5t-30.5 -9t-30.5 6.5t-24.5 14t-22 14t-24 6.5q-17 0 -28.5 -15.5t-11.5 -31.5h-37q0 17 5 34t14.5 30t24 21t33.5 8q15 0 29 -6.5
t27 -14t24.5 -14t21.5 -6.5q17 0 26 16.5t9 30.5h38z" />
    <glyph glyph-name="odieresis" unicode="&#xf6;" horiz-adv-x="444" 
d="M345 250q0 31 -4 67t-17 67.5t-37.5 52.5t-64.5 21q-38 0 -62 -21.5t-37.5 -53.5t-18.5 -68t-5 -65q0 -30 4.5 -67t17.5 -69t37.5 -54t63.5 -22t63.5 22t37.5 54t17.5 69t4.5 67zM400 250q0 -43 -8 -89t-28.5 -84.5t-55 -63t-86.5 -24.5q-53 0 -87 24.5t-54.5 63
t-28.5 84.5t-8 89t9 88.5t30 83t55 61.5t84 24q54 0 88.5 -24t54.5 -61t27.5 -83t7.5 -89zM127 611v79h52v-79h-52zM265 611v79h52v-79h-52z" />
    <glyph glyph-name="divide" unicode="&#xf7;" horiz-adv-x="530" 
d="M312 63q0 -20 -13.5 -33.5t-33.5 -13.5t-33 13.5t-13 33.5t13.5 33.5t32.5 13.5q20 0 33.5 -13.5t13.5 -33.5zM17 216v49h497v-49h-497zM312 418q0 -20 -13.5 -33.5t-33.5 -13.5q-19 0 -32.5 13.5t-13.5 33.5t13 33.5t33 13.5t33.5 -13.5t13.5 -33.5z" />
    <glyph glyph-name="oslash" unicode="&#xf8;" horiz-adv-x="444" 
d="M345 250q0 26 -3 56t-11 58l-204 -262q14 -28 37 -46t58 -18q39 0 63.5 22t37.5 54t17.5 69t4.5 67zM319 398q-14 26 -37.5 43t-59.5 17q-38 0 -62 -21.5t-37.5 -53.5t-18.5 -68t-5 -65q0 -26 3.5 -56t11.5 -59zM369 413q17 -36 24 -78.5t7 -84.5q0 -43 -8 -89
t-28.5 -84.5t-55 -63t-86.5 -24.5q-46 0 -77.5 18.5t-52.5 49.5l-63 -81l-24 20l71 91q-17 37 -24.5 80t-7.5 83q0 43 9 88.5t30 83t55 61.5t84 24q47 0 79 -18t52 -47l60 78l24 -20z" />
    <glyph glyph-name="ugrave" unicode="&#xf9;" horiz-adv-x="446" 
d="M329 0l-2 69q-20 -34 -49 -57t-73 -23q-36 0 -61 12.5t-41 34.5t-23.5 52t-7.5 65v344h50v-344q0 -23 4 -44t14.5 -36.5t27.5 -25t44 -9.5t47.5 11.5t34.5 31t21 44.5t7 53v319h50v-342q0 -39 1.5 -77.5t2.5 -77.5h-47zM214 585l-93 136h64l75 -136h-46z" />
    <glyph glyph-name="uacute" unicode="&#xfa;" horiz-adv-x="446" 
d="M329 0l-2 69q-20 -34 -49 -57t-73 -23q-36 0 -61 12.5t-41 34.5t-23.5 52t-7.5 65v344h50v-344q0 -23 4 -44t14.5 -36.5t27.5 -25t44 -9.5t47.5 11.5t34.5 31t21 44.5t7 53v319h50v-342q0 -39 1.5 -77.5t2.5 -77.5h-47zM230 585h-46l75 136h64z" />
    <glyph glyph-name="ucircumflex" unicode="&#xfb;" horiz-adv-x="446" 
d="M329 0l-2 69q-20 -34 -49 -57t-73 -23q-36 0 -61 12.5t-41 34.5t-23.5 52t-7.5 65v344h50v-344q0 -23 4 -44t14.5 -36.5t27.5 -25t44 -9.5t47.5 11.5t34.5 31t21 44.5t7 53v319h50v-342q0 -39 1.5 -77.5t2.5 -77.5h-47zM286 585l-65 99l-63 -99h-54l91 136h53l92 -136
h-54z" />
    <glyph glyph-name="udieresis" unicode="&#xfc;" horiz-adv-x="446" 
d="M329 0l-2 69q-20 -34 -49 -57t-73 -23q-36 0 -61 12.5t-41 34.5t-23.5 52t-7.5 65v344h50v-344q0 -23 4 -44t14.5 -36.5t27.5 -25t44 -9.5t47.5 11.5t34.5 31t21 44.5t7 53v319h50v-342q0 -39 1.5 -77.5t2.5 -77.5h-47zM127 611v79h52v-79h-52zM265 611v79h52v-79h-52z
" />
    <glyph glyph-name="ydieresis" unicode="&#xff;" horiz-adv-x="352" 
d="M182 -102q-6 -24 -13.5 -46.5t-19.5 -40t-30.5 -27.5t-47.5 -10q-11 0 -19 1.5t-17 4.5l6 54q8 -5 18.5 -8t19.5 -3q17 0 30 17.5t19 39.5l29 109l-141 508h55l112 -419l106 419h51zM83 611v79h52v-79h-52zM221 611v79h52v-79h-52z" />
    <glyph glyph-name="dotlessi" unicode="&#x131;" horiz-adv-x="198" 
d="M74 0v497h50v-497h-50z" />
    <glyph glyph-name="OE" unicode="&#x152;" horiz-adv-x="705" 
d="M370 611q-14 5 -35.5 9t-52.5 4q-56 0 -89.5 -29.5t-51.5 -74t-23.5 -95t-5.5 -92.5q0 -29 2 -61.5t8.5 -65t18 -62t30.5 -52.5t46 -36.5t65 -13.5q29 0 52 3.5t36 9.5v556zM367 0q-12 -5 -35.5 -8t-49.5 -3q-72 0 -116.5 32.5t-69.5 83t-34 111t-9 117.5
q0 56 10.5 116.5t36.5 111t70 83.5t112 33q23 0 48 -3t37 -7h281v-52h-222v-243h211v-50h-211v-270h233v-52h-292z" />
    <glyph glyph-name="oe" unicode="&#x153;" horiz-adv-x="706" 
d="M345 250q0 31 -4 67t-17 67.5t-37.5 52.5t-64.5 21q-38 0 -62 -21.5t-37.5 -53.5t-18.5 -68t-5 -65q0 -30 4.5 -67t17.5 -69t37.5 -54t63.5 -22t63.5 22t37.5 54t17.5 69t4.5 67zM609 281q0 24 -4 55t-15 58t-30.5 45.5t-49.5 18.5t-51 -17.5t-34.5 -44t-19.5 -57.5
t-6 -58h210zM399 235q0 -34 5.5 -69t20.5 -63.5t41.5 -46.5t68.5 -18q27 0 57 11t51 28l6 -60q-25 -14 -58 -21t-61 -7q-56 0 -96.5 25.5t-63.5 78.5q-22 -48 -59 -76t-89 -28q-53 0 -87 24.5t-54.5 63t-28.5 84.5t-8 89t9 88.5t30 83t55 61.5t84 24q53 0 89 -26.5t59 -75.5
q20 45 56 73.5t85 28.5q48 0 77.5 -24t46.5 -60.5t23 -79.5t6 -82v-26h-265z" />
    <glyph glyph-name="Ydieresis" unicode="&#x178;" horiz-adv-x="394" 
d="M225 291v-291h-56v291l-167 376h60l137 -327l137 327h56zM102 753v79h52v-79h-52zM240 753v79h52v-79h-52z" />
    <glyph glyph-name="florin" unicode="&#x192;" 
d="M398 613q-20 15 -42 15q-23 0 -37 -19t-23 -46.5t-15 -58t-11 -52.5l-12 -52h84v-46h-93l-74 -354q-6 -30 -15 -69t-25 -74t-41.5 -59.5t-64.5 -24.5q-11 0 -21.5 1t-21.5 6l10 50q8 -3 15.5 -5.5t15.5 -2.5q24 0 40 22.5t27 53t17.5 62t10.5 48.5l73 346h-84v46h93
l13 60q7 31 14.5 69t21.5 71t38 55t63 22q26 0 54 -13z" />
    <glyph glyph-name="circumflex" unicode="&#x2c6;" horiz-adv-x="198" 
d="M163 585l-65 99l-63 -99h-54l91 136h53l92 -136h-54z" />
    <glyph glyph-name="caron" unicode="&#x2c7;" horiz-adv-x="198" 
d="M126 585h-53l-92 136h54l65 -99l63 99h54z" />
    <glyph glyph-name="breve" unicode="&#x2d8;" horiz-adv-x="198" 
d="M208 708q0 -8 -4 -26.5t-16 -38t-33.5 -34t-55.5 -14.5q-35 0 -56 14.5t-33 34t-16 38t-4 26.5h37q4 -32 22.5 -52t49.5 -20t49.5 20t22.5 52h37z" />
    <glyph glyph-name="dotaccent" unicode="&#x2d9;" horiz-adv-x="198" 
d="M72 611v79h54v-79h-54z" />
    <glyph glyph-name="ring" unicode="&#x2da;" horiz-adv-x="198" 
d="M156 653q0 24 -16 40.5t-40 16.5q-23 0 -40.5 -17t-17.5 -40q0 -24 17 -40.5t41 -16.5t40 16.5t16 40.5zM190 653q0 -38 -26 -64t-64 -26t-65 26t-27 64q0 19 7.5 35.5t20 28.5t29 19t35.5 7t35.5 -7t28.5 -19t19 -28.5t7 -35.5z" />
    <glyph glyph-name="ogonek" unicode="&#x2db;" horiz-adv-x="198" 
d="M174 -159q-18 -8 -33.5 -12.5t-29.5 -4.5q-37 0 -62.5 19.5t-25.5 57.5q0 28 22 53.5t69 45.5h36q-35 -21 -55.5 -43.5t-20.5 -53.5q0 -26 15.5 -38t29.5 -12q11 0 24 4.5t21 9.5z" />
    <glyph glyph-name="tilde" unicode="&#x2dc;" horiz-adv-x="198" 
d="M226 702q0 -15 -5 -31.5t-15 -30t-23.5 -22.5t-30.5 -9t-30.5 6.5t-24.5 14t-22 14t-24 6.5q-17 0 -28.5 -15.5t-11.5 -31.5h-37q0 17 5 34t14.5 30t24 21t33.5 8q15 0 29 -6.5t27 -14t24.5 -14t21.5 -6.5q17 0 26 16.5t9 30.5h38z" />
    <glyph glyph-name="hungarumlaut" unicode="&#x2dd;" horiz-adv-x="198" 
d="M12 585h-47l73 136h66zM141 585h-47l74 136h65z" />
    <glyph glyph-name="pi" unicode="&#x3c0;" horiz-adv-x="650" 
d="M517 7q-15 -8 -30.5 -13t-32.5 -5q-43 0 -57.5 24.5t-14.5 62.5v348h-153v-424h-54v424h-70v52h412v-52h-81v-341q0 -17 4.5 -30.5t24.5 -13.5q13 0 27 6.5t25 11.5v-50z" />
    <glyph glyph-name="endash" unicode="&#x2013;" horiz-adv-x="500" 
d="M0 287v46h500v-46h-500z" />
    <glyph glyph-name="emdash" unicode="&#x2014;" horiz-adv-x="1000" 
d="M0 287v46h1000v-46h-1000z" />
    <glyph glyph-name="quoteleft" unicode="&#x2018;" horiz-adv-x="230" 
d="M114 513h-64l68 208h45z" />
    <glyph glyph-name="quoteright" unicode="&#x2019;" horiz-adv-x="230" 
d="M112 513h-45l49 208h64z" />
    <glyph glyph-name="quotesinglbase" unicode="&#x201a;" horiz-adv-x="230" 
d="M83 -128h-46l49 208h64z" />
    <glyph glyph-name="quotedblleft" unicode="&#x201c;" horiz-adv-x="362" 
d="M114 513h-64l68 208h45zM247 513h-65l68 208h45z" />
    <glyph glyph-name="quotedblright" unicode="&#x201d;" horiz-adv-x="362" 
d="M112 513h-45l49 208h64zM244 513h-45l49 208h64z" />
    <glyph glyph-name="quotedblbase" unicode="&#x201e;" horiz-adv-x="362" 
d="M83 -128h-46l49 208h64zM215 -128h-46l49 208h64z" />
    <glyph glyph-name="dagger" unicode="&#x2020;" 
d="M258 435v-563h-56v563h-131v52h131v234h56v-234h131v-52h-131z" />
    <glyph glyph-name="daggerdbl" unicode="&#x2021;" 
d="M258 106v-234h-56v234h-131v52h131v277h-131v52h131v234h56v-234h131v-52h-131v-277h131v-52h-131z" />
    <glyph glyph-name="bullet" unicode="&#x2022;" 
d="M337 310q0 -22 -8.5 -41.5t-23 -34t-34 -23t-41.5 -8.5t-41.5 8.5t-34 23t-23 34t-8.5 41.5t8.5 41.5t23 34t34 23t41.5 8.5t41.5 -8.5t34 -23t23 -34t8.5 -41.5z" />
    <glyph glyph-name="ellipsis" unicode="&#x2026;" horiz-adv-x="1000" 
d="M132 0v80h70v-80h-70zM465 0v80h70v-80h-70zM798 0v80h70v-80h-70z" />
    <glyph glyph-name="perthousand" unicode="&#x2030;" horiz-adv-x="1025" 
d="M243 471q0 20 -1.5 47.5t-8 52.5t-20.5 42.5t-39 17.5t-39.5 -17.5t-21.5 -42.5t-8.5 -52.5t-1.5 -47.5q0 -21 1.5 -48.5t8.5 -52t21.5 -42t39.5 -17.5t39 17.5t20.5 42.5t8 52.5t1.5 47.5zM627 195q0 20 -1.5 47.5t-8 52.5t-20.5 42.5t-39 17.5t-39.5 -17.5t-21.5 -42.5
t-8.5 -52.5t-1.5 -47.5q0 -21 1.5 -48.5t8.5 -52t21.5 -42t39.5 -17.5t39 17.5t20.5 42.5t8 52.5t1.5 47.5zM922 195q0 20 -1.5 47.5t-8 52.5t-20.5 42.5t-39 17.5t-39.5 -17.5t-21.5 -42.5t-8.5 -52.5t-1.5 -47.5q0 -21 1.5 -48.5t8.5 -52t21.5 -42t39.5 -17.5t39 17.5
t20.5 42.5t8 52.5t1.5 47.5zM295 471q0 -28 -4 -63.5t-16.5 -67t-36.5 -53.5t-64 -22t-64.5 22t-37.5 53.5t-17 67t-4 63.5q0 27 4.5 63t17.5 67.5t37 53.5t64 22t64 -22t36.5 -53.5t16.5 -67t4 -63.5zM252 -24h-48l276 715h48zM679 195q0 -28 -4 -63.5t-16.5 -67
t-36.5 -53.5t-64 -22t-64.5 22t-37.5 53.5t-17 67t-4 63.5q0 27 4.5 63t17.5 67.5t37 53.5t64 22t64 -22t36.5 -53.5t16.5 -67t4 -63.5zM974 195q0 -28 -4 -63.5t-16.5 -67t-36.5 -53.5t-64 -22t-64.5 22t-37.5 53.5t-17 67t-4 63.5q0 27 4.5 63t17.5 67.5t37 53.5t64 22
t64 -22t36.5 -53.5t16.5 -67t4 -63.5z" />
    <glyph glyph-name="guilsinglleft" unicode="&#x2039;" horiz-adv-x="232" 
d="M141 55l-109 198l109 199h49l-102 -199l102 -198h-49z" />
    <glyph glyph-name="guilsinglright" unicode="&#x203a;" horiz-adv-x="232" 
d="M91 55h-49l102 199l-102 198h49l109 -198z" />
    <glyph glyph-name="fraction" unicode="&#x2044;" horiz-adv-x="28" 
d="M-100 -24h-48l276 715h48z" />
    <glyph glyph-name="trademark" unicode="&#x2122;" horiz-adv-x="741" 
d="M155 627v-361h-50v361h-97v40h244v-40h-97zM637 266v359l-117 -359h-41l-117 359v-359h-46v401h76l109 -339l109 339h75v-401h-48z" />
    <glyph glyph-name="Omega" unicode="&#x2126;" horiz-adv-x="750" 
d="M412 0v172q46 0 83 18.5t63 49.5t40.5 71.5t14.5 83.5q0 48 -19.5 90t-52.5 73.5t-76 50t-90 18.5t-90 -18.5t-76 -50t-52.5 -73.5t-19.5 -90q0 -43 14 -83.5t40.5 -71.5t63.5 -49.5t83 -18.5v-172h-259v52h205v80q-47 9 -84.5 34.5t-64.5 62t-41.5 80.5t-14.5 89
q0 60 24.5 111t65.5 88.5t94.5 58.5t111.5 21t111.5 -21t94.5 -58.5t65.5 -88.5t24.5 -111q0 -45 -14.5 -89t-41.5 -80.5t-65 -62t-84 -34.5v-80h205v-52h-259z" />
    <glyph glyph-name="partialdiff" unicode="&#x2202;" horiz-adv-x="530" 
d="M410 303q-32 33 -69 56.5t-85 23.5q-38 0 -66.5 -15t-47 -40t-27.5 -57.5t-9 -66.5q0 -32 9 -64t27 -58t45 -42t63 -16q47 0 76.5 30.5t47 74t25 91.5t11.5 83zM468 364q0 -35 -4 -76.5t-13.5 -83t-26 -81t-41 -69.5t-58 -48.5t-78.5 -18.5q-46 0 -82 19.5t-60.5 52
t-37.5 73t-13 82.5q0 43 13 80.5t37 65.5t59.5 44t80.5 16q51 0 92 -21.5t76 -56.5q1 6 0.5 14.5t-0.5 15.5q0 42 -6 95.5t-24.5 101t-52 80t-89.5 32.5q-34 0 -65 -13t-54 -39l-30 38q32 26 65 39.5t74 13.5q70 0 116 -34.5t73 -87t38 -115.5t11 -119z" />
    <glyph glyph-name="Delta" unicode="&#x2206;" horiz-adv-x="750" 
d="M375 613l-240 -565h480zM59 0l283 667h66l283 -667h-632z" />
    <glyph glyph-name="product" unicode="&#x220f;" horiz-adv-x="750" 
d="M583 -200v948h-415v-948h-54v1000h523v-1000h-54z" />
    <glyph glyph-name="summation" unicode="&#x2211;" horiz-adv-x="750" 
d="M83 -200v51l273 457l-253 445v47h563v-46h-501l256 -446l-276 -456h539v-52h-601z" />
    <glyph glyph-name="radical" unicode="&#x221a;" horiz-adv-x="530" 
d="M310 -200h-48l-160 352l-45 -21l-19 36l91 41l154 -343l161 935h42z" />
    <glyph glyph-name="infinity" unicode="&#x221e;" horiz-adv-x="750" 
d="M346 250q-12 16 -26.5 34.5t-31.5 33.5t-36.5 25t-42.5 10q-22 0 -41 -8.5t-33.5 -23t-22.5 -34t-8 -41.5q0 -21 8 -40.5t22 -34t32.5 -23t40.5 -8.5q24 0 43.5 11.5t36 28t31 36t28.5 34.5zM646 243q0 21 -8 40t-21.5 33.5t-32 23t-39.5 8.5q-20 0 -40 -12t-38 -29
t-34 -36t-28 -33q13 -17 27 -35.5t30.5 -33.5t36 -24.5t43.5 -9.5q22 0 41 9t33 24t22 34.5t8 40.5zM690 244q0 -32 -11.5 -59.5t-31.5 -48t-47 -32.5t-59 -12q-31 0 -54.5 9t-42 24t-34.5 35.5t-32 43.5q-16 -22 -33 -41.5t-37 -34.5t-43.5 -23.5t-52.5 -8.5
q-31 0 -58.5 11.5t-48 31t-32.5 46.5t-12 59t11 59.5t31 48t47.5 32.5t59.5 12q28 0 51.5 -9.5t43.5 -25.5t36.5 -36.5t31.5 -41.5q17 21 33.5 40.5t35.5 35t41.5 24.5t52.5 9q32 0 60 -11t49 -30.5t33 -46.5t12 -60z" />
    <glyph glyph-name="integral" unicode="&#x222b;" 
d="M379 721q-21 10 -47 10q-29 0 -44 -14t-21.5 -33t-7 -38t-0.5 -28v-678q0 -24 -3 -53t-15.5 -54.5t-38 -42.5t-70.5 -17q-12 0 -28 2t-27 8l6 54q21 -10 47 -10q29 0 44 14t21.5 33t7 38t0.5 28v678q0 24 3 53t15.5 54.5t38 42.5t70.5 17q12 0 28 -2t27 -8z" />
    <glyph glyph-name="approxequal" unicode="&#x2248;" horiz-adv-x="530" 
d="M526 229q-2 -25 -10 -48.5t-22.5 -41.5t-36 -28.5t-49.5 -10.5q-35 0 -72.5 11.5t-74 25.5t-71.5 25.5t-65 11.5q-35 0 -56 -25.5t-26 -57.5h-39q4 25 12 49t22 42t35 29t52 11q35 0 71.5 -11.5t73 -25.5t71 -25.5t66.5 -11.5q37 0 56 24.5t27 56.5h36zM526 390
q-2 -25 -10 -48.5t-22.5 -41.5t-36 -28.5t-49.5 -10.5q-35 0 -72.5 11.5t-74 25.5t-71.5 25.5t-65 11.5q-35 0 -56 -25.5t-26 -57.5h-39q4 25 12 49t22 42t35 29t52 11q35 0 71.5 -11.5t73 -25.5t71 -25.5t66.5 -11.5q37 0 56 24.5t27 56.5h36z" />
    <glyph glyph-name="notequal" unicode="&#x2260;" horiz-adv-x="530" 
d="M226 125l-75 -141l-42 23l64 118h-156v48h182l71 135h-253v48h280l77 145l42 -22l-66 -123h164v-48h-190l-72 -135h262v-48h-288z" />
    <glyph glyph-name="lessequal" unicode="&#x2264;" horiz-adv-x="530" 
d="M15 -25v48h497v-48h-497zM15 260v54l497 193v-54l-431 -166l431 -166v-53z" />
    <glyph glyph-name="greaterequal" unicode="&#x2265;" horiz-adv-x="530" 
d="M18 -25v48h497v-48h-497zM18 68v53l430 166l-430 166v54l497 -193v-54z" />
    <glyph glyph-name="lozenge" unicode="&#x25ca;" horiz-adv-x="530" 
d="M265 744l-141 -344l141 -344l141 344zM291 0h-53l-167 400l167 400h53l169 -400z" />
    <glyph glyph-name="fi" unicode="&#xfb01;" horiz-adv-x="428" 
d="M244 675q-17 7 -37 7q-34 0 -48 -21t-14 -56v-108h86v-46h-86v-451h-50v451h-75v46h75v99q0 72 26.5 103.5t89.5 31.5q10 0 19 -2.5t20 -4.5zM304 0v497h50v-497h-50zM356 611v79h-54v-79h54z" />
    <glyph glyph-name="fl" unicode="&#xfb02;" horiz-adv-x="428" 
d="M244 675q-17 7 -37 7q-34 0 -48 -21t-14 -56v-108h86v-46h-86v-451h-50v451h-75v46h75v99q0 72 26.5 103.5t89.5 31.5q10 0 19 -2.5t20 -4.5zM304 0v721h50v-721h-50z" />
    <glyph glyph-name="brokenbar" unicode="&#xa6;" horiz-adv-x="206" 
d="M76 -216v397h54v-397h-54zM76 379v396h54v-396h-54z" />
    <glyph glyph-name="uni00AD" unicode="&#xad;" horiz-adv-x="278" 
d="M44 283v54h190v-54h-190z" />
    <glyph glyph-name="twosuperior" unicode="&#xb2;" horiz-adv-x="350" 
d="M68 270v42l31 34q19 21 42.5 48.5t43 57t33 59.5t13.5 58q0 62 -65 62q-23 0 -42 -6t-38 -17l-4 45q15 8 37 16t57 8q29 0 49.5 -9t33 -24t18.5 -34t6 -38q0 -29 -12.5 -59t-29.5 -57t-35.5 -49.5t-31.5 -36.5l-51 -57h165v-43h-220z" />
    <glyph glyph-name="threesuperior" unicode="&#xb3;" horiz-adv-x="350" 
d="M289 385q0 -57 -39.5 -88.5t-105.5 -31.5q-18 0 -41 3.5t-39 12.5l4 48q18 -8 38.5 -13t40.5 -5q42 0 66 21t24 58q0 36 -29.5 52.5t-68.5 16.5h-26v43h25q42 0 69.5 16t27.5 54q0 30 -25 44.5t-57 14.5q-20 0 -38 -5.5t-34 -13.5l-4 46q17 8 41.5 13.5t44.5 5.5
q25 0 47.5 -7t39.5 -20t27 -32t10 -43q0 -37 -22.5 -60.5t-59.5 -33.5q38 -5 61 -31.5t23 -64.5z" />
    <glyph glyph-name="onesuperior" unicode="&#xb9;" horiz-adv-x="350" 
d="M158 266v349l-56 -57l-25 33l84 76h46v-401h-49z" />
    <glyph glyph-name="onequarter" unicode="&#xbc;" horiz-adv-x="730" 
d="M530 353l-128 -219h128v219zM165 266v349l-56 -57l-25 33l84 76h46v-401h-49zM228 -24h-48l276 715h48zM578 91v-91h-49v91h-166v49l153 261h62v-267h44v-43h-44z" />
    <glyph glyph-name="onehalf" unicode="&#xbd;" horiz-adv-x="730" 
d="M149 266v349l-56 -57l-25 33l84 76h46v-401h-49zM212 -24h-48l276 715h48zM409 0v42l31 34q19 21 42.5 48.5t43 57t33 59.5t13.5 58q0 62 -65 62q-23 0 -42 -6t-38 -17l-4 45q15 8 37 16t57 8q29 0 49.5 -9t33 -24t18.5 -34t6 -38q0 -29 -12.5 -59t-29.5 -57t-35.5 -49.5
t-31.5 -36.5l-51 -57h165v-43h-220z" />
    <glyph glyph-name="threequarters" unicode="&#xbe;" horiz-adv-x="730" 
d="M573 353l-128 -219h128v219zM303 385q0 -57 -39.5 -88.5t-105.5 -31.5q-18 0 -41 3.5t-39 12.5l4 48q18 -8 38.5 -13t40.5 -5q42 0 66 21t24 58q0 36 -29.5 52.5t-68.5 16.5h-26v43h25q42 0 69.5 16t27.5 54q0 30 -25 44.5t-57 14.5q-20 0 -38 -5.5t-34 -13.5l-4 46
q17 8 41.5 13.5t44.5 5.5q25 0 47.5 -7t39.5 -20t27 -32t10 -43q0 -37 -22.5 -60.5t-59.5 -33.5q38 -5 61 -31.5t23 -64.5zM271 -24h-48l276 715h48zM621 91v-91h-49v91h-166v49l153 261h62v-267h44v-43h-44z" />
    <glyph glyph-name="Eth" unicode="&#xd0;" horiz-adv-x="542" 
d="M431 333q0 60 -12.5 112t-41 89.5t-74.5 59t-112 21.5h-49v-255h144v-50h-144v-258h63q64 0 107 22.5t69.5 61t38 89.5t11.5 108zM490 333q0 -75 -18 -136.5t-55.5 -105t-94 -67.5t-134.5 -24h-102v310h-59v50h59v307h77q166 0 246.5 -85.5t80.5 -248.5z" />
    <glyph glyph-name="multiply" unicode="&#xd7;" horiz-adv-x="530" 
d="M462 7l-196 198l-197 -197l-37 36l197 197l-197 197l36 37l197 -198l197 197l37 -36l-197 -197l197 -197z" />
    <glyph glyph-name="Yacute" unicode="&#xdd;" horiz-adv-x="394" 
d="M225 291v-291h-56v291l-167 376h60l137 -327l137 327h56zM205 724h-46l73 136h65z" />
    <glyph glyph-name="Thorn" unicode="&#xde;" horiz-adv-x="443" 
d="M354 340q0 77 -42.5 106.5t-117.5 29.5h-52v-271h67q71 0 108 30.5t37 104.5zM413 340q0 -86 -48.5 -136.5t-136.5 -50.5h-86v-153h-56v667h56v-139h67q93 0 148.5 -45.5t55.5 -142.5z" />
    <glyph glyph-name="eth" unicode="&#xf0;" horiz-adv-x="444" 
d="M345 243q0 30 -4.5 65.5t-17.5 66t-37 51t-64 20.5t-64 -20.5t-37 -51t-17.5 -66t-4.5 -65.5q0 -29 5 -65t18.5 -67t37.5 -52t62 -21t62 21t37.5 52t18.5 67t5 65zM400 287q0 -45 -5.5 -97.5t-24 -97t-54 -74t-94.5 -29.5q-51 0 -85 24t-55 61t-29.5 82t-8.5 87
q0 43 8.5 88t29.5 81.5t55.5 59.5t86.5 23q33 0 60.5 -18t48.5 -42q-17 54 -40.5 105t-67.5 89l-89 -59l-28 24l89 57q-23 14 -52 29.5t-58 25.5l34 25q32 -12 61.5 -25.5t53.5 -30.5l89 56l27 -22l-87 -57q36 -29 61.5 -72.5t42 -93.5t24 -102t7.5 -97z" />
    <glyph glyph-name="yacute" unicode="&#xfd;" horiz-adv-x="352" 
d="M182 -102q-6 -24 -13.5 -46.5t-19.5 -40t-30.5 -27.5t-47.5 -10q-11 0 -19 1.5t-17 4.5l6 54q8 -5 18.5 -8t19.5 -3q17 0 30 17.5t19 39.5l29 109l-141 508h55l112 -419l106 419h51zM191 585h-47l73 136h66z" />
    <glyph glyph-name="thorn" unicode="&#xfe;" horiz-adv-x="451" 
d="M352 250q0 28 -3.5 64t-15 68t-34 54t-60.5 22q-37 0 -60 -20t-36 -50.5t-17.5 -67.5t-4.5 -70t4 -70.5t16 -69t35.5 -52t62.5 -20.5q37 0 59 23t34 56t16 69.5t4 63.5zM407 250q0 -39 -7.5 -84.5t-26 -85t-50.5 -65.5t-81 -26q-44 0 -72 21.5t-46 54.5v-281h-50v937h50
v-292q18 31 46 54.5t72 23.5q50 0 82 -25.5t50.5 -63.5t25.5 -83t7 -85z" />
    <glyph glyph-name="Lslash" unicode="&#x141;" horiz-adv-x="373" 
d="M86 0v293l-58 -70v64l58 70v310h56v-248l107 130v-66l-107 -129v-302h213v-52h-269z" />
    <glyph glyph-name="lslash" unicode="&#x142;" horiz-adv-x="198" 
d="M124 386v-386h-50v324l-54 -66v64l54 67v332h50v-271l54 67v-65z" />
    <glyph glyph-name="Scaron" unicode="&#x160;" horiz-adv-x="405" 
d="M359 173q0 -42 -14 -76t-38 -58t-56.5 -37t-69.5 -13q-15 0 -32.5 2t-35 6t-34 10t-29.5 15l6 67q16 -15 34.5 -24t35 -14t30 -6.5t21.5 -1.5q41 0 65.5 14.5t37 34.5t16.5 40.5t4 31.5q0 28 -7 48t-19.5 35.5t-30 29t-39.5 30.5l-59 45q-48 37 -71.5 72.5t-23.5 89.5
q0 37 10.5 64t27.5 45t37.5 28.5t39.5 16.5t34.5 7.5t23.5 1.5q40 0 70.5 -9t40.5 -12l-6 -65q-20 13 -45 22.5t-63 9.5q-15 0 -34.5 -5t-36.5 -17t-28.5 -31.5t-11.5 -48.5q0 -45 21 -72t56 -53l59 -44q33 -25 55 -45t35 -40t18.5 -42.5t5.5 -51.5zM238 724h-53l-92 136h52
l66 -99l67 99h52z" />
    <glyph glyph-name="scaron" unicode="&#x161;" horiz-adv-x="333" 
d="M299 129q0 -63 -39.5 -101.5t-102.5 -38.5q-33 0 -61.5 5.5t-59.5 16.5l6 60q26 -14 53 -23.5t57 -9.5q17 0 33.5 6t29.5 17.5t21 27t8 33.5q0 30 -15 50t-37.5 35.5t-49 29t-49 31.5t-37.5 43t-15 63q0 32 12 56.5t31.5 41.5t45.5 26t53 9q22 0 45 -4.5t45 -11.5l-6 -54
q-20 8 -40.5 14.5t-42.5 6.5q-17 0 -32.5 -5.5t-28 -16t-20 -25t-7.5 -32.5q0 -31 15 -51t37.5 -35t49 -28t49 -30.5t37.5 -42.5t15 -63zM193 585h-53l-92 136h54l65 -99l63 99h54z" />
    <glyph glyph-name="Zcaron" horiz-adv-x="407" 
d="M30 0v57l283 558h-272v52h330v-54l-284 -561h290v-52h-347zM232 724h-55l-92 136h54l66 -99l64 99h54z" />
    <glyph glyph-name="Zcaron" unicode="&#x17d;" horiz-adv-x="407" 
d="M30 0v57l283 558h-272v52h330v-54l-284 -561h290v-52h-347zM232 724h-55l-92 136h54l66 -99l64 99h54z" />
    <glyph glyph-name="zcaron" horiz-adv-x="340" 
d="M28 0v50l228 401h-221v46h274v-50l-226 -401h229v-46h-284zM201 585h-53l-92 136h54l65 -99l63 99h54z" />
    <glyph glyph-name="zcaron" unicode="&#x17e;" horiz-adv-x="340" 
d="M28 0v50l228 401h-221v46h274v-50l-226 -401h229v-46h-284zM201 585h-53l-92 136h54l65 -99l63 99h54z" />
    <glyph glyph-name="Euro" unicode="&#x20ac;" 
d="M403 595q-6 7 -16 12t-21 9t-22 6t-20 2q-39 0 -67 -20t-47 -50t-29.5 -65.5t-15.5 -66.5h214l-7 -46h-212q-1 -11 -1 -22v-21v-22q0 -10 1 -21h199l-7 -46h-187q4 -32 15 -67.5t30 -65.5t47 -49.5t67 -19.5q22 0 42 7t37 19l6 -61q-41 -18 -86 -18q-53 0 -91 22.5
t-64 59t-40.5 82t-20.5 91.5h-71l7 46h60q-1 11 -1.5 21.5t-0.5 21.5t0.5 21.5t1.5 21.5h-67l7 46h65q6 45 21 90.5t40.5 82t63.5 59.5t91 23q23 0 45.5 -5.5t42.5 -17.5z" />
    <glyph glyph-name="minus" unicode="&#x2212;" horiz-adv-x="530" 
d="M17 217v48h497v-48h-497z" />
    </font>
</defs>
</svg>
