<?xml version="1.0" standalone="no"?>
<!DOCTYPE svg PUBLIC "-//W3C//DTD SVG 1.1//EN" "http://www.w3.org/Graphics/SVG/1.1/DTD/svg11.dtd" >
<svg>
<metadata>
Created by FontForge 20110222 at Mon Jul 22 10:02:53 2013
 By Ubuntu
Copyright (c) 2000 - 2006 Linotype GmbH, www.linotype.com. All rights reserved. This font software may not be reproduced, modified, disclosed or transferred without the express written approval of Linotype GmbH. Frutiger is a trademark of Heidelberger Druckmaschinen AG which may be registered in certain jurisdictions, exclusively licensed through Linotype GmbH. This typeface is original artwork of Adrian Frutiger. The design may be protected in certain jurisdictions. 
</metadata>
<defs>
<font id="FrutigerNextLT-RegularCn" horiz-adv-x="465" >
  <font-face 
    font-family="FrutigerNext LT RegularCn"
    font-weight="400"
    font-stretch="condensed"
    units-per-em="1000"
    panose-1="2 11 5 6 4 5 4 2 2 4"
    ascent="800"
    descent="-200"
    x-height="498"
    cap-height="667"
    bbox="-144 -227 1006 883"
    underline-thickness="50"
    underline-position="-50"
    unicode-range="U+0020-FB02"
  />
<missing-glyph horiz-adv-x="500" 
d="M442 8v496h-384v-496h384zM50 512h400v-512h-400v512z" />
    <glyph glyph-name=".notdef" horiz-adv-x="500" 
d="M442 8v496h-384v-496h384zM50 512h400v-512h-400v512z" />
    <glyph glyph-name="space" unicode=" " horiz-adv-x="232" 
 />
    <glyph glyph-name="exclam" unicode="!" horiz-adv-x="261" 
d="M91 0v91h79v-91h-79zM162 167h-62l-9 500h79z" />
    <glyph glyph-name="quotedbl" unicode="&#x22;" horiz-adv-x="369" 
d="M82 459v208h67v-208h-67zM221 459v208h67v-208h-67z" />
    <glyph glyph-name="numbersign" unicode="#" 
d="M185 405l-17 -143h109l17 143h-109zM346 405l-17 -143h84v-52h-91l-25 -210h-52l25 210h-109l-25 -210h-52l25 210h-79v52h86l17 143h-81v52h88l25 210h52l-25 -210h109l24 210h53l-25 -210h82v-52h-89z" />
    <glyph glyph-name="dollar" unicode="$" 
d="M396 176q0 -73 -40.5 -121.5t-103.5 -61.5v-101h-47v97q-31 1 -68.5 8.5t-63.5 23.5l6 76q17 -14 35 -23t35 -14t31.5 -6.5t23.5 -1.5q39 0 62.5 13.5t35.5 32t16 37.5t4 31q0 27 -6.5 46t-19 34t-29.5 28t-38 28l-59 43q-25 18 -43.5 35.5t-30.5 37t-18 42t-6 50.5
q0 42 13.5 71t34 48t45 29.5t47.5 14.5v101h46v-97q39 -1 69 -9t44 -12l-6 -74q-21 13 -47 22.5t-64 9.5q-16 0 -34.5 -5t-35 -16t-27.5 -30t-11 -46q0 -43 20 -68t55 -50l59 -42q33 -24 55 -43.5t35.5 -39.5t19.5 -43.5t6 -54.5z" />
    <glyph glyph-name="percent" unicode="%" horiz-adv-x="770" 
d="M256 471q0 22 -1.5 49t-7.5 51t-19 40.5t-37 16.5t-37 -16t-20 -40t-8.5 -51.5t-1.5 -49.5q0 -23 1.5 -50t8.5 -51t20.5 -40t36.5 -16q24 0 37 16.5t19 40.5t7.5 51t1.5 49zM647 195q0 22 -1.5 49t-7.5 51t-19 40.5t-37 16.5t-37 -16t-19.5 -40t-8 -51.5t-1.5 -49.5
q0 -23 1.5 -50t8 -51t20 -40t36.5 -16q24 0 37 16.5t19 40.5t7.5 51t1.5 49zM315 471q0 -29 -4 -64.5t-17 -67t-37.5 -53t-65.5 -21.5t-65.5 21.5t-38 53t-18 67t-4.5 64.5q0 28 4.5 63.5t18 67t38 53.5t65.5 22t65.5 -21.5t37.5 -53t17 -67.5t4 -64zM274 -24h-53l278 715
h53zM706 195q0 -29 -4 -64.5t-17 -67t-37.5 -53t-65.5 -21.5t-65.5 21.5t-38 53t-17.5 67t-4 64.5q0 28 4.5 63.5t17.5 67t37.5 53.5t65.5 22t65.5 -21.5t37.5 -53t17 -67.5t4 -64z" />
    <glyph glyph-name="ampersand" unicode="&#x26;" horiz-adv-x="523" 
d="M360 316h-93q-30 0 -56 -9.5t-45 -27.5t-29.5 -43.5t-10.5 -56.5q0 -58 34.5 -92.5t92.5 -34.5q29 0 54.5 4t52.5 13v247zM426 316v-298q-43 -14 -86.5 -21.5t-88.5 -7.5q-88 0 -142 48t-54 140q0 34 11.5 64.5t31.5 53t48.5 36t63.5 15.5q-69 5 -104 47.5t-35 108.5
q0 40 14 72.5t38.5 55.5t58 35t71.5 12q37 0 64 -6t61 -19l-6 -69q-17 9 -31 14.5t-27.5 9.5t-28.5 5.5t-34 1.5q-50 0 -79.5 -32.5t-29.5 -80.5q0 -60 32.5 -92.5t92.5 -32.5h93v80h66v-80h79v-60h-79z" />
    <glyph glyph-name="quotesingle" unicode="'" horiz-adv-x="232" 
d="M83 459v208h67v-208h-67z" />
    <glyph glyph-name="parenleft" unicode="(" horiz-adv-x="247" 
d="M190 -128q-30 48 -55.5 97.5t-44 102t-28.5 108.5t-10 117q0 121 38.5 224.5t99.5 199.5h52q-52 -97 -86.5 -201.5t-34.5 -222.5t34.5 -223t86.5 -202h-52z" />
    <glyph glyph-name="parenright" unicode=")" horiz-adv-x="247" 
d="M195 296q0 -61 -10 -116.5t-28 -108t-43.5 -102t-55.5 -97.5h-52q52 97 86 201.5t34 222.5t-34 223t-86 202h52q61 -96 99 -200t38 -225z" />
    <glyph glyph-name="asterisk" unicode="*" horiz-adv-x="367" 
d="M223 497l73 -108l-54 -32l-59 111l-57 -111l-53 32l72 108l-115 37l21 60l111 -52l-10 125h65l-9 -125l109 52l21 -60z" />
    <glyph glyph-name="plus" unicode="+" horiz-adv-x="542" 
d="M303 215v-215h-63v215h-219v58h219v215h63v-215h219v-58h-219z" />
    <glyph glyph-name="comma" unicode="," horiz-adv-x="232" 
d="M89 -128h-56l51 219h74z" />
    <glyph glyph-name="hyphen" unicode="-" horiz-adv-x="283" 
d="M43 278v64h197v-64h-197z" />
    <glyph glyph-name="period" unicode="." horiz-adv-x="232" 
d="M77 0v91h79v-91h-79z" />
    <glyph glyph-name="slash" unicode="/" horiz-adv-x="242" 
d="M67 0h-58l166 667h58z" />
    <glyph glyph-name="zero" unicode="0" 
d="M347 333q0 23 -0.5 52.5t-4 61t-10.5 61.5t-19.5 54t-31.5 38.5t-47 14.5t-47 -14.5t-32 -38.5t-20 -54t-10.5 -61.5t-4.5 -61t-1 -52.5q0 -35 2.5 -83.5t13.5 -92.5t34.5 -75t64.5 -31q28 0 47 14.5t31.5 38.5t19.5 54t10.5 61.5t4 61t0.5 52.5zM419 333
q0 -30 -2.5 -67.5t-9.5 -76t-20 -74.5t-33.5 -64t-50 -45t-69.5 -17q-41 0 -71 17t-51 45t-33.5 64.5t-19.5 74.5t-9.5 75.5t-2.5 67.5t2.5 67t10 75.5t21 74.5t34 64.5t50 45.5t69.5 17q41 0 71 -17t50.5 -45t33 -64.5t19.5 -74.5t9 -75.5t2 -67.5z" />
    <glyph glyph-name="one" unicode="1" 
d="M223 0v587l-87 -95l-36 50l126 125h67v-667h-70z" />
    <glyph glyph-name="two" unicode="2" 
d="M54 0v59l47 61q28 37 64 83.5t68 97t53.5 102t21.5 98.5q0 52 -25 82.5t-78 30.5q-35 0 -63.5 -13.5t-57.5 -32.5l-6 69q23 13 55.5 26.5t84.5 13.5q45 0 76 -15t50.5 -40t28 -56t8.5 -63q0 -48 -19 -98.5t-45.5 -97t-55.5 -85t-48 -62.5l-80 -99h256v-61h-335z" />
    <glyph glyph-name="three" unicode="3" 
d="M388 189q0 -97 -60 -148.5t-159 -51.5q-29 0 -63 5.5t-58 20.5l6 69q28 -14 58.5 -23t61.5 -9q64 0 102.5 37t38.5 103q0 32 -12.5 55.5t-33.5 39t-48.5 23t-57.5 7.5h-41v61h39q32 0 59.5 7t47.5 22.5t31.5 39.5t11.5 59q0 27 -10.5 47.5t-28 34t-40.5 20t-48 6.5
q-30 0 -58 -9.5t-52 -25.5l-6 67q12 6 28 12t33.5 10t35 6.5t31.5 2.5q38 0 72 -11t60 -33t41 -53.5t15 -71.5q0 -62 -33 -102.5t-90 -56.5q60 -9 93.5 -53t33.5 -107z" />
    <glyph glyph-name="four" unicode="4" 
d="M293 593l-200 -381h200v381zM361 152v-152h-69v152h-256v69l237 446h88v-455h69v-60h-69z" />
    <glyph glyph-name="five" unicode="5" 
d="M405 212q0 -51 -13.5 -92t-40.5 -70t-67 -45t-92 -16q-19 0 -34.5 1.5t-29.5 4.5t-28 8.5t-31 13.5l7 68q24 -15 56.5 -24t59.5 -9q70 0 105 44t35 110q0 68 -36 106.5t-105 38.5q-30 0 -55 -7t-51 -18l10 341h275v-61h-208l-7 -207q16 6 30 9.5t31 3.5q46 0 81 -14.5
t59 -41t36.5 -63.5t12.5 -81z" />
    <glyph glyph-name="six" unicode="6" 
d="M354 210q0 27 -6 53.5t-19.5 47.5t-35.5 34t-53 13q-30 0 -51 -13.5t-34.5 -35t-19.5 -48t-6 -51.5q0 -26 5 -54t17.5 -51.5t33.5 -38.5t52 -15t53 15t36.5 38t21 51.5t6.5 54.5zM425 211q0 -44 -12 -84t-36 -70.5t-59 -49t-81 -18.5q-60 0 -97 29.5t-57 74t-27 97.5
t-7 100q0 38 4 81.5t14 86.5t27 82.5t43 70t62 48.5t84 18q29 0 57.5 -5t56.5 -14l-6 -68q-25 11 -49 17.5t-52 6.5q-53 0 -85 -28.5t-50 -71t-26 -92.5t-12 -93q20 41 54 66t80 25q45 0 77.5 -17.5t54 -47t32 -67t10.5 -77.5z" />
    <glyph glyph-name="seven" unicode="7" 
d="M188 0h-76l206 606h-258v61h332v-64z" />
    <glyph glyph-name="eight" unicode="8" 
d="M351 172q0 29 -11.5 51t-29.5 40t-40.5 32t-44.5 27q-20 -12 -39.5 -27t-35 -33.5t-25.5 -40.5t-10 -48q0 -51 32 -86.5t86 -35.5q26 0 47.5 9.5t37.5 25.5t24.5 38t8.5 48zM334 516q0 41 -28 70t-73 29q-46 0 -73.5 -29.5t-27.5 -69.5q0 -28 9 -49t24 -37.5t35 -29.5
t41 -25q17 12 34 27t30 33t21 38t8 43zM422 172q0 -41 -14.5 -75t-40 -58t-60 -37t-74.5 -13q-43 0 -78 13.5t-59.5 37.5t-38 58t-13.5 75q0 32 10.5 57t28 46t40 38.5t47.5 34.5q-51 30 -79.5 69.5t-28.5 100.5q0 36 14 65t37 50t54 32t66 11q34 0 65.5 -11t54.5 -32
t37 -50t14 -65q0 -59 -33 -99t-79 -71q26 -17 49.5 -34t41.5 -38t28.5 -46.5t10.5 -58.5z" />
    <glyph glyph-name="nine" unicode="9" 
d="M338 456q0 26 -5.5 54t-18.5 51.5t-34 38.5t-52 15q-33 0 -55.5 -13.5t-36 -35.5t-19 -49.5t-5.5 -55.5q0 -27 6.5 -54.5t20 -49.5t35.5 -36t54 -14q30 0 50.5 14t34 35.5t19.5 48t6 51.5zM419 377q0 -56 -7.5 -123.5t-31 -126.5t-68 -98.5t-117.5 -39.5q-29 0 -60.5 5
t-59.5 14l6 70q28 -11 52 -18.5t54 -7.5q51 0 82.5 29t48.5 72.5t23.5 92.5t7.5 90q-19 -42 -53.5 -66.5t-80.5 -24.5q-45 0 -78 19t-54 49.5t-31.5 69.5t-10.5 78q0 43 12.5 82.5t36.5 69t59 47t80 17.5q60 0 97 -29t57.5 -73.5t28 -97.5t7.5 -100z" />
    <glyph glyph-name="colon" unicode=":" horiz-adv-x="232" 
d="M77 0v91h79v-91h-79zM77 407v92h79v-92h-79z" />
    <glyph glyph-name="semicolon" unicode=";" horiz-adv-x="232" 
d="M89 -128h-56l51 219h74zM76 407v92h79v-92h-79z" />
    <glyph glyph-name="less" unicode="&#x3c;" horiz-adv-x="542" 
d="M19 211v64l501 201v-64l-429 -169l429 -168v-63z" />
    <glyph glyph-name="equal" unicode="=" horiz-adv-x="542" 
d="M21 120v58h501v-58h-501zM21 309v57h501v-57h-501z" />
    <glyph glyph-name="greater" unicode="&#x3e;" horiz-adv-x="542" 
d="M22 12v63l429 168l-429 169v64l501 -201v-64z" />
    <glyph glyph-name="question" unicode="?" horiz-adv-x="352" 
d="M106 0v91h80v-91h-80zM314 514q0 -35 -10 -62t-25 -50t-33 -45t-33 -47t-25 -55.5t-10 -70.5v-17h-65v16q0 43 9.5 76t23.5 59.5t30.5 48t30.5 43t23.5 45t9.5 52.5q0 48 -27.5 77.5t-77.5 29.5q-28 0 -52 -8t-44 -22l-6 70q23 9 49.5 16t55.5 7q78 0 127 -41t49 -122z
" />
    <glyph glyph-name="at" unicode="@" horiz-adv-x="647" 
d="M394 313q-7 2 -16 2.5t-16 0.5q-32 0 -58 -21.5t-44.5 -52.5t-28.5 -66t-10 -62q0 -12 2 -24t7 -22t14.5 -16.5t23.5 -6.5q24 0 41.5 18t29.5 43t19.5 52t11.5 46zM597 230q0 -44 -10 -85.5t-31.5 -73.5t-54.5 -51.5t-78 -19.5q-28 0 -48.5 15t-25.5 45
q-12 -23 -37 -41.5t-53 -18.5q-24 0 -40.5 10t-26.5 25.5t-14.5 35.5t-4.5 41q0 41 14 85t39.5 81t62.5 60.5t83 23.5q19 0 39.5 -4.5t37.5 -11.5l-52 -247q-2 -10 -2 -16q0 -20 8.5 -29.5t28.5 -9.5q27 0 46.5 16.5t33 42.5t20 59.5t6.5 67.5q0 45 -13 85.5t-38 72t-62 50
t-85 18.5q-56 0 -99.5 -28t-72.5 -71.5t-44 -96t-15 -101.5q0 -55 12.5 -104t39 -85.5t68 -57.5t98.5 -21q51 0 88 12.5t76 30.5l6 -56q-22 -9 -40.5 -16t-38.5 -12.5t-43.5 -8t-56.5 -2.5q-64 0 -113.5 25.5t-83.5 69t-52 102t-18 123.5q0 64 20 126.5t58.5 112t93.5 80
t125 30.5q55 0 101 -23t79 -61.5t51 -89t18 -104.5z" />
    <glyph glyph-name="A" unicode="A" horiz-adv-x="533" 
d="M266 600l-112 -360h222zM448 0l-54 181h-257l-55 -181h-70l218 667h75l217 -667h-74z" />
    <glyph glyph-name="B" unicode="B" horiz-adv-x="491" 
d="M367 185q0 60 -31.5 95.5t-92.5 35.5h-89v-255h87q62 0 94 30t32 94zM351 495q0 55 -30 83t-84 28h-83v-232h82q56 0 85.5 33t29.5 88zM440 184q0 -49 -15 -84t-42.5 -57t-65.5 -32.5t-84 -10.5h-149v667h163q39 0 71.5 -11.5t56 -33.5t36.5 -53t13 -71q0 -56 -28 -95
t-80 -55q30 -6 53.5 -20.5t39 -36.5t23.5 -49t8 -58z" />
    <glyph glyph-name="C" unicode="C" horiz-adv-x="483" 
d="M451 9q-28 -9 -57.5 -14.5t-62.5 -5.5q-73 0 -126 28.5t-87 76.5t-50.5 110t-16.5 129q0 68 18 130.5t53.5 110t88.5 75.5t124 28q32 0 61.5 -6.5t53.5 -17.5l-6 -72q-22 17 -51.5 24.5t-58.5 7.5q-57 0 -96.5 -25t-64.5 -65t-36.5 -90.5t-11.5 -100.5t11.5 -99.5
t37 -89.5t64.5 -65t95 -25q35 0 60.5 7.5t51.5 21.5z" />
    <glyph glyph-name="D" unicode="D" horiz-adv-x="554" 
d="M430 333q0 58 -12 107.5t-39 86t-70.5 57.5t-107.5 21h-46v-543h59q61 0 102.5 22t66.5 59t36 86.5t11 103.5zM504 333q0 -75 -18.5 -136t-56 -105t-94.5 -68t-134 -24h-117v667h95q165 0 245 -87t80 -247z" />
    <glyph glyph-name="E" unicode="E" horiz-adv-x="433" 
d="M84 0v667h293v-62h-223v-229h211v-60h-211v-254h234v-62h-304z" />
    <glyph glyph-name="F" unicode="F" horiz-adv-x="405" 
d="M155 605v-230h203v-59h-203v-316h-71v667h285v-62h-214z" />
    <glyph glyph-name="G" unicode="G" horiz-adv-x="554" 
d="M494 27q-36 -20 -77 -29t-80 -9q-76 0 -130 29t-88.5 77t-51 110t-16.5 128t18.5 128t54.5 110t90 77t125 29q37 0 74 -8.5t68 -24.5l-6 -72q-28 20 -66.5 31t-73.5 11q-56 0 -96 -25t-65.5 -65.5t-37 -90.5t-11.5 -100q0 -51 11.5 -101.5t37.5 -90.5t67.5 -64.5
t100.5 -24.5q23 0 43.5 4.5t40.5 15.5v226h-113v60h181v-331z" />
    <glyph glyph-name="H" unicode="H" horiz-adv-x="552" 
d="M398 0v316h-243v-316h-71v667h71v-289h243v289h71v-667h-71z" />
    <glyph glyph-name="I" unicode="I" horiz-adv-x="238" 
d="M84 0v667h71v-667h-71z" />
    <glyph glyph-name="J" unicode="J" horiz-adv-x="272" 
d="M197 181q0 -39 -5 -73.5t-20.5 -61t-44 -42t-74.5 -15.5q-13 0 -25.5 3t-26.5 7l6 67q11 -5 21.5 -8.5t21.5 -3.5q28 0 43.5 12t22.5 30.5t8.5 41.5t1.5 45v484h71v-486z" />
    <glyph glyph-name="K" unicode="K" horiz-adv-x="492" 
d="M400 0l-245 328v-328h-71v667h71v-301l228 301h84l-251 -316l273 -351h-89z" />
    <glyph glyph-name="L" unicode="L" horiz-adv-x="385" 
d="M84 0v667h71v-605h212v-62h-283z" />
    <glyph glyph-name="M" unicode="M" horiz-adv-x="730" 
d="M576 0v603l-184 -603h-58l-185 603v-603h-65v667h110l172 -575l171 575h109v-667h-70z" />
    <glyph glyph-name="N" unicode="N" horiz-adv-x="588" 
d="M407 0l-258 581v-581h-65v667h98l257 -583v583h66v-667h-98z" />
    <glyph glyph-name="O" unicode="O" horiz-adv-x="574" 
d="M449 333q0 43 -5 92.5t-21.5 91.5t-48.5 70t-87 28q-53 0 -85 -28.5t-49 -71t-22.5 -92t-5.5 -90.5q0 -44 5.5 -93.5t22.5 -91.5t49 -69.5t85 -27.5q54 0 86 28.5t49 71t22 91.5t5 91zM523 333q0 -57 -11 -118t-38 -111.5t-72.5 -82.5t-114.5 -32q-72 0 -118 32t-72.5 82
t-36 111t-9.5 119q0 57 11 118t38 111t72.5 82.5t114.5 32.5q73 0 119 -32t72 -82t35.5 -111t9.5 -119z" />
    <glyph glyph-name="P" unicode="P" horiz-adv-x="456" 
d="M354 476q0 73 -39.5 101.5t-110.5 28.5h-50v-260h63q68 0 102.5 30t34.5 100zM428 476q0 -89 -51.5 -140t-140.5 -51h-82v-285h-70v667h136q94 0 151 -46t57 -145z" />
    <glyph glyph-name="Q" unicode="Q" horiz-adv-x="574" 
d="M449 333q0 43 -5 92.5t-21.5 91.5t-48.5 70t-87 28q-53 0 -85 -28.5t-49 -71t-22.5 -92t-5.5 -90.5q0 -44 5.5 -93.5t22.5 -91.5t49 -69.5t85 -27.5q54 0 86 28.5t49 71t22 91.5t5 91zM523 333q0 -45 -6.5 -93.5t-22.5 -92t-42.5 -79.5t-66.5 -56l124 -140h-86l-103 120
q-15 -3 -33 -3q-72 0 -118 32t-72.5 82t-36 111t-9.5 119q0 57 11 118t38 111t72.5 82.5t114.5 32.5q73 0 119 -32t72 -82t35.5 -111t9.5 -119z" />
    <glyph glyph-name="R" unicode="R" horiz-adv-x="490" 
d="M354 490q0 60 -34 88t-91 28h-75v-239h78q62 0 92 31.5t30 91.5zM390 0l-79 225q-12 34 -29 57.5t-55 23.5h-73v-306h-70v667h165q39 0 72 -12t57 -34t37 -54t13 -72q0 -65 -33.5 -107.5t-97.5 -53.5q29 -5 43.5 -21t25.5 -45l99 -268h-75z" />
    <glyph glyph-name="S" unicode="S" horiz-adv-x="418" 
d="M373 176q0 -42 -14 -76.5t-39 -59t-59 -38t-73 -13.5q-16 0 -34.5 2t-37 6t-36 10t-30.5 14l6 76q17 -14 35 -23t35 -14t31.5 -6.5t23.5 -1.5q39 0 62.5 13.5t35.5 32.5t16 38t4 31q0 27 -6.5 45.5t-19 33.5t-29.5 28t-38 28l-59 43q-25 18 -43.5 35.5t-30.5 37t-18 42
t-6 50.5q0 55 22.5 88t52.5 50.5t60.5 23t46.5 5.5q41 0 72 -8.5t45 -12.5l-6 -74q-21 13 -47 22.5t-64 9.5q-16 0 -34.5 -5t-35 -16t-27.5 -30t-11 -46q0 -43 20 -68t55 -50l59 -42q33 -24 55 -43.5t35.5 -39.5t19.5 -43.5t6 -54.5z" />
    <glyph glyph-name="T" unicode="T" horiz-adv-x="394" 
d="M233 605v-605h-71v605h-150v62h370v-62h-149z" />
    <glyph glyph-name="U" unicode="U" horiz-adv-x="551" 
d="M476 242q0 -50 -10 -95.5t-33.5 -80.5t-62 -56t-95.5 -21q-60 0 -98.5 20t-61 54.5t-31 80.5t-8.5 98v425h71v-428q0 -35 4 -68.5t17 -60.5t38.5 -43.5t68.5 -16.5q42 0 68 16.5t39.5 43.5t18 60.5t4.5 68.5v428h71v-425z" />
    <glyph glyph-name="V" unicode="V" horiz-adv-x="480" 
d="M280 0h-77l-193 667h75l159 -587l157 587h70z" />
    <glyph glyph-name="W" unicode="W" horiz-adv-x="747" 
d="M583 0h-82l-127 592l-126 -592h-83l-151 667h74l120 -588l127 588h83l127 -588l119 588h69z" />
    <glyph glyph-name="X" unicode="X" horiz-adv-x="489" 
d="M399 0l-156 303l-154 -303h-78l193 354l-173 313h80l137 -261l137 261h75l-174 -313l192 -354h-79z" />
    <glyph glyph-name="Y" unicode="Y" horiz-adv-x="414" 
d="M243 286v-286h-71v286l-171 381h78l131 -318l130 318h73z" />
    <glyph glyph-name="Z" unicode="Z" horiz-adv-x="419" 
d="M30 0v66l279 539h-268v62h343v-64l-280 -541h285v-62h-359z" />
    <glyph glyph-name="bracketleft" unicode="[" horiz-adv-x="247" 
d="M76 -128v849h136v-56h-76v-737h76v-56h-136z" />
    <glyph glyph-name="backslash" unicode="\" horiz-adv-x="242" 
d="M175 0l-166 667h59l165 -667h-58z" />
    <glyph glyph-name="bracketright" unicode="]" horiz-adv-x="247" 
d="M36 -128v56h76v737h-76v56h135v-849h-135z" />
    <glyph glyph-name="asciicircum" unicode="^" horiz-adv-x="542" 
d="M404 250l-134 343l-131 -343h-67l169 417h61l168 -417h-66z" />
    <glyph glyph-name="underscore" unicode="_" horiz-adv-x="500" 
d="M0 -125v50h500v-50h-500z" />
    <glyph glyph-name="grave" unicode="`" horiz-adv-x="207" 
d="M92 584l-92 136h70l75 -136h-53z" />
    <glyph glyph-name="a" unicode="a" horiz-adv-x="439" 
d="M305 249h-16q-32 0 -65.5 -3.5t-60.5 -16t-44 -36t-17 -62.5q0 -38 24.5 -62t63.5 -24q29 0 50.5 12.5t36 32.5t21.5 46t7 52v61zM312 0l-4 71q-26 -39 -57 -60.5t-79 -21.5q-30 0 -55 11t-43 30t-28.5 44.5t-10.5 54.5q0 51 22 83.5t56.5 52t76.5 27t83 7.5h32v35
q0 53 -22.5 85.5t-81.5 32.5q-32 0 -66.5 -14.5t-59.5 -35.5l-6 65q35 19 66 30t73 11q85 0 123 -44t38 -120v-236q0 -29 1.5 -55.5t3.5 -52.5h-62z" />
    <glyph glyph-name="b" unicode="b" horiz-adv-x="464" 
d="M353 251q0 26 -3.5 60.5t-14.5 65.5t-32.5 52.5t-57.5 21.5q-35 0 -57 -20t-34 -50t-16.5 -65t-4.5 -65t3.5 -66t15.5 -67t34 -51.5t59 -20.5q35 0 56 22.5t32.5 54.5t15.5 67t4 61zM423 251q0 -39 -7.5 -85t-26.5 -85.5t-51.5 -65.5t-81.5 -26q-45 0 -74.5 22t-47.5 57
l-2 -68h-61v721h65v-292q19 32 47.5 55.5t73.5 23.5q51 0 83 -25t50.5 -63.5t25.5 -83.5t7 -85z" />
    <glyph glyph-name="c" unicode="c" horiz-adv-x="374" 
d="M343 8q-23 -9 -47 -14t-48 -5q-56 0 -95 23t-63.5 60t-36 84t-11.5 95q0 54 14.5 101t41 81.5t64.5 54.5t85 20t93 -19l-6 -64q-18 13 -40 19t-43 6q-39 0 -66 -18.5t-43 -48t-23 -64.5t-7 -68q0 -35 7 -71.5t24 -65.5t45 -47.5t70 -18.5q20 0 42 8t37 19z" />
    <glyph glyph-name="d" unicode="d" horiz-adv-x="464" 
d="M331 251q0 30 -4.5 65t-16.5 65t-34 50t-57 20q-36 0 -57 -21.5t-32.5 -52.5t-14.5 -65.5t-3 -60.5t4 -61t15.5 -67t32.5 -54.5t56 -22.5q37 0 59 20.5t33.5 51.5t15 67t3.5 66zM337 0l-3 72q-17 -33 -48 -58t-77 -25q-50 0 -82 26t-51 65.5t-26.5 85.5t-7.5 85
q0 40 7.5 85t26.5 83.5t51.5 63.5t82.5 25q45 0 72.5 -23.5t46.5 -55.5v292h65v-574q0 -41 0.5 -73.5t2.5 -73.5h-60z" />
    <glyph glyph-name="e" unicode="e" horiz-adv-x="417" 
d="M311 283q0 24 -4 53.5t-14.5 55.5t-29 43.5t-47.5 17.5t-49 -17t-32.5 -42.5t-18.5 -55.5t-6 -55h201zM110 232q0 -33 6 -66t21 -60t41 -44t66 -17q29 0 59 11t53 28l6 -67q-26 -14 -61 -21t-64 -7q-57 0 -94.5 22t-60 59t-31.5 84t-9 97q0 45 9.5 90.5t30 82.5
t53.5 60.5t81 23.5q49 0 80.5 -23.5t49.5 -60t25 -80t7 -83.5v-29h-268z" />
    <glyph glyph-name="f" unicode="f" horiz-adv-x="260" 
d="M258 666q-19 8 -37 8q-33 0 -47.5 -21t-14.5 -56v-99h87v-55h-87v-443h-64v443h-76v55h76v94q0 74 29 106.5t92 32.5q14 0 25.5 -3t22.5 -5z" />
    <glyph glyph-name="g" unicode="g" horiz-adv-x="464" 
d="M331 251q0 30 -4 65t-16 65t-34 50t-57 20q-36 0 -57.5 -21.5t-32.5 -52.5t-14.5 -65.5t-3.5 -60.5q0 -27 3 -61t14 -63.5t32 -49.5t57 -20q39 0 61.5 19.5t34 48.5t14.5 63t3 63zM394 15q0 -48 -9.5 -91.5t-31 -77t-57.5 -53t-89 -19.5q-38 0 -72.5 8t-69.5 19l6 68
q30 -17 64 -27.5t69 -10.5q46 0 71.5 21t37.5 52.5t14 69.5t2 72v28q-19 -33 -48.5 -53.5t-71.5 -20.5q-50 0 -82 23.5t-51 60t-26.5 81t-7.5 86.5q0 40 7.5 85t26.5 83.5t51 63.5t82 25q47 0 76 -22.5t47 -56.5v69h62v-483z" />
    <glyph glyph-name="h" unicode="h" horiz-adv-x="462" 
d="M326 0v343q0 22 -4.5 41.5t-14.5 34t-26.5 23t-39.5 8.5q-26 0 -45.5 -13t-32.5 -33t-20 -44t-7 -46v-314h-65v721h65v-295q16 34 48 58t72 24q37 0 63 -13.5t42 -36t23 -52t7 -62.5v-344h-65z" />
    <glyph glyph-name="i" unicode="i" horiz-adv-x="207" 
d="M70 608v86h67v-86h-67zM71 0v498h65v-498h-65z" />
    <glyph glyph-name="j" unicode="j" horiz-adv-x="211" 
d="M140 -94q0 -24 -3.5 -47.5t-14.5 -42t-31 -30.5t-53 -12q-16 0 -26 2t-17 5l6 57q15 -6 25 -6q9 0 17.5 1.5t15.5 8.5t11.5 20t4.5 37v599h65v-592v0zM74 608v86h67v-86h-67z" />
    <glyph glyph-name="k" unicode="k" horiz-adv-x="405" 
d="M320 0l-184 261v-261h-65v721h65v-428l168 205h77l-187 -220l204 -278h-78z" />
    <glyph glyph-name="l" unicode="l" horiz-adv-x="207" 
d="M71 0v721h65v-721h-65z" />
    <glyph glyph-name="m" unicode="m" horiz-adv-x="677" 
d="M542 0v342q0 20 -3 39.5t-11 34.5t-23 24.5t-40 9.5q-23 0 -40.5 -12.5t-29.5 -32t-18 -43t-6 -44.5v-318h-64v342q0 20 -3 39.5t-11 34.5t-23 24.5t-40 9.5q-22 0 -39.5 -12.5t-29.5 -32t-18.5 -43t-6.5 -44.5v-318h-65v350q0 36 -1 74t-2 74h60l2 -72q16 35 46 58.5
t70 23.5q45 0 72 -21t43 -61q23 36 52.5 59t67.5 23q68 0 96.5 -42.5t28.5 -116.5v-349h-64z" />
    <glyph glyph-name="n" unicode="n" horiz-adv-x="462" 
d="M327 0v342q0 22 -4.5 41.5t-15 34.5t-27 23.5t-39.5 8.5q-27 0 -46.5 -12.5t-32.5 -32t-19.5 -43t-6.5 -45.5v-317h-65v350q0 38 -1 74t-2 74h60l2 -72q17 33 49 57.5t77 24.5q37 0 63 -13.5t42 -36t23 -52.5t7 -63v-343h-64z" />
    <glyph glyph-name="o" unicode="o" horiz-adv-x="456" 
d="M345 251q0 29 -4 64t-16 65t-35 50.5t-62 20.5q-36 0 -58.5 -21t-35.5 -51.5t-17.5 -65.5t-4.5 -62q0 -29 4 -64.5t16.5 -66.5t35 -52.5t60.5 -21.5q37 0 60 21.5t36 52.5t17 66.5t4 64.5zM414 251q0 -44 -9 -90.5t-30.5 -84.5t-57.5 -62.5t-89 -24.5q-54 0 -89.5 24
t-57 62t-30.5 84.5t-9 91.5q0 44 10 90t32.5 83t57.5 60.5t86 23.5q55 0 91 -23t57 -60t29.5 -83t8.5 -91z" />
    <glyph glyph-name="p" unicode="p" horiz-adv-x="464" 
d="M353 251q0 26 -3 60.5t-14.5 65.5t-32.5 52.5t-57 21.5q-35 0 -57 -19.5t-34.5 -49t-17 -65t-4.5 -66.5q0 -32 3.5 -67.5t15.5 -66.5t34 -51t59 -20q35 0 56 22.5t32.5 54.5t15.5 67t4 61zM423 251q0 -39 -7.5 -85t-26.5 -85.5t-51.5 -65.5t-81.5 -26q-45 0 -73.5 21.5
t-46.5 55.5v-282h-65v566q0 41 -0.5 74t-2.5 74h61l2 -73q18 32 48.5 57.5t75.5 25.5q51 0 83.5 -25t51 -63t26 -83.5t7.5 -85.5z" />
    <glyph glyph-name="q" unicode="q" horiz-adv-x="464" 
d="M331 251q0 30 -4.5 65t-16.5 65t-34 50t-57 20q-36 0 -57 -21.5t-32.5 -52.5t-14.5 -65.5t-3 -60.5t4 -61t15.5 -67t32.5 -54.5t56 -22.5q37 0 59 20.5t33.5 51.5t15 67t3.5 66zM329 -216v282q-18 -34 -46.5 -55.5t-73.5 -21.5q-50 0 -82 26t-51 65.5t-26.5 85.5t-7.5 85
q0 40 7.5 85.5t26 83.5t51 63t83.5 25q45 0 74 -22.5t48 -56.5v69h62v-714h-65z" />
    <glyph glyph-name="r" unicode="r" horiz-adv-x="281" 
d="M261 440q-5 0 -9.5 1t-9.5 1q-27 0 -47 -13.5t-33 -34.5t-19.5 -46t-6.5 -49v-299h-65v350q0 38 -1 74t-2 74h60l2 -76q16 35 46 60.5t70 25.5q5 0 10.5 -1.5t10.5 -2.5z" />
    <glyph glyph-name="s" unicode="s" horiz-adv-x="346" 
d="M313 132q0 -33 -11 -59.5t-30.5 -45t-46.5 -28.5t-60 -10q-67 0 -129 23l6 68q27 -15 56 -24.5t60 -9.5q16 0 31.5 6t28 16.5t20 25t7.5 31.5q0 28 -15 47t-38 33.5t-49.5 28t-49.5 31.5t-38 43t-15 64q0 33 13 58.5t34.5 42.5t48.5 26t55 9q23 0 48 -4.5t48 -12.5
l-6 -62q-22 9 -43.5 15.5t-44.5 6.5q-16 0 -31 -5t-27 -15t-19 -23.5t-7 -30.5q0 -29 15 -48t38 -33.5t49 -27.5t49 -30.5t38 -42.5t15 -63z" />
    <glyph glyph-name="t" unicode="t" horiz-adv-x="274" 
d="M254 1q-33 -12 -70 -12q-53 0 -74 31.5t-21 78.5v344h-72v55h72v113l64 22v-135h98v-55h-98v-324q0 -14 1 -27t6.5 -23t15.5 -16t28 -6q12 0 22.5 4.5t21.5 10.5z" />
    <glyph glyph-name="u" unicode="u" horiz-adv-x="458" 
d="M331 0l-2 71q-17 -33 -48.5 -57.5t-76.5 -24.5q-38 0 -63.5 13.5t-41.5 37t-23 53.5t-7 63v342h65v-342q0 -22 4.5 -41.5t14.5 -34.5t26 -24t39 -9q27 0 46.5 13t32.5 32.5t19.5 43t6.5 45.5v317h64v-350q0 -38 1.5 -74t2.5 -74h-60z" />
    <glyph glyph-name="v" unicode="v" horiz-adv-x="381" 
d="M232 0h-79l-142 498h71l112 -430l111 430h66z" />
    <glyph glyph-name="w" unicode="w" horiz-adv-x="629" 
d="M490 0h-78l-96 421l-98 -421h-78l-127 498h71l97 -432l98 432h77l98 -432l98 432h65z" />
    <glyph glyph-name="x" unicode="x" horiz-adv-x="388" 
d="M299 0l-106 214l-108 -214h-73l142 262l-129 236h75l96 -190l94 190h73l-131 -238l144 -260h-77z" />
    <glyph glyph-name="y" unicode="y" horiz-adv-x="371" 
d="M201 -93q-8 -27 -16.5 -51.5t-22 -42.5t-33.5 -28.5t-50 -10.5q-23 0 -43 7l6 62q8 -5 19 -8t21 -3q19 0 32.5 18.5t19.5 41.5l27 99l-147 507h71l109 -408l101 408h66z" />
    <glyph glyph-name="z" unicode="z" horiz-adv-x="350" 
d="M28 0v60l224 383h-217v55h285v-60l-223 -383h226v-55h-295z" />
    <glyph glyph-name="braceleft" unicode="{" horiz-adv-x="253" 
d="M192 -128q-51 0 -76 25.5t-25 86.5v172q0 36 -4 59t-11.5 36t-19 17.5t-26.5 4.5v48q15 0 26.5 5t19 18.5t11.5 37t4 59.5v168q0 61 25.5 86.5t75.5 25.5h46v-48h-30q-30 0 -44.5 -14t-14.5 -52v-196q0 -29 -5.5 -49t-14.5 -33.5t-21.5 -20.5t-25.5 -11q13 -4 25.5 -11
t21.5 -20t14.5 -33t5.5 -50v-196q0 -38 14.5 -52.5t44.5 -14.5h30v-48h-46z" />
    <glyph glyph-name="bar" unicode="|" horiz-adv-x="206" 
d="M73 -216v991h61v-991h-61z" />
    <glyph glyph-name="braceright" unicode="}" horiz-adv-x="253" 
d="M224 273q-15 0 -26.5 -4.5t-19 -17.5t-11.5 -36t-4 -59v-172q0 -61 -25.5 -86.5t-76.5 -25.5h-45v48h29q30 0 45 14.5t15 52.5v196q0 30 5.5 50t15 33t21.5 20t26 11q-14 4 -26 11t-21.5 20.5t-15 33.5t-5.5 49v196q0 38 -15 52t-45 14h-29v48h45q50 0 76 -25.5t26 -86.5
v-168q0 -36 4 -59.5t11.5 -37t19 -18.5t26.5 -5v-48z" />
    <glyph glyph-name="asciitilde" unicode="~" horiz-adv-x="542" 
d="M534 316q-2 -26 -10 -50.5t-23 -44t-37 -31t-51 -11.5q-35 0 -72 11.5t-73 25t-71 25t-65 11.5q-35 0 -54.5 -24t-24.5 -56h-45q4 26 12 51t23 44.5t36.5 31t52.5 11.5q34 0 71 -11.5t73.5 -25.5t71.5 -25.5t64 -11.5q35 0 54 24.5t26 55.5h42z" />
    <glyph glyph-name="nonbreakingspace" unicode="&#xa0;" horiz-adv-x="232" 
 />
    <glyph glyph-name="exclamdown" unicode="&#xa1;" horiz-adv-x="261" 
d="M91 -169l9 501h62l8 -501h-79zM91 407v91h79v-91h-79z" />
    <glyph glyph-name="cent" unicode="&#xa2;" 
d="M368 110q-20 -8 -40 -13t-41 -6v-91h-43v93q-44 7 -74.5 30.5t-50 57t-28 74t-8.5 81.5q0 46 11 87t32 72.5t50.5 52.5t67.5 27v92h43v-90q20 -1 39 -5.5t38 -12.5l-6 -64q-18 13 -38.5 18.5t-40.5 5.5q-36 0 -60.5 -17t-39.5 -44t-21.5 -59.5t-6.5 -62.5
q0 -33 6.5 -66.5t22 -60.5t41.5 -44t65 -17q18 0 39 8t37 19z" />
    <glyph glyph-name="sterling" unicode="&#xa3;" 
d="M414 586q-20 14 -45.5 21.5t-49.5 7.5q-25 0 -47.5 -9.5t-39 -28.5t-26 -46t-9.5 -62v-77h152v-59h-152v-274h217v-59h-359v59h73v274h-69v59h69v83q0 42 12.5 78.5t36.5 64t58.5 43.5t77.5 16q27 0 55 -5.5t52 -19.5z" />
    <glyph glyph-name="yen" unicode="&#xa5;" 
d="M284 329h105v-54h-123v-71h123v-53h-123v-151h-67v151h-123v53h123v71h-123v54h106l-149 338h71l130 -315l129 315h70z" />
    <glyph glyph-name="section" unicode="&#xa7;" 
d="M321 264q0 23 -16 46t-41 41l-63 47q-10 -7 -20 -17.5t-18.5 -23.5t-13.5 -27t-5 -27q0 -23 12 -44.5t32 -34.5l86 -56q20 22 33.5 43t13.5 53zM386 266q0 -43 -21 -73.5t-50 -56.5q27 -23 42.5 -49.5t15.5 -64.5q0 -33 -13.5 -60t-37 -46t-54.5 -29.5t-66 -10.5
q-33 0 -60.5 11t-57.5 24l6 63q10 -7 24 -14.5t29 -13.5t30 -9.5t28 -3.5q21 0 39.5 6t33 17.5t23 28.5t8.5 38q0 29 -14.5 51t-40.5 38l-93 57q-32 20 -54.5 49t-22.5 73t24 77.5t58 54.5q-35 21 -49 50.5t-14 70.5q0 30 12.5 55t34 42t50 26.5t59.5 9.5q28 0 59.5 -7.5
t53.5 -18.5l-6 -58q-26 9 -51 18t-51 9q-17 0 -33.5 -5t-30 -15t-21.5 -24.5t-8 -33.5q0 -29 19.5 -52.5t48.5 -43.5l75 -54q32 -23 54 -53t22 -73z" />
    <glyph glyph-name="dieresis" unicode="&#xa8;" horiz-adv-x="207" 
d="M3 607v86h59v-86h-59zM145 607v86h59v-86h-59z" />
    <glyph glyph-name="copyright" unicode="&#xa9;" horiz-adv-x="790" 
d="M525 152q-46 -19 -96 -19t-91 14t-69.5 40.5t-44 63.5t-15.5 83q0 45 16 82t45.5 63.5t70 41t88.5 14.5q23 0 48.5 -4.5t47.5 -12.5l-4 -54q-20 8 -43 13.5t-45 5.5q-77 0 -119.5 -41.5t-42.5 -107.5q0 -67 42 -108t120 -41q24 0 45 6t43 15zM679 334q0 59 -22 111.5
t-60.5 92t-90 62.5t-111.5 23t-111.5 -23t-90 -62.5t-60.5 -92t-22 -111.5t22 -112t60.5 -93t90 -63t111.5 -23t112 23t90 63t60 93t22 112zM739 334q0 -71 -27 -134t-73.5 -110t-109.5 -74t-134 -27t-134 27t-109.5 74t-73.5 110t-27 134t27 133.5t73.5 109t109.5 73.5
t134 27t134 -27t109.5 -73.5t73.5 -109t27 -133.5z" />
    <glyph glyph-name="ordfeminine" unicode="&#xaa;" horiz-adv-x="310" 
d="M208 514h-11q-22 0 -42 -3t-35 -10t-24 -18.5t-9 -28.5q0 -14 5.5 -22t14 -12t17 -5.5t14.5 -1.5q35 0 52.5 23.5t17.5 54.5v23zM212 371l-2 42q-17 -24 -37.5 -36.5t-51.5 -12.5q-24 0 -42 8t-29 20.5t-16.5 28t-5.5 30.5q0 32 15 52.5t38 32.5t51 17t54 5h22v13
q0 26 -13.5 41.5t-51.5 15.5q-20 0 -43.5 -7.5t-40.5 -20.5l-4 54q23 11 44.5 17t50.5 6q60 0 87 -27.5t27 -74.5v-138q0 -18 1 -34t3 -32h-56z" />
    <glyph glyph-name="guillemotleft" unicode="&#xab;" horiz-adv-x="377" 
d="M141 55l-109 199l109 200h59l-102 -200l102 -199h-59zM279 55l-110 199l110 200h59l-102 -200l102 -199h-59z" />
    <glyph glyph-name="logicalnot" unicode="&#xac;" horiz-adv-x="542" 
d="M460 120v189h-441v57h501v-246h-60z" />
    <glyph glyph-name="registered" unicode="&#xae;" horiz-adv-x="790" 
d="M465 431q0 18 -8.5 29.5t-22.5 17.5t-32 8t-37 2h-43v-122h44q18 0 35.5 3t32 10t23 19.5t8.5 32.5zM491 145l-54 122q-6 15 -12.5 24.5t-15.5 15.5t-21.5 8.5t-30.5 2.5h-35v-173h-59v391h130q27 0 51.5 -5.5t42.5 -18t29 -32t11 -47.5q0 -19 -8 -35.5t-21.5 -28.5
t-31.5 -20t-37 -11q25 -5 38.5 -18t22.5 -33l64 -142h-63zM679 334q0 59 -22 111.5t-60.5 92t-90 62.5t-111.5 23t-111.5 -23t-90 -62.5t-60.5 -92t-22 -111.5t22 -112t60.5 -92.5t90 -63t111.5 -23.5t111.5 23.5t90 63t60.5 92.5t22 112zM739 334q0 -71 -27 -134
t-73.5 -110t-109.5 -74t-134 -27t-134 27t-109.5 74t-73.5 110t-27 134t27 133.5t73.5 109t109.5 73.5t134 27t134 -27t109.5 -73.5t73.5 -109t27 -133.5z" />
    <glyph glyph-name="macron" unicode="&#xaf;" horiz-adv-x="207" 
d="M-13 629v48h234v-48h-234z" />
    <glyph glyph-name="degree" unicode="&#xb0;" horiz-adv-x="400" 
d="M294 537q0 19 -7.5 36t-20 29.5t-30 20t-36.5 7.5t-36 -7.5t-29.5 -20t-20 -29.5t-7.5 -36q0 -39 27 -65.5t66 -26.5t66.5 26.5t27.5 65.5zM339 537q0 -29 -11 -54t-29.5 -44t-44 -30t-54.5 -11t-54.5 11t-44 30t-29.5 44t-11 54q0 28 11 53.5t29.5 45t44 30.5t54.5 11
t54.5 -11t44 -30.5t29.5 -45t11 -53.5z" />
    <glyph glyph-name="plusminus" unicode="&#xb1;" horiz-adv-x="542" 
d="M21 -12v58h501v-58h-501zM303 266v-175h-63v175h-219v58h219v174h63v-174h219v-58h-219z" />
    <glyph glyph-name="acute" unicode="&#xb4;" horiz-adv-x="207" 
d="M111 584h-52l75 136h70z" />
    <glyph glyph-name="mu" unicode="&#xb5;" 
d="M334 0l-2 72q-8 -15 -19 -30t-26 -27t-33.5 -19t-40.5 -7q-21 0 -41.5 6.5t-36.5 22.5v-234h-63v714h65v-342q0 -22 4.5 -41.5t14.5 -34.5t26 -24t39 -9q27 0 46.5 13t32.5 32.5t19.5 43t6.5 45.5v317h64v-350q0 -38 1.5 -74t2.5 -74h-60z" />
    <glyph glyph-name="paragraph" unicode="&#xb6;" horiz-adv-x="542" 
d="M394 -108v727h-93v-727h-53v430q-38 1 -72 13t-59.5 34t-41 54t-15.5 72q0 47 15.5 79.5t43 53t65 29.5t82.5 9h181v-774h-53z" />
    <glyph glyph-name="periodcentered" unicode="&#xb7;" horiz-adv-x="232" 
d="M77 264v92h79v-92h-79z" />
    <glyph glyph-name="cedilla" unicode="&#xb8;" horiz-adv-x="207" 
d="M196 -110q0 -32 -27 -51.5t-71 -19.5q-22 0 -45.5 3.5t-40.5 12.5l11 30q15 -5 31 -9.5t35 -4.5q22 0 36.5 10t14.5 27t-11 25.5t-25 8.5t-22.5 -2t-16.5 -6l-11 19l50 67h37l-41 -54q6 2 13 3.5t20 1.5q25 0 44 -17.5t19 -43.5z" />
    <glyph glyph-name="ordmasculine" unicode="&#xba;" horiz-adv-x="310" 
d="M223 522q0 15 -2 33.5t-9.5 34.5t-21 27t-35.5 11q-21 0 -34.5 -11t-20.5 -27.5t-9.5 -35t-2.5 -32.5q0 -15 2.5 -33.5t9.5 -35t20 -28t35 -11.5t35 11.5t20.5 28t10 35t2.5 33.5zM283 522q0 -28 -7 -56t-22 -50.5t-39.5 -37t-59.5 -14.5t-59.5 14t-39.5 36.5t-21.5 50.5
t-6.5 57q0 27 7 55t22 50t39 36t59 14q36 0 60.5 -13.5t39.5 -35.5t21.5 -50t6.5 -56z" />
    <glyph glyph-name="guillemotright" unicode="&#xbb;" horiz-adv-x="377" 
d="M98 55h-59l102 200l-102 199h59l110 -199zM236 55h-59l102 200l-102 199h59l109 -199z" />
    <glyph glyph-name="questiondown" unicode="&#xbf;" horiz-adv-x="352" 
d="M319 -156q-23 -9 -49.5 -16t-55.5 -7q-78 0 -127 41t-49 122q0 35 10 62t25 50t32.5 45t32.5 47t25 55.5t10 70.5v18h65v-16q0 -65 -19.5 -107.5t-43.5 -76.5t-43.5 -65.5t-19.5 -75.5q0 -48 27.5 -77t77.5 -29q28 0 52 8t44 22zM166 407v91h80v-91h-80z" />
    <glyph glyph-name="Agrave" unicode="&#xc0;" horiz-adv-x="533" 
d="M266 600l-112 -360h222zM448 0l-54 181h-257l-55 -181h-70l218 667h75l217 -667h-74zM253 724l-93 136h71l74 -136h-52z" />
    <glyph glyph-name="Aacute" unicode="&#xc1;" horiz-adv-x="533" 
d="M266 600l-112 -360h222zM448 0l-54 181h-257l-55 -181h-70l218 667h75l217 -667h-74zM283 724h-53l73 136h71z" />
    <glyph glyph-name="Acircumflex" unicode="&#xc2;" horiz-adv-x="533" 
d="M266 600l-112 -360h222zM448 0l-54 181h-257l-55 -181h-70l218 667h75l217 -667h-74zM331 724l-64 96l-62 -96h-60l92 136h60l92 -136h-58z" />
    <glyph glyph-name="Atilde" unicode="&#xc3;" horiz-adv-x="533" 
d="M266 600l-112 -360h222zM448 0l-54 181h-257l-55 -181h-70l218 667h75l217 -667h-74zM397 843q0 -16 -5 -33t-15 -31.5t-24 -24t-32 -9.5q-17 0 -30.5 6.5t-25.5 14t-23 14t-23 6.5q-16 0 -27 -15.5t-11 -30.5h-43q0 18 5 35.5t15.5 31.5t25 23t34.5 9q16 0 30 -6.5
t27 -14.5t24.5 -14.5t21.5 -6.5q17 0 25.5 16t8.5 30h42z" />
    <glyph glyph-name="Adieresis" unicode="&#xc4;" horiz-adv-x="533" 
d="M266 600l-112 -360h222zM448 0l-54 181h-257l-55 -181h-70l218 667h75l217 -667h-74zM166 750v85h59v-85h-59zM308 750v85h59v-85h-59z" />
    <glyph glyph-name="Aring" unicode="&#xc5;" horiz-adv-x="533" 
d="M266 600l-112 -360h222zM323 791q0 23 -16 39.5t-40 16.5q-23 0 -40 -16.5t-17 -39.5q0 -24 16.5 -40t40.5 -16q23 0 39.5 16t16.5 40zM448 0l-54 181h-257l-55 -181h-70l218 667h75l217 -667h-74zM359 791q0 -39 -26.5 -65t-65.5 -26t-66 26t-27 65q0 19 7.5 36t20 29.5
t29.5 19.5t36 7t36 -7t29.5 -19.5t19.5 -29.5t7 -36z" />
    <glyph glyph-name="AE" unicode="&#xc6;" horiz-adv-x="713" 
d="M366 614l-182 -375h182v375zM366 0v181h-210l-86 -181h-78l331 667h334v-62h-221v-229h210v-60h-210v-254h232v-62h-302z" />
    <glyph glyph-name="Ccedilla" unicode="&#xc7;" horiz-adv-x="483" 
d="M451 9q-27 -9 -56 -14.5t-61 -5.5l-34 -43q6 2 13.5 3.5t20.5 1.5q25 0 43.5 -17.5t18.5 -43.5q0 -32 -27 -51.5t-71 -19.5q-22 0 -45 3.5t-40 12.5l11 30q15 -5 31 -9.5t35 -4.5q22 0 36.5 10t14.5 27t-11 25.5t-25 8.5t-22.5 -2t-16.5 -6l-11 19l43 57q-65 6 -111.5 37
t-76.5 78t-44.5 106t-14.5 122q0 68 18 130.5t53.5 110t88.5 75.5t124 28q32 0 61.5 -6.5t53.5 -17.5l-6 -72q-22 17 -51.5 24.5t-58.5 7.5q-57 0 -96.5 -25t-64.5 -65t-36.5 -90.5t-11.5 -100.5t11.5 -99.5t37 -89.5t64.5 -65t95 -25q35 0 60.5 7.5t51.5 21.5z" />
    <glyph glyph-name="Egrave" unicode="&#xc8;" horiz-adv-x="433" 
d="M84 0v667h293v-62h-223v-229h211v-60h-211v-254h234v-62h-304zM216 724l-92 136h70l73 -136h-51z" />
    <glyph glyph-name="Eacute" unicode="&#xc9;" horiz-adv-x="433" 
d="M84 0v667h293v-62h-223v-229h211v-60h-211v-254h234v-62h-304zM246 724h-53l73 136h71z" />
    <glyph glyph-name="Ecircumflex" unicode="&#xca;" horiz-adv-x="433" 
d="M84 0v667h293v-62h-223v-229h211v-60h-211v-254h234v-62h-304zM293 724l-63 96l-62 -96h-60l93 136h59l92 -136h-59z" />
    <glyph glyph-name="Edieresis" unicode="&#xcb;" horiz-adv-x="433" 
d="M84 0v667h293v-62h-223v-229h211v-60h-211v-254h234v-62h-304zM130 750v85h59v-85h-59zM272 750v85h59v-85h-59z" />
    <glyph glyph-name="Igrave" unicode="&#xcc;" horiz-adv-x="238" 
d="M84 0v667h71v-667h-71zM105 724l-92 136h70l74 -136h-52z" />
    <glyph glyph-name="Iacute" unicode="&#xcd;" horiz-adv-x="238" 
d="M84 0v667h71v-667h-71zM132 724h-51l74 136h70z" />
    <glyph glyph-name="Icircumflex" unicode="&#xce;" horiz-adv-x="238" 
d="M84 0v667h71v-667h-71zM182 724l-63 96l-63 -96h-60l93 136h61l92 -136h-60z" />
    <glyph glyph-name="Idieresis" unicode="&#xcf;" horiz-adv-x="238" 
d="M84 0v667h71v-667h-71zM19 750v85h59v-85h-59zM161 750v85h59v-85h-59z" />
    <glyph glyph-name="Ntilde" unicode="&#xd1;" horiz-adv-x="588" 
d="M407 0l-258 581v-581h-65v667h98l257 -583v583h66v-667h-98zM428 843q0 -16 -5.5 -33.5t-15 -32t-24 -24t-32.5 -9.5q-17 0 -30.5 6.5t-25.5 14t-23 14t-23 6.5q-17 0 -27.5 -15.5t-10.5 -30.5h-43q0 17 5 34.5t15.5 32t25 23.5t34.5 9q16 0 30 -6.5t27 -14.5t24.5 -14.5
t21.5 -6.5q17 0 25.5 16.5t8.5 30.5h43z" />
    <glyph glyph-name="Ograve" unicode="&#xd2;" horiz-adv-x="574" 
d="M449 333q0 43 -5 92.5t-21.5 91.5t-48.5 70t-87 28q-53 0 -85 -28.5t-49 -71t-22.5 -92t-5.5 -90.5q0 -44 5.5 -93.5t22.5 -91.5t49 -69.5t85 -27.5q54 0 86 28.5t49 71t22 91.5t5 91zM523 333q0 -57 -11 -118t-38 -111.5t-72.5 -82.5t-114.5 -32q-72 0 -118 32t-72.5 82
t-36 111t-9.5 119q0 57 11 118t38 111t72.5 82.5t114.5 32.5q73 0 119 -32t72 -82t35.5 -111t9.5 -119zM267 724l-92 136h71l73 -136h-52z" />
    <glyph glyph-name="Oacute" unicode="&#xd3;" horiz-adv-x="574" 
d="M449 333q0 43 -5 92.5t-21.5 91.5t-48.5 70t-87 28q-53 0 -85 -28.5t-49 -71t-22.5 -92t-5.5 -90.5q0 -44 5.5 -93.5t22.5 -91.5t49 -69.5t85 -27.5q54 0 86 28.5t49 71t22 91.5t5 91zM523 333q0 -57 -11 -118t-38 -111.5t-72.5 -82.5t-114.5 -32q-72 0 -118 32t-72.5 82
t-36 111t-9.5 119q0 57 11 118t38 111t72.5 82.5t114.5 32.5q73 0 119 -32t72 -82t35.5 -111t9.5 -119zM307 724h-52l73 136h71z" />
    <glyph glyph-name="Ocircumflex" unicode="&#xd4;" horiz-adv-x="574" 
d="M449 333q0 43 -5 92.5t-21.5 91.5t-48.5 70t-87 28q-53 0 -85 -28.5t-49 -71t-22.5 -92t-5.5 -90.5q0 -44 5.5 -93.5t22.5 -91.5t49 -69.5t85 -27.5q54 0 86 28.5t49 71t22 91.5t5 91zM523 333q0 -57 -11 -118t-38 -111.5t-72.5 -82.5t-114.5 -32q-72 0 -118 32t-72.5 82
t-36 111t-9.5 119q0 57 11 118t38 111t72.5 82.5t114.5 32.5q73 0 119 -32t72 -82t35.5 -111t9.5 -119zM350 724l-63 96l-63 -96h-59l92 136h60l92 -136h-59z" />
    <glyph glyph-name="Otilde" unicode="&#xd5;" horiz-adv-x="574" 
d="M449 333q0 43 -5 92.5t-21.5 91.5t-48.5 70t-87 28q-53 0 -85 -28.5t-49 -71t-22.5 -92t-5.5 -90.5q0 -44 5.5 -93.5t22.5 -91.5t49 -69.5t85 -27.5q54 0 86 28.5t49 71t22 91.5t5 91zM523 333q0 -57 -11 -118t-38 -111.5t-72.5 -82.5t-114.5 -32q-72 0 -118 32t-72.5 82
t-36 111t-9.5 119q0 57 11 118t38 111t72.5 82.5t114.5 32.5q73 0 119 -32t72 -82t35.5 -111t9.5 -119zM417 843q0 -16 -5 -33t-15 -31.5t-24 -24t-32 -9.5q-17 0 -30.5 6.5t-25.5 14t-23.5 14t-23.5 6.5q-16 0 -27 -15.5t-11 -30.5h-44q0 18 5.5 35.5t15.5 31.5t25 23t35 9
q16 0 30.5 -6.5t27.5 -14.5t24.5 -14.5t21.5 -6.5q17 0 24.5 16t7.5 30h44z" />
    <glyph glyph-name="Odieresis" unicode="&#xd6;" horiz-adv-x="574" 
d="M449 333q0 43 -5 92.5t-21.5 91.5t-48.5 70t-87 28q-53 0 -85 -28.5t-49 -71t-22.5 -92t-5.5 -90.5q0 -44 5.5 -93.5t22.5 -91.5t49 -69.5t85 -27.5q54 0 86 28.5t49 71t22 91.5t5 91zM523 333q0 -57 -11 -118t-38 -111.5t-72.5 -82.5t-114.5 -32q-72 0 -118 32t-72.5 82
t-36 111t-9.5 119q0 57 11 118t38 111t72.5 82.5t114.5 32.5q73 0 119 -32t72 -82t35.5 -111t9.5 -119zM186 750v85h59v-85h-59zM328 750v85h59v-85h-59z" />
    <glyph glyph-name="Oslash" unicode="&#xd8;" horiz-adv-x="574" 
d="M449 333q0 38 -4 81t-17 82l-268 -363q18 -36 48 -59t79 -23q54 0 86 28.5t49 71t22 91.5t5 91zM413 538q-18 35 -48 56t-78 21q-53 0 -85 -28.5t-49 -71t-22.5 -92t-5.5 -90.5q0 -37 4 -78.5t16 -79.5zM478 562q26 -50 35.5 -110.5t9.5 -118.5q0 -57 -11 -118
t-38 -111.5t-72.5 -82.5t-114.5 -32q-61 0 -103 23.5t-69 61.5l-70 -95l-29 23l78 105q-25 50 -34 109.5t-9 116.5t11 118t38 111t72.5 82.5t114.5 32.5q60 0 101.5 -22t68.5 -59l75 101l29 -23z" />
    <glyph glyph-name="Ugrave" unicode="&#xd9;" horiz-adv-x="551" 
d="M476 242q0 -50 -10 -95.5t-33.5 -80.5t-62 -56t-95.5 -21q-60 0 -98.5 20t-61 54.5t-31 80.5t-8.5 98v425h71v-428q0 -35 4 -68.5t17 -60.5t38.5 -43.5t68.5 -16.5q42 0 68 16.5t39.5 43.5t18 60.5t4.5 68.5v428h71v-425zM271 724l-92 136h71l73 -136h-52z" />
    <glyph glyph-name="Uacute" unicode="&#xda;" horiz-adv-x="551" 
d="M476 242q0 -50 -10 -95.5t-33.5 -80.5t-62 -56t-95.5 -21q-60 0 -98.5 20t-61 54.5t-31 80.5t-8.5 98v425h71v-428q0 -35 4 -68.5t17 -60.5t38.5 -43.5t68.5 -16.5q42 0 68 16.5t39.5 43.5t18 60.5t4.5 68.5v428h71v-425zM284 724h-53l73 136h72z" />
    <glyph glyph-name="Ucircumflex" unicode="&#xdb;" horiz-adv-x="551" 
d="M476 242q0 -50 -10 -95.5t-33.5 -80.5t-62 -56t-95.5 -21q-60 0 -98.5 20t-61 54.5t-31 80.5t-8.5 98v425h71v-428q0 -35 4 -68.5t17 -60.5t38.5 -43.5t68.5 -16.5q42 0 68 16.5t39.5 43.5t18 60.5t4.5 68.5v428h71v-425zM339 724l-64 96l-62 -96h-60l92 136h60l93 -136
h-59z" />
    <glyph glyph-name="Udieresis" unicode="&#xdc;" horiz-adv-x="551" 
d="M476 242q0 -50 -10 -95.5t-33.5 -80.5t-62 -56t-95.5 -21q-60 0 -98.5 20t-61 54.5t-31 80.5t-8.5 98v425h71v-428q0 -35 4 -68.5t17 -60.5t38.5 -43.5t68.5 -16.5q42 0 68 16.5t39.5 43.5t18 60.5t4.5 68.5v428h71v-425zM175 750v85h59v-85h-59zM317 750v85h59v-85h-59z
" />
    <glyph glyph-name="germandbls" unicode="&#xdf;" horiz-adv-x="471" 
d="M442 128q0 -29 -8.5 -54t-25 -44t-40 -30t-53.5 -11q-32 0 -51 6t-48 17l6 60q22 -12 40 -19.5t45 -7.5q33 0 51 25t18 57q0 24 -12 42t-30 34.5t-39 33t-39 36.5t-30 45t-12 58q0 27 10.5 50.5t28.5 41t41.5 27.5t49.5 10q0 28 -4.5 57.5t-16.5 54.5t-32.5 41t-52.5 16
q-29 0 -48.5 -16.5t-31.5 -41t-17 -53t-5 -51.5v-512h-65v511q0 41 10.5 80.5t31 70.5t51.5 50t72 19q48 0 80.5 -21t52.5 -55t28.5 -75.5t8.5 -83.5v-33q-18 0 -40 -4t-40.5 -14t-31.5 -26t-13 -41t12 -44t30 -36t38.5 -33t38.5 -35.5t30 -44t12 -57.5z" />
    <glyph glyph-name="agrave" unicode="&#xe0;" horiz-adv-x="439" 
d="M305 249h-16q-32 0 -65.5 -3.5t-60.5 -16t-44 -36t-17 -62.5q0 -38 24.5 -62t63.5 -24q29 0 50.5 12.5t36 32.5t21.5 46t7 52v61zM312 0l-4 71q-26 -39 -57 -60.5t-79 -21.5q-30 0 -55 11t-43 30t-28.5 44.5t-10.5 54.5q0 51 22 83.5t56.5 52t76.5 27t83 7.5h32v35
q0 53 -22.5 85.5t-81.5 32.5q-32 0 -66.5 -14.5t-59.5 -35.5l-6 65q35 19 66 30t73 11q85 0 123 -44t38 -120v-236q0 -29 1.5 -55.5t3.5 -52.5h-62zM199 584l-93 136h70l75 -136h-52z" />
    <glyph glyph-name="aacute" unicode="&#xe1;" horiz-adv-x="439" 
d="M305 249h-16q-32 0 -65.5 -3.5t-60.5 -16t-44 -36t-17 -62.5q0 -38 24.5 -62t63.5 -24q29 0 50.5 12.5t36 32.5t21.5 46t7 52v61zM312 0l-4 71q-26 -39 -57 -60.5t-79 -21.5q-30 0 -55 11t-43 30t-28.5 44.5t-10.5 54.5q0 51 22 83.5t56.5 52t76.5 27t83 7.5h32v35
q0 53 -22.5 85.5t-81.5 32.5q-32 0 -66.5 -14.5t-59.5 -35.5l-6 65q35 19 66 30t73 11q85 0 123 -44t38 -120v-236q0 -29 1.5 -55.5t3.5 -52.5h-62zM222 584h-52l74 136h71z" />
    <glyph glyph-name="acircumflex" unicode="&#xe2;" horiz-adv-x="439" 
d="M305 249h-16q-32 0 -65.5 -3.5t-60.5 -16t-44 -36t-17 -62.5q0 -38 24.5 -62t63.5 -24q29 0 50.5 12.5t36 32.5t21.5 46t7 52v61zM312 0l-4 71q-26 -39 -57 -60.5t-79 -21.5q-30 0 -55 11t-43 30t-28.5 44.5t-10.5 54.5q0 51 22 83.5t56.5 52t76.5 27t83 7.5h32v35
q0 53 -22.5 85.5t-81.5 32.5q-32 0 -66.5 -14.5t-59.5 -35.5l-6 65q35 19 66 30t73 11q85 0 123 -44t38 -120v-236q0 -29 1.5 -55.5t3.5 -52.5h-62zM271 584l-63 97l-60 -97h-60l91 136h60l92 -136h-60z" />
    <glyph glyph-name="atilde" unicode="&#xe3;" horiz-adv-x="439" 
d="M305 249h-16q-32 0 -65.5 -3.5t-60.5 -16t-44 -36t-17 -62.5q0 -38 24.5 -62t63.5 -24q29 0 50.5 12.5t36 32.5t21.5 46t7 52v61zM312 0l-4 71q-26 -39 -57 -60.5t-79 -21.5q-30 0 -55 11t-43 30t-28.5 44.5t-10.5 54.5q0 51 22 83.5t56.5 52t76.5 27t83 7.5h32v35
q0 53 -22.5 85.5t-81.5 32.5q-32 0 -66.5 -14.5t-59.5 -35.5l-6 65q35 19 66 30t73 11q85 0 123 -44t38 -120v-236q0 -29 1.5 -55.5t3.5 -52.5h-62zM342 704q0 -16 -5 -33.5t-15 -32t-24 -24t-32 -9.5q-17 0 -30.5 6.5t-25.5 14t-23.5 14t-23.5 6.5q-16 0 -27 -15.5
t-11 -30.5h-42q0 18 5 35.5t15 31.5t24.5 23t34.5 9q16 0 30.5 -6.5t27.5 -14t24.5 -14t21.5 -6.5q17 0 25 16t8 30h43z" />
    <glyph glyph-name="adieresis" unicode="&#xe4;" horiz-adv-x="439" 
d="M305 249h-16q-32 0 -65.5 -3.5t-60.5 -16t-44 -36t-17 -62.5q0 -38 24.5 -62t63.5 -24q29 0 50.5 12.5t36 32.5t21.5 46t7 52v61zM312 0l-4 71q-26 -39 -57 -60.5t-79 -21.5q-30 0 -55 11t-43 30t-28.5 44.5t-10.5 54.5q0 51 22 83.5t56.5 52t76.5 27t83 7.5h32v35
q0 53 -22.5 85.5t-81.5 32.5q-32 0 -66.5 -14.5t-59.5 -35.5l-6 65q35 19 66 30t73 11q85 0 123 -44t38 -120v-236q0 -29 1.5 -55.5t3.5 -52.5h-62zM110 607v86h59v-86h-59zM252 607v86h59v-86h-59z" />
    <glyph glyph-name="aring" unicode="&#xe5;" horiz-adv-x="439" 
d="M305 249h-16q-32 0 -65.5 -3.5t-60.5 -16t-44 -36t-17 -62.5q0 -38 24.5 -62t63.5 -24q29 0 50.5 12.5t36 32.5t21.5 46t7 52v61zM266 652q0 23 -15.5 40t-39.5 17q-23 0 -40 -17t-17 -40q0 -24 16.5 -40t40.5 -16q23 0 39 16t16 40zM312 0l-4 71q-26 -39 -57 -60.5
t-79 -21.5q-30 0 -55 11t-43 30t-28.5 44.5t-10.5 54.5q0 51 22 83.5t56.5 52t76.5 27t83 7.5h32v35q0 53 -22.5 85.5t-81.5 32.5q-32 0 -66.5 -14.5t-59.5 -35.5l-6 65q35 19 66 30t73 11q85 0 123 -44t38 -120v-236q0 -29 1.5 -55.5t3.5 -52.5h-62zM303 652
q0 -39 -26.5 -65t-65.5 -26t-66 26t-27 65q0 19 7.5 36t20 29.5t29.5 19.5t36 7t36 -7t29.5 -19.5t19.5 -29.5t7 -36z" />
    <glyph glyph-name="ae" unicode="&#xe6;" horiz-adv-x="663" 
d="M293 239h-20q-26 0 -56 -4t-55.5 -16t-42.5 -34t-17 -57q0 -36 22 -59.5t59 -23.5q29 0 50 14t34.5 35.5t19.5 48t6 51.5v45zM556 292q0 24 -3 52t-13 52.5t-29.5 40.5t-51.5 16q-30 0 -49.5 -16.5t-31 -41t-16.5 -52.5t-5 -51h199zM357 239q0 -31 5 -65.5t19 -63
t38.5 -47t63.5 -18.5q27 0 58.5 11t52.5 28l6 -67q-29 -13 -59 -20.5t-63 -7.5t-57.5 7t-42.5 21.5t-31 35.5t-25 48q-18 -51 -57.5 -81.5t-98.5 -30.5q-63 0 -97 39t-34 100q0 44 18.5 75t48.5 51t68 29t77 9h46v23q0 22 -3.5 46.5t-14 44.5t-28.5 33t-47 13q-37 0 -66 -15
t-59 -35l-6 65q18 10 33.5 18t31.5 13t33.5 7.5t39.5 2.5q44 0 80.5 -22.5t47.5 -63.5q20 40 49 63t75 23q52 0 84.5 -23t50 -58.5t23.5 -77.5t6 -81v-29h-266z" />
    <glyph glyph-name="ccedilla" unicode="&#xe7;" horiz-adv-x="374" 
d="M343 8q-23 -9 -46 -14t-47 -5l-33 -43q6 2 13.5 3.5t20.5 1.5q25 0 43.5 -17.5t18.5 -43.5q0 -32 -27 -51.5t-71 -19.5q-22 0 -45.5 3.5t-40.5 12.5l11 30q15 -5 31 -9.5t35 -4.5q22 0 36.5 10t14.5 27t-11 25.5t-25 8.5t-22.5 -2t-16.5 -6l-11 19l43 58
q-46 7 -78.5 31.5t-53.5 60.5t-30.5 79.5t-9.5 88.5q0 54 14.5 101t41 81.5t64.5 54.5t85 20t93 -19l-6 -64q-18 13 -40 19t-43 6q-39 0 -66 -18.5t-43 -48t-23 -64.5t-7 -68q0 -35 7 -71.5t24 -65.5t45 -47.5t70 -18.5q20 0 42 8t37 19z" />
    <glyph glyph-name="egrave" unicode="&#xe8;" horiz-adv-x="417" 
d="M311 283q0 24 -4 53.5t-14.5 55.5t-29 43.5t-47.5 17.5t-49 -17t-32.5 -42.5t-18.5 -55.5t-6 -55h201zM110 232q0 -33 6 -66t21 -60t41 -44t66 -17q29 0 59 11t53 28l6 -67q-26 -14 -61 -21t-64 -7q-57 0 -94.5 22t-60 59t-31.5 84t-9 97q0 45 9.5 90.5t30 82.5
t53.5 60.5t81 23.5q49 0 80.5 -23.5t49.5 -60t25 -80t7 -83.5v-29h-268zM202 584l-93 136h70l75 -136h-52z" />
    <glyph glyph-name="eacute" unicode="&#xe9;" horiz-adv-x="417" 
d="M311 283q0 24 -4 53.5t-14.5 55.5t-29 43.5t-47.5 17.5t-49 -17t-32.5 -42.5t-18.5 -55.5t-6 -55h201zM110 232q0 -33 6 -66t21 -60t41 -44t66 -17q29 0 59 11t53 28l6 -67q-26 -14 -61 -21t-64 -7q-57 0 -94.5 22t-60 59t-31.5 84t-9 97q0 45 9.5 90.5t30 82.5
t53.5 60.5t81 23.5q49 0 80.5 -23.5t49.5 -60t25 -80t7 -83.5v-29h-268zM233 584h-52l75 136h70z" />
    <glyph glyph-name="ecircumflex" unicode="&#xea;" horiz-adv-x="417" 
d="M311 283q0 24 -4 53.5t-14.5 55.5t-29 43.5t-47.5 17.5t-49 -17t-32.5 -42.5t-18.5 -55.5t-6 -55h201zM110 232q0 -33 6 -66t21 -60t41 -44t66 -17q29 0 59 11t53 28l6 -67q-26 -14 -61 -21t-64 -7q-57 0 -94.5 22t-60 59t-31.5 84t-9 97q0 45 9.5 90.5t30 82.5
t53.5 60.5t81 23.5q49 0 80.5 -23.5t49.5 -60t25 -80t7 -83.5v-29h-268zM273 584l-62 97l-60 -97h-60l91 136h59l92 -136h-60z" />
    <glyph glyph-name="edieresis" unicode="&#xeb;" horiz-adv-x="417" 
d="M311 283q0 24 -4 53.5t-14.5 55.5t-29 43.5t-47.5 17.5t-49 -17t-32.5 -42.5t-18.5 -55.5t-6 -55h201zM110 232q0 -33 6 -66t21 -60t41 -44t66 -17q29 0 59 11t53 28l6 -67q-26 -14 -61 -21t-64 -7q-57 0 -94.5 22t-60 59t-31.5 84t-9 97q0 45 9.5 90.5t30 82.5
t53.5 60.5t81 23.5q49 0 80.5 -23.5t49.5 -60t25 -80t7 -83.5v-29h-268zM113 607v86h59v-86h-59zM255 607v86h59v-86h-59z" />
    <glyph glyph-name="igrave" unicode="&#xec;" horiz-adv-x="207" 
d="M71 0v498h65v-498h-65zM92 584l-92 136h70l75 -136h-53z" />
    <glyph glyph-name="iacute" unicode="&#xed;" horiz-adv-x="207" 
d="M71 0v498h65v-498h-65zM115 584h-52l75 136h70z" />
    <glyph glyph-name="icircumflex" unicode="&#xee;" horiz-adv-x="207" 
d="M71 0v498h64v-498h-64zM165 584l-62 97l-61 -97h-60l91 136h60l92 -136h-60z" />
    <glyph glyph-name="idieresis" unicode="&#xef;" horiz-adv-x="207" 
d="M71 0v498h65v-498h-65zM3 607v86h59v-86h-59zM145 607v86h59v-86h-59z" />
    <glyph glyph-name="ntilde" unicode="&#xf1;" horiz-adv-x="462" 
d="M327 0v341q0 20 -4 39.5t-14 35t-26.5 25t-41.5 9.5q-27 0 -47 -12.5t-33 -32t-19 -43.5t-6 -47v-315h-65v350q0 38 -1 74t-2 74h60l1 -71q20 35 52.5 58t74.5 23q37 0 63 -13.5t42 -36t23 -52.5t7 -63v-343h-64zM361 704q0 -16 -5 -33.5t-15 -32t-24 -24t-32 -9.5
q-17 0 -30.5 6.5t-25.5 14t-23.5 14t-23.5 6.5q-16 0 -27 -15.5t-11 -30.5h-42q0 18 5 35.5t15 31.5t24.5 23t34.5 9q16 0 30.5 -6.5t27.5 -14t24.5 -14t21.5 -6.5q17 0 25.5 16t8.5 30h42z" />
    <glyph glyph-name="ograve" unicode="&#xf2;" horiz-adv-x="456" 
d="M345 251q0 29 -4 64t-16 65t-35 50.5t-62 20.5q-36 0 -58.5 -21t-35.5 -51.5t-17.5 -65.5t-4.5 -62q0 -29 4 -64.5t16.5 -66.5t35 -52.5t60.5 -21.5q37 0 60 21.5t36 52.5t17 66.5t4 64.5zM414 251q0 -44 -9 -90.5t-30.5 -84.5t-57.5 -62.5t-89 -24.5q-54 0 -89.5 24
t-57 62t-30.5 84.5t-9 91.5q0 44 10 90t32.5 83t57.5 60.5t86 23.5q55 0 91 -23t57 -60t29.5 -83t8.5 -91zM216 584l-93 136h71l74 -136h-52z" />
    <glyph glyph-name="oacute" unicode="&#xf3;" horiz-adv-x="456" 
d="M345 251q0 29 -4 64t-16 65t-35 50.5t-62 20.5q-36 0 -58.5 -21t-35.5 -51.5t-17.5 -65.5t-4.5 -62q0 -29 4 -64.5t16.5 -66.5t35 -52.5t60.5 -21.5q37 0 60 21.5t36 52.5t17 66.5t4 64.5zM414 251q0 -44 -9 -90.5t-30.5 -84.5t-57.5 -62.5t-89 -24.5q-54 0 -89.5 24
t-57 62t-30.5 84.5t-9 91.5q0 44 10 90t32.5 83t57.5 60.5t86 23.5q55 0 91 -23t57 -60t29.5 -83t8.5 -91zM240 584h-52l75 136h70z" />
    <glyph glyph-name="ocircumflex" unicode="&#xf4;" horiz-adv-x="456" 
d="M345 251q0 29 -4 64t-16 65t-35 50.5t-62 20.5q-36 0 -58.5 -21t-35.5 -51.5t-17.5 -65.5t-4.5 -62q0 -29 4 -64.5t16.5 -66.5t35 -52.5t60.5 -21.5q37 0 60 21.5t36 52.5t17 66.5t4 64.5zM414 251q0 -44 -9 -90.5t-30.5 -84.5t-57.5 -62.5t-89 -24.5q-54 0 -89.5 24
t-57 62t-30.5 84.5t-9 91.5q0 44 10 90t32.5 83t57.5 60.5t86 23.5q55 0 91 -23t57 -60t29.5 -83t8.5 -91zM291 584l-63 97l-60 -97h-60l91 136h60l92 -136h-60z" />
    <glyph glyph-name="otilde" unicode="&#xf5;" horiz-adv-x="456" 
d="M345 251q0 29 -4 64t-16 65t-35 50.5t-62 20.5q-36 0 -58.5 -21t-35.5 -51.5t-17.5 -65.5t-4.5 -62q0 -29 4 -64.5t16.5 -66.5t35 -52.5t60.5 -21.5q37 0 60 21.5t36 52.5t17 66.5t4 64.5zM414 251q0 -44 -9 -90.5t-30.5 -84.5t-57.5 -62.5t-89 -24.5q-54 0 -89.5 24
t-57 62t-30.5 84.5t-9 91.5q0 44 10 90t32.5 83t57.5 60.5t86 23.5q55 0 91 -23t57 -60t29.5 -83t8.5 -91zM360 704q0 -16 -5.5 -33.5t-15 -32t-24 -24t-32.5 -9.5q-17 0 -30.5 6.5t-25.5 14t-23 14t-23 6.5q-16 0 -27 -15.5t-11 -30.5h-42q0 18 5 35.5t15 31.5t24.5 23
t34.5 9q16 0 30 -6.5t27 -14t24.5 -14t21.5 -6.5q17 0 25.5 16t8.5 30h43z" />
    <glyph glyph-name="odieresis" unicode="&#xf6;" horiz-adv-x="456" 
d="M345 251q0 29 -4 64t-16 65t-35 50.5t-62 20.5q-36 0 -58.5 -21t-35.5 -51.5t-17.5 -65.5t-4.5 -62q0 -29 4 -64.5t16.5 -66.5t35 -52.5t60.5 -21.5q37 0 60 21.5t36 52.5t17 66.5t4 64.5zM414 251q0 -44 -9 -90.5t-30.5 -84.5t-57.5 -62.5t-89 -24.5q-54 0 -89.5 24
t-57 62t-30.5 84.5t-9 91.5q0 44 10 90t32.5 83t57.5 60.5t86 23.5q55 0 91 -23t57 -60t29.5 -83t8.5 -91zM128 607v86h59v-86h-59zM270 607v86h59v-86h-59z" />
    <glyph glyph-name="divide" unicode="&#xf7;" horiz-adv-x="542" 
d="M322 64q0 -21 -15 -36.5t-36 -15.5t-35.5 15.5t-14.5 36.5t15 36t35 15q21 0 36 -15t15 -36zM21 214v59h501v-59h-501zM322 423q0 -21 -15 -36t-36 -15q-20 0 -35 15t-15 36t14.5 36t35.5 15t36 -15t15 -36z" />
    <glyph glyph-name="oslash" unicode="&#xf8;" horiz-adv-x="456" 
d="M345 251q0 23 -2.5 51t-10.5 54l-193 -249q13 -26 34.5 -43.5t54.5 -17.5q37 0 60 21.5t35.5 52.5t17 66.5t4.5 64.5zM320 394q-13 25 -35.5 41t-56.5 16q-36 0 -58.5 -21t-35.5 -51.5t-17.5 -65.5t-4.5 -62q0 -24 3 -52.5t11 -54.5zM379 417q20 -36 27.5 -79.5
t7.5 -86.5q0 -44 -9 -90.5t-30.5 -84.5t-57.5 -62.5t-89 -24.5q-45 0 -77 18t-54 47l-60 -79l-27 22l68 87q-20 37 -28 81t-8 86q0 44 10 90t32.5 83t57.5 60.5t86 23.5q46 0 78 -16.5t54 -45.5l58 76l26 -22z" />
    <glyph glyph-name="ugrave" unicode="&#xf9;" horiz-adv-x="458" 
d="M331 0l-2 70q-20 -35 -49.5 -58t-74.5 -23q-36 0 -62 13t-42.5 35.5t-24 53t-7.5 65.5v342h65v-341q0 -22 3.5 -42t13.5 -35t26 -24t42 -9q25 0 44.5 11t33 29.5t20 42.5t6.5 50v318h64v-350q0 -38 1.5 -74t2.5 -74h-60zM218 584l-93 136h70l75 -136h-52z" />
    <glyph glyph-name="uacute" unicode="&#xfa;" horiz-adv-x="458" 
d="M331 0l-2 70q-20 -35 -49.5 -58t-74.5 -23q-36 0 -62 13t-42.5 35.5t-24 53t-7.5 65.5v342h65v-341q0 -22 3.5 -42t13.5 -35t26 -24t42 -9q25 0 44.5 11t33 29.5t20 42.5t6.5 50v318h64v-350q0 -38 1.5 -74t2.5 -74h-60zM239 584h-52l74 136h70z" />
    <glyph glyph-name="ucircumflex" unicode="&#xfb;" horiz-adv-x="458" 
d="M331 0l-2 70q-20 -35 -49.5 -58t-74.5 -23q-36 0 -62 13t-42.5 35.5t-24 53t-7.5 65.5v342h65v-341q0 -22 3.5 -42t13.5 -35t26 -24t42 -9q25 0 44.5 11t33 29.5t20 42.5t6.5 50v318h64v-350q0 -38 1.5 -74t2.5 -74h-60zM290 584l-63 97l-60 -97h-60l91 136h60l92 -136
h-60z" />
    <glyph glyph-name="udieresis" unicode="&#xfc;" horiz-adv-x="458" 
d="M331 0l-2 70q-20 -35 -49.5 -58t-74.5 -23q-36 0 -62 13t-42.5 35.5t-24 53t-7.5 65.5v342h65v-341q0 -22 3.5 -42t13.5 -35t26 -24t42 -9q25 0 44.5 11t33 29.5t20 42.5t6.5 50v318h64v-350q0 -38 1.5 -74t2.5 -74h-60zM127 607v86h60v-86h-60zM270 607v86h59v-86h-59z
" />
    <glyph glyph-name="ydieresis" unicode="&#xff;" horiz-adv-x="371" 
d="M201 -93q-8 -27 -16.5 -51.5t-22 -42.5t-33.5 -28.5t-50 -10.5q-23 0 -43 7l6 62q8 -5 19 -8t21 -3q19 0 32.5 18.5t19.5 41.5l27 99l-147 507h71l109 -408l101 408h66zM88 607v86h59v-86h-59zM230 607v86h59v-86h-59z" />
    <glyph glyph-name="dotlessi" unicode="&#x131;" horiz-adv-x="207" 
d="M71 0v498h65v-498h-65z" />
    <glyph glyph-name="OE" unicode="&#x152;" horiz-adv-x="722" 
d="M375 602q-14 5 -35.5 9t-50.5 4q-53 0 -85 -28.5t-49.5 -70.5t-23 -91.5t-5.5 -91.5q0 -43 5.5 -92.5t22.5 -91.5t49.5 -70t85.5 -28q28 0 50 3t36 10v538zM382 0q-16 -4 -41.5 -7.5t-52.5 -3.5q-72 0 -118 32t-72.5 82t-36 111t-9.5 119q0 57 11 118t38 111t72.5 82.5
t114.5 32.5q25 0 51 -3t43 -7h284v-62h-221v-229h209v-60h-209v-254h232v-62h-295z" />
    <glyph glyph-name="oe" unicode="&#x153;" horiz-adv-x="718" 
d="M345 251q0 29 -4 64t-16 65t-35 50.5t-62 20.5q-36 0 -58.5 -21t-35.5 -51.5t-17.5 -65.5t-4.5 -62q0 -29 4 -64.5t16.5 -66.5t35 -52.5t60.5 -21.5q37 0 60 21.5t36 52.5t17 66.5t4 64.5zM612 283q0 24 -4 53.5t-14.5 55.5t-29 43.5t-47.5 17.5t-49 -17t-32.5 -42.5
t-18.5 -55.5t-6 -55h201zM411 232q0 -33 6 -66t21 -60t40.5 -44t65.5 -17q29 0 59.5 11t53.5 28l6 -67q-26 -14 -61 -21t-64 -7q-115 0 -162 99q-22 -45 -59.5 -72t-88.5 -27q-54 0 -89.5 24t-57 62t-30.5 84.5t-9 91.5q0 44 10 90t32.5 83t57.5 60.5t86 23.5q52 0 88.5 -25
t59.5 -72q20 42 56.5 69.5t84.5 27.5q49 0 80.5 -23.5t49.5 -60t24.5 -80t6.5 -83.5v-29h-267z" />
    <glyph glyph-name="Ydieresis" unicode="&#x178;" horiz-adv-x="414" 
d="M243 286v-286h-71v286l-171 381h78l131 -318l130 318h73zM107 750v85h60v-85h-60zM250 750v85h59v-85h-59z" />
    <glyph glyph-name="florin" unicode="&#x192;" 
d="M407 605q-19 14 -42 14q-22 0 -36 -18t-23 -43.5t-14.5 -54t-10.5 -49.5l-12 -54h85v-55h-96l-73 -347q-6 -31 -16 -70t-26.5 -73.5t-42 -58t-64.5 -23.5q-13 0 -25.5 1.5t-24.5 6.5l10 58q8 -3 15.5 -5.5t15.5 -2.5q22 0 38 21t27 49.5t17.5 58t9.5 46.5l71 339h-85v55
h96l14 62q7 33 15.5 71t23.5 70t39.5 53t63.5 21q33 0 60 -13z" />
    <glyph glyph-name="circumflex" unicode="&#x2c6;" horiz-adv-x="207" 
d="M165 584l-62 97l-61 -97h-60l91 136h60l92 -136h-60z" />
    <glyph glyph-name="caron" unicode="&#x2c7;" horiz-adv-x="207" 
d="M134 584h-60l-92 136h60l63 -96l60 96h60z" />
    <glyph glyph-name="breve" unicode="&#x2d8;" horiz-adv-x="207" 
d="M216 709q0 -11 -4.5 -30.5t-17 -38.5t-34.5 -33.5t-56 -14.5q-35 0 -56.5 14.5t-34.5 33.5t-17.5 38.5t-4.5 30.5h41q3 -32 22 -51t50 -19t49 19t22 51h41z" />
    <glyph glyph-name="dotaccent" unicode="&#x2d9;" horiz-adv-x="207" 
d="M70 608v86h67v-86h-67z" />
    <glyph glyph-name="ring" unicode="&#x2da;" horiz-adv-x="207" 
d="M160 652q0 23 -15.5 40t-39.5 17q-23 0 -40 -17t-17 -40q0 -24 16.5 -40t40.5 -16t39.5 16t15.5 40zM196 652q0 -39 -26 -65t-65 -26t-66.5 26t-27.5 65q0 19 7.5 36t20.5 29.5t30 19.5t36 7q38 0 64.5 -26.5t26.5 -65.5z" />
    <glyph glyph-name="ogonek" unicode="&#x2db;" horiz-adv-x="207" 
d="M181 -165q-18 -8 -34 -12t-33 -4q-38 0 -63.5 20.5t-25.5 57.5q0 62 94 103h37q-35 -22 -55.5 -44t-20.5 -54q0 -26 15 -38.5t32 -12.5q11 0 23.5 4t20.5 9z" />
    <glyph glyph-name="tilde" unicode="&#x2dc;" horiz-adv-x="207" 
d="M234 704q0 -16 -5 -33.5t-15 -32t-24 -24t-32 -9.5q-17 0 -30.5 6.5t-25.5 14t-23.5 14t-23.5 6.5q-16 0 -27 -15.5t-11 -30.5h-42q0 18 5 35.5t15 31.5t24.5 23t34.5 9q16 0 30.5 -6.5t27.5 -14t24.5 -14t21.5 -6.5q17 0 25 16t8 30h43z" />
    <glyph glyph-name="hungarumlaut" unicode="&#x2dd;" horiz-adv-x="207" 
d="M17 584h-53l73 136h72zM151 584h-52l73 136h71z" />
    <glyph glyph-name="pi" unicode="&#x3c0;" horiz-adv-x="650" 
d="M526 8q-17 -9 -32.5 -14t-34.5 -5q-46 0 -61.5 25.5t-15.5 66.5v337h-152v-418h-63v418h-70v60h429v-60h-81v-325q0 -18 4 -32.5t26 -14.5q13 0 26.5 6.5t24.5 11.5v-56z" />
    <glyph glyph-name="endash" unicode="&#x2013;" horiz-adv-x="500" 
d="M0 283v54h500v-54h-500z" />
    <glyph glyph-name="emdash" unicode="&#x2014;" horiz-adv-x="1000" 
d="M0 283v54h1000v-54h-1000z" />
    <glyph glyph-name="quoteleft" unicode="&#x2018;" horiz-adv-x="232" 
d="M122 502h-74l70 219h55z" />
    <glyph glyph-name="quoteright" unicode="&#x2019;" horiz-adv-x="232" 
d="M114 502h-55l51 219h74z" />
    <glyph glyph-name="quotesinglbase" unicode="&#x201a;" horiz-adv-x="232" 
d="M89 -128h-56l51 219h74z" />
    <glyph glyph-name="quotedblleft" unicode="&#x201c;" horiz-adv-x="372" 
d="M122 502h-74l70 219h55zM263 502h-75l70 219h55z" />
    <glyph glyph-name="quotedblright" unicode="&#x201d;" horiz-adv-x="372" 
d="M114 502h-55l51 219h74zM254 502h-55l51 219h74z" />
    <glyph glyph-name="quotedblbase" unicode="&#x201e;" horiz-adv-x="372" 
d="M89 -128h-56l51 219h74zM229 -128h-56l51 219h74z" />
    <glyph glyph-name="dagger" unicode="&#x2020;" 
d="M267 430v-558h-68v558h-132v62h132v229h68v-229h132v-62h-132z" />
    <glyph glyph-name="daggerdbl" unicode="&#x2021;" 
d="M267 101v-229h-68v229h-132v62h132v267h-132v62h132v229h68v-229h132v-62h-132v-267h132v-62h-132z" />
    <glyph glyph-name="bullet" unicode="&#x2022;" 
d="M343 310q0 -23 -8.5 -43t-23.5 -35t-35 -23.5t-43 -8.5t-43 8.5t-35 23.5t-23.5 35t-8.5 43t8.5 43t23.5 35t35 24t43 9t43 -9t35 -24t23.5 -35t8.5 -43z" />
    <glyph glyph-name="ellipsis" unicode="&#x2026;" horiz-adv-x="1000" 
d="M127 0v91h80v-91h-80zM460 0v91h80v-91h-80zM793 0v91h80v-91h-80z" />
    <glyph glyph-name="perthousand" unicode="&#x2030;" horiz-adv-x="1070" 
d="M256 471q0 22 -1.5 49t-7.5 51t-19 40.5t-37 16.5t-37 -16t-20 -40t-8.5 -51.5t-1.5 -49.5q0 -23 1.5 -50t8.5 -51t20.5 -40t36.5 -16q24 0 37 16.5t19 40.5t7.5 51t1.5 49zM647 195q0 22 -1.5 49t-7.5 51t-19 40.5t-37 16.5t-37 -16t-19.5 -40t-8 -51.5t-1.5 -49.5
q0 -23 1.5 -50t8 -51t20 -40t36.5 -16q24 0 37 16.5t19 40.5t7.5 51t1.5 49zM947 195q0 22 -1.5 49t-7.5 51t-19 40.5t-37 16.5t-37 -16t-20 -40t-8.5 -51.5t-1.5 -49.5q0 -23 1.5 -50t8.5 -51t20.5 -40t36.5 -16q24 0 37 16.5t19 40.5t7.5 51t1.5 49zM315 471
q0 -29 -4 -64.5t-17 -67t-37.5 -53t-65.5 -21.5t-65.5 21.5t-38 53t-18 67t-4.5 64.5q0 28 4.5 63.5t18 67t38 53.5t65.5 22t65.5 -21.5t37.5 -53t17 -67.5t4 -64zM274 -24h-53l278 715h53zM706 195q0 -29 -4 -64.5t-17 -67t-37.5 -53t-65.5 -21.5t-65.5 21.5t-38 53
t-17.5 67t-4 64.5q0 28 4.5 63.5t17.5 67t37.5 53.5t65.5 22t65.5 -21.5t37.5 -53t17 -67.5t4 -64zM1006 195q0 -29 -4 -64.5t-17 -67t-37.5 -53t-65.5 -21.5t-65.5 21.5t-38 53t-18 67t-4.5 64.5q0 28 4.5 63.5t18 67t38 53.5t65.5 22t65.5 -21.5t37.5 -53t17 -67.5t4 -64z
" />
    <glyph glyph-name="guilsinglleft" unicode="&#x2039;" horiz-adv-x="239" 
d="M141 55l-109 199l109 200h60l-103 -200l103 -199h-60z" />
    <glyph glyph-name="guilsinglright" unicode="&#x203a;" horiz-adv-x="239" 
d="M99 55h-60l102 200l-102 199h60l109 -199z" />
    <glyph glyph-name="fraction" unicode="&#x2044;" horiz-adv-x="43" 
d="M-91 -24h-53l278 715h54z" />
    <glyph glyph-name="Euro" unicode="&#x20ac;" 
d="M410 587q-13 14 -37 21t-42 7q-38 0 -64.5 -19t-44.5 -47.5t-28.5 -62t-15.5 -63.5h209l-8 -48h-206q-1 -11 -1 -21v-21v-21t1 -21h193l-8 -48h-180q4 -31 14.5 -64.5t29 -62t45 -47t64.5 -18.5q43 0 79 25l6 -69q-42 -18 -90 -18q-53 0 -91.5 22.5t-65 58.5t-41.5 81.5
t-21 91.5h-72l8 48h59q-1 11 -1.5 21t-0.5 21t0.5 21t1.5 21h-67l8 48h65q7 45 22 90.5t41 82t64.5 59t91.5 22.5q25 0 49 -5.5t45 -18.5z" />
    <glyph glyph-name="trademark" unicode="&#x2122;" horiz-adv-x="754" 
d="M162 622v-356h-58v356h-96v45h251v-45h-97zM644 266v353l-112 -353h-46l-112 353v-353h-53v401h87l103 -328l103 328h86v-401h-56z" />
    <glyph glyph-name="Omega" unicode="&#x2126;" horiz-adv-x="750" 
d="M412 0v176q45 0 80.5 18.5t61 49t39 70t13.5 81.5q0 47 -18.5 88.5t-50.5 72t-74 48.5t-88 18q-47 0 -88.5 -18t-73.5 -48.5t-50.5 -72t-18.5 -88.5q0 -42 13.5 -81.5t39 -70t61 -49t80.5 -18.5v-176h-263v60h203v75q-46 9 -83.5 34.5t-64 61.5t-41 79.5t-14.5 88.5
q0 61 25 113t66.5 89.5t95.5 58.5t113 21q58 0 112.5 -21t96 -58.5t66.5 -89t25 -112.5q0 -45 -14.5 -89t-40.5 -80t-63.5 -61.5t-83.5 -34.5v-75h202v-60h-263z" />
    <glyph glyph-name="partialdiff" unicode="&#x2202;" horiz-adv-x="542" 
d="M411 302q-30 32 -66.5 54.5t-82.5 22.5q-37 0 -64.5 -14.5t-45.5 -39t-26.5 -56t-8.5 -64.5q0 -31 8.5 -62t26 -56t43.5 -40.5t61 -15.5q46 0 75 29.5t45.5 72t24 89t10.5 80.5zM478 363q0 -35 -4 -77t-14 -83.5t-26.5 -80.5t-41.5 -69t-59.5 -48t-79.5 -18
q-47 0 -83.5 19.5t-62 51.5t-38.5 73t-13 84t13 81t38 66.5t61 44.5t81 16q49 0 89.5 -20.5t74.5 -54.5q1 7 0.5 16.5t-0.5 17.5q-1 40 -7 90.5t-24 95.5t-50.5 75.5t-85.5 30.5q-34 0 -65 -13t-54 -39l-35 42q32 27 67 41.5t77 14.5q70 0 117 -34.5t74.5 -87t39 -115.5
t11.5 -120z" />
    <glyph glyph-name="Delta" unicode="&#x2206;" horiz-adv-x="750" 
d="M374 606l-230 -549h461zM56 0l280 671h76l282 -671h-638z" />
    <glyph glyph-name="product" unicode="&#x220f;" horiz-adv-x="750" 
d="M580 -200v939h-409v-939h-63v1000h535v-1000h-63z" />
    <glyph glyph-name="summation" unicode="&#x2211;" horiz-adv-x="750" 
d="M80 -200v58l275 450l-255 437v55h568v-56h-494l256 -436l-275 -447h530v-61h-605z" />
    <glyph glyph-name="radical" unicode="&#x221a;" horiz-adv-x="542" 
d="M321 -200h-56l-158 346l-46 -21l-23 43l101 46l149 -333l161 919h53z" />
    <glyph glyph-name="infinity" unicode="&#x221e;" horiz-adv-x="772" 
d="M353 252q-12 16 -26.5 34t-31 33t-36.5 24.5t-42 9.5q-21 0 -40 -8.5t-32.5 -22.5t-21.5 -33.5t-8 -40.5t8 -39.5t21.5 -33t32 -22.5t39.5 -8q24 0 43 11t35.5 27t30.5 35t28 34zM657 246q0 20 -7.5 38.5t-21 32.5t-31.5 22.5t-39 8.5q-20 0 -39.5 -11.5t-37.5 -28
t-33.5 -35t-27.5 -32.5q13 -17 26.5 -35t29.5 -32.5t35.5 -24t43.5 -9.5q21 0 40 8.5t32.5 23.5t21.5 34t8 40zM708 247q0 -33 -11.5 -61.5t-31.5 -50t-48.5 -34t-61.5 -12.5q-31 0 -54.5 9t-43 24t-36 35.5t-32.5 43.5q-16 -22 -33 -42t-37.5 -35t-44 -23.5t-53.5 -8.5
q-33 0 -61.5 12t-49.5 32.5t-33 49t-12 61.5t11 61.5t31.5 50t48.5 33.5t62 12q29 0 53 -9.5t44 -25.5t37 -36.5t32 -42.5q17 21 34 41t36.5 35.5t42.5 25t53 9.5q33 0 62 -11.5t50.5 -32t33.5 -48.5t12 -62z" />
    <glyph glyph-name="integral" unicode="&#x222b;" 
d="M388 713q-11 5 -23 7t-24 2q-28 0 -42.5 -13t-21 -30.5t-7.5 -35.5t-1 -28v-673q0 -27 -4 -56.5t-17.5 -54.5t-40 -41.5t-71.5 -16.5q-14 0 -31.5 2t-30.5 8l6 62q11 -5 23 -7t24 -2q28 0 42.5 13t21 30.5t7.5 35.5t1 28v673q0 27 3.5 56.5t17 54.5t40 41.5t71.5 16.5
q14 0 32 -1.5t31 -8.5z" />
    <glyph glyph-name="approxequal" unicode="&#x2248;" horiz-adv-x="542" 
d="M534 231q-2 -26 -10.5 -50.5t-23.5 -44t-37 -31t-51 -11.5q-35 0 -71.5 11.5t-73 25t-71 25t-64.5 11.5q-35 0 -54.5 -24t-24.5 -56h-45q4 26 12 51t22.5 44.5t36 31t53.5 11.5q34 0 70.5 -11.5t72.5 -25t70.5 -24.5t66.5 -11q36 0 54.5 23t25.5 55h42zM534 400
q-2 -26 -10.5 -50.5t-23.5 -44t-37 -31t-51 -11.5q-35 0 -71.5 11.5t-73 25t-71 25t-64.5 11.5q-35 0 -54.5 -24t-24.5 -56h-45q4 26 12 51t22.5 44.5t36 31t53.5 11.5q34 0 70.5 -11.5t72.5 -25t70.5 -25t66.5 -11.5q36 0 54.5 23.5t25.5 55.5h42z" />
    <glyph glyph-name="notequal" unicode="&#x2260;" horiz-adv-x="542" 
d="M234 120l-75 -143l-51 27l63 116h-150v58h180l69 131h-249v57h280l78 147l50 -26l-64 -121h157v-57h-188l-69 -131h257v-58h-288z" />
    <glyph glyph-name="lessequal" unicode="&#x2264;" horiz-adv-x="542" 
d="M19 -27v57h501v-57h-501zM19 263v63l501 189v-63l-422 -158l422 -158v-63z" />
    <glyph glyph-name="greaterequal" unicode="&#x2265;" horiz-adv-x="542" 
d="M22 -27v57h501v-57h-501zM22 73v63l421 158l-421 158v63l501 -189v-63z" />
    <glyph glyph-name="lozenge" unicode="&#x25ca;" horiz-adv-x="542" 
d="M271 735l-138 -335l138 -335l138 335zM301 0h-61l-169 400l169 400h61l171 -400z" />
    <glyph glyph-name="fi" unicode="&#xfb01;" horiz-adv-x="451" 
d="M258 666q-19 8 -37 8q-33 0 -47.5 -21t-14.5 -56v-99h87v-55h-87v-443h-64v443h-76v55h76v94q0 74 29 106.5t92 32.5q14 0 25.5 -3t22.5 -5zM380 0v498h-64v-498h64zM315 608v86h66v-86h-66z" />
    <glyph glyph-name="fl" unicode="&#xfb02;" horiz-adv-x="451" 
d="M258 666q-19 8 -37 8q-33 0 -47.5 -21t-14.5 -56v-99h87v-55h-87v-443h-64v443h-76v55h76v94q0 74 29 106.5t92 32.5q14 0 25.5 -3t22.5 -5zM316 0v721h64v-721h-64z" />
    <glyph glyph-name="currency" unicode="&#xa4;" 
d="M364 332q0 31 -10 59t-28 48.5t-42 32.5t-51 12t-51 -12t-42 -32.5t-28 -48t-10 -59.5t10.5 -59.5t28 -48t41.5 -32.5t51 -12t51 12t41.5 32.5t28 48t10.5 59.5zM406 101l-58 65q-50 -45 -115 -45q-32 0 -61 12t-54 32l-57 -63l-35 39l56 63q-20 30 -29.5 60.5t-9.5 68.5
q0 71 39 128l-57 64l35 40l57 -65q52 44 116 44q34 0 61 -11t55 -32l57 63l35 -40l-57 -63q19 -29 29 -60.5t10 -68.5q0 -70 -39 -127l57 -65z" />
    <glyph glyph-name="brokenbar" unicode="&#xa6;" horiz-adv-x="206" 
d="M73 -216v397h61v-397h-61zM73 379v396h61v-396h-61z" />
    <glyph glyph-name="uni00AD" unicode="&#xad;" horiz-adv-x="283" 
d="M43 278v64h197v-64h-197z" />
    <glyph glyph-name="twosuperior" unicode="&#xb2;" horiz-adv-x="360" 
d="M60 270v47l33 35q19 21 42 47t42 54.5t32 57.5t13 56q0 60 -65 60q-43 0 -81 -22l-4 48q15 7 38.5 15.5t60.5 8.5q29 0 49.5 -9t34 -23.5t20 -33.5t6.5 -40q0 -29 -12.5 -59t-29.5 -56.5t-35.5 -48.5t-30.5 -35l-50 -55h163v-47h-226z" />
    <glyph glyph-name="threesuperior" unicode="&#xb3;" horiz-adv-x="360" 
d="M291 385q0 -56 -39 -88t-109 -32q-17 0 -42 3.5t-41 12.5l4 52q19 -8 39 -13t41 -5q40 0 64 20t24 55t-28.5 51t-67.5 16h-26v47h25q40 0 67.5 14.5t27.5 51.5q0 29 -24 43t-56 14q-21 0 -39 -5.5t-35 -13.5l-4 50q18 8 43.5 13.5t48.5 5.5q25 0 47.5 -7t40 -20t27.5 -32
t10 -44q0 -36 -22.5 -59.5t-60.5 -33.5q37 -5 61 -30.5t24 -65.5z" />
    <glyph glyph-name="onesuperior" unicode="&#xb9;" horiz-adv-x="370" 
d="M155 266v340l-56 -55l-29 38l90 78h51v-401h-56z" />
    <glyph glyph-name="onequarter" unicode="&#xbc;" horiz-adv-x="770" 
d="M549 346l-123 -210h123v210zM175 266v340l-56 -55l-29 38l90 78h51v-401h-56zM246 -24h-54l279 715h53zM604 89v-89h-56v89h-165v55l152 257h69v-265h44v-47h-44z" />
    <glyph glyph-name="onehalf" unicode="&#xbd;" horiz-adv-x="770" 
d="M155 266v340l-56 -55l-29 38l90 78h51v-401h-56zM226 -24h-54l279 715h53zM423 0v47l34 35q20 21 42.5 47t42 54.5t32 57.5t12.5 56q0 60 -65 60q-43 0 -81 -22l-4 48q15 7 38.5 15.5t60.5 8.5q29 0 49.5 -9t34 -23.5t20 -33.5t6.5 -40q0 -29 -12.5 -59t-29.5 -56.5
t-35.5 -48.5t-30.5 -35l-50 -55h163v-47h-227z" />
    <glyph glyph-name="threequarters" unicode="&#xbe;" horiz-adv-x="770" 
d="M591 346l-123 -210h123v210zM317 385q0 -56 -39 -88t-109 -32q-17 0 -42 3.5t-41 12.5l4 52q19 -8 39 -13t41 -5q40 0 64 20t24 55t-28.5 51t-67.5 16h-26v47h25q40 0 67.5 14.5t27.5 51.5q0 29 -24 43t-56 14q-21 0 -39 -5.5t-35 -13.5l-4 50q18 8 43.5 13.5t48.5 5.5
q25 0 47.5 -7t40 -20t27.5 -32t10 -44q0 -36 -22.5 -59.5t-60.5 -33.5q37 -5 61 -30.5t24 -65.5zM288 -24h-53l278 715h53zM646 89v-89h-56v89h-165v55l152 257h69v-265h44v-47h-44z" />
    <glyph glyph-name="Eth" unicode="&#xd0;" horiz-adv-x="554" 
d="M430 333q0 58 -12 107.5t-39 86t-70.5 57.5t-107.5 21h-46v-242h137v-56h-137v-245h59q61 0 102.5 22t66.5 59t36 86.5t11 103.5zM504 333q0 -75 -18.5 -136t-56 -105t-94.5 -68t-134 -24h-117v307h-59v56h59v304h95q165 0 245 -87t80 -247z" />
    <glyph glyph-name="multiply" unicode="&#xd7;" horiz-adv-x="542" 
d="M465 7l-193 194l-194 -193l-43 42l194 194l-194 193l42 44l194 -195l194 194l43 -43l-194 -193l194 -194z" />
    <glyph glyph-name="Yacute" unicode="&#xdd;" horiz-adv-x="414" 
d="M243 286v-286h-71v286l-171 381h78l131 -318l130 318h73zM220 724h-52l73 136h71z" />
    <glyph glyph-name="Thorn" unicode="&#xde;" horiz-adv-x="456" 
d="M354 339q0 73 -39.5 102t-110.5 29h-50v-260h63q68 0 102.5 29.5t34.5 99.5zM428 339q0 -89 -51.5 -139.5t-140.5 -50.5h-82v-149h-70v667h70v-136h66q94 0 151 -46.5t57 -145.5z" />
    <glyph glyph-name="eth" unicode="&#xf0;" horiz-adv-x="456" 
d="M345 244q0 29 -4 63t-16.5 63t-35.5 48.5t-61 19.5t-60.5 -19.5t-35 -48.5t-16.5 -63t-4 -63t4.5 -63.5t17.5 -64.5t35.5 -50t58.5 -20t59 20t36 50t17.5 64.5t4.5 63.5zM414 284q0 -46 -6.5 -98t-26.5 -95.5t-56.5 -72.5t-96.5 -29q-52 0 -87.5 23t-57.5 60t-31.5 82.5
t-9.5 89.5q0 45 9.5 89.5t30.5 80.5t56 58.5t86 22.5q32 0 59.5 -17.5t48.5 -40.5q-17 53 -39.5 101.5t-64.5 84.5l-91 -58l-31 28l89 55q-22 14 -49.5 28.5t-55.5 24.5l46 30q31 -11 59 -24t51 -30l89 54l30 -26l-85 -55q36 -30 61.5 -73.5t41.5 -93.5t23.5 -101.5
t7.5 -97.5z" />
    <glyph glyph-name="yacute" unicode="&#xfd;" horiz-adv-x="371" 
d="M201 -93q-8 -27 -16.5 -51.5t-22 -42.5t-33.5 -28.5t-50 -10.5q-23 0 -43 7l6 62q8 -5 19 -8t21 -3q19 0 32.5 18.5t19.5 41.5l27 99l-147 507h71l109 -408l101 408h66zM205 584h-53l73 136h72z" />
    <glyph glyph-name="thorn" unicode="&#xfe;" horiz-adv-x="464" 
d="M353 251q0 26 -3 60.5t-14.5 65.5t-32.5 52.5t-57 21.5q-35 0 -57 -19.5t-34.5 -49t-17 -65t-4.5 -66.5q0 -32 3.5 -67.5t15.5 -66.5t34 -51t59 -20q35 0 56 22.5t32.5 54.5t15.5 67t4 61zM423 251q0 -39 -7.5 -85t-26.5 -85.5t-51.5 -65.5t-81.5 -26q-45 0 -73.5 21.5
t-46.5 55.5v-282h-65v937h65v-292q19 32 47.5 55.5t73.5 23.5q51 0 83 -25t50.5 -63.5t25.5 -83.5t7 -85z" />
    <glyph glyph-name="Lslash" unicode="&#x141;" horiz-adv-x="385" 
d="M84 0v289l-58 -66v69l58 67v308h71v-240l106 123v-72l-106 -122v-294h212v-62h-283z" />
    <glyph glyph-name="lslash" unicode="&#x142;" horiz-adv-x="207" 
d="M136 388v-388h-65v321l-54 -63v70l54 63v330h65v-263l54 63v-70z" />
    <glyph glyph-name="Scaron" unicode="&#x160;" horiz-adv-x="418" 
d="M373 176q0 -42 -14 -76.5t-39 -59t-59 -38t-73 -13.5q-16 0 -34.5 2t-37 6t-36 10t-30.5 14l6 76q17 -14 35 -23t35 -14t31.5 -6.5t23.5 -1.5q39 0 62.5 13.5t35.5 32.5t16 38t4 31q0 27 -6.5 45.5t-19 33.5t-29.5 28t-38 28l-59 43q-25 18 -43.5 35.5t-30.5 37t-18 42
t-6 50.5q0 55 22.5 88t52.5 50.5t60.5 23t46.5 5.5q41 0 72 -8.5t45 -12.5l-6 -74q-21 13 -47 22.5t-64 9.5q-16 0 -34.5 -5t-35 -16t-27.5 -30t-11 -46q0 -43 20 -68t55 -50l59 -42q33 -24 55 -43.5t35.5 -39.5t19.5 -43.5t6 -54.5zM247 724h-59l-92 136h58l63 -96l64 96
h58z" />
    <glyph glyph-name="scaron" unicode="&#x161;" horiz-adv-x="346" 
d="M313 132q0 -33 -11 -59.5t-30.5 -45t-46.5 -28.5t-60 -10q-67 0 -129 23l6 68q27 -15 56 -24.5t60 -9.5q16 0 31.5 6t28 16.5t20 25t7.5 31.5q0 28 -15 47t-38 33.5t-49.5 28t-49.5 31.5t-38 43t-15 64q0 33 13 58.5t34.5 42.5t48.5 26t55 9q23 0 48 -4.5t48 -12.5
l-6 -62q-22 9 -43.5 15.5t-44.5 6.5q-16 0 -31 -5t-27 -15t-19 -23.5t-7 -30.5q0 -29 15 -48t38 -33.5t49 -27.5t49 -30.5t38 -42.5t15 -63zM208 584h-59l-92 136h60l62 -96l60 96h60z" />
    <glyph glyph-name="Zcaron" unicode="&#x17d;" horiz-adv-x="419" 
d="M30 0v66l279 539h-268v62h343v-64l-280 -541h285v-62h-359zM242 724h-62l-92 136h60l63 -96l62 96h60z" />
    <glyph glyph-name="zcaron" unicode="&#x17e;" horiz-adv-x="350" 
d="M28 0v60l224 383h-217v55h285v-60l-223 -383h226v-55h-295zM209 584h-59l-92 136h60l62 -96l60 96h60z" />
    <glyph glyph-name="minus" unicode="&#x2212;" horiz-adv-x="542" 
d="M21 215v58h501v-58h-501z" />
    <glyph glyph-name=".null" horiz-adv-x="0" 
 />
    </font>
</defs>
</svg>
